<svg width="327" height="76" viewBox="0 0 327 76" fill="none" xmlns="http://www.w3.org/2000/svg">
<path d="M29.4718 74.976C19.2958 74.976 11.8398 72.32 7.10377 67.008C2.36777 61.632 -0.000233889 54.144 -0.000233889 44.544V9.024H17.7598V44.064C17.7598 49.056 18.7198 52.672 20.6398 54.912C22.6238 57.088 25.5678 58.176 29.4718 58.176C33.4398 58.176 36.3838 57.088 38.3038 54.912C40.2878 52.672 41.2798 49.056 41.2798 44.064V9.024H59.0398V44.544C59.0398 54.144 56.6398 61.632 51.8398 67.008C47.0398 72.32 39.5838 74.976 29.4718 74.976ZM96.107 41.184C93.995 41.184 92.299 41.696 91.019 42.72C89.739 43.744 88.811 45.088 88.235 46.752C87.659 48.416 87.371 50.272 87.371 52.32V73.824H70.091V50.208C70.091 45.472 71.019 41.152 72.875 37.248C74.731 33.344 77.579 30.24 81.419 27.936C85.259 25.568 90.155 24.384 96.107 24.384C102.059 24.384 106.955 25.568 110.795 27.936C114.635 30.24 117.483 33.344 119.339 37.248C121.195 41.152 122.123 45.472 122.123 50.208V73.824H104.843V52.32C104.843 50.272 104.555 48.416 103.979 46.752C103.403 45.088 102.475 43.744 101.195 42.72C99.915 41.696 98.219 41.184 96.107 41.184ZM133.605 25.824H150.885V73.824H133.605V25.824ZM142.245 20.736C140.389 20.736 138.661 20.288 137.061 19.392C135.461 18.432 134.181 17.152 133.221 15.552C132.325 13.952 131.877 12.224 131.877 10.368C131.877 8.448 132.325 6.72 133.221 5.184C134.181 3.584 135.461 2.336 137.061 1.44C138.661 0.480001 140.389 0 142.245 0C144.165 0 145.893 0.480001 147.429 1.44C149.029 2.336 150.277 3.584 151.173 5.184C152.133 6.72 152.613 8.448 152.613 10.368C152.613 12.224 152.133 13.952 151.173 15.552C150.277 17.152 149.029 18.432 147.429 19.392C145.893 20.288 144.165 20.736 142.245 20.736ZM164.355 3.744H181.635V73.824H164.355V3.744ZM195.105 25.824H212.385V73.824H195.105V25.824ZM203.745 20.736C201.889 20.736 200.161 20.288 198.561 19.392C196.961 18.432 195.681 17.152 194.721 15.552C193.825 13.952 193.377 12.224 193.377 10.368C193.377 8.448 193.825 6.72 194.721 5.184C195.681 3.584 196.961 2.336 198.561 1.44C200.161 0.480001 201.889 0 203.745 0C205.665 0 207.393 0.480001 208.929 1.44C210.529 2.336 211.777 3.584 212.673 5.184C213.633 6.72 214.113 8.448 214.113 10.368C214.113 12.224 213.633 13.952 212.673 15.552C211.777 17.152 210.529 18.432 208.929 19.392C207.393 20.288 205.665 20.736 203.745 20.736ZM243.999 75.36C238.559 75.36 234.047 74.432 230.463 72.576C226.879 70.72 224.063 67.968 222.015 64.32L234.495 57.312C235.391 58.848 236.511 60 237.855 60.768C239.199 61.536 240.959 61.92 243.135 61.92C244.351 61.92 245.311 61.792 246.015 61.536C246.783 61.28 247.359 60.96 247.743 60.576C248.127 60.128 248.319 59.648 248.319 59.136C248.319 58.176 247.711 57.472 246.495 57.024C245.279 56.576 243.711 56.192 241.791 55.872C239.871 55.552 237.823 55.168 235.647 54.72C233.471 54.208 231.423 53.44 229.503 52.416C227.583 51.392 226.015 49.952 224.799 48.096C223.583 46.176 222.975 43.68 222.975 40.608C222.975 37.6 223.775 34.88 225.375 32.448C227.039 29.952 229.407 27.968 232.479 26.496C235.615 25.024 239.359 24.288 243.711 24.288C247.551 24.288 250.815 24.832 253.503 25.92C256.191 27.008 258.399 28.384 260.127 30.048C261.919 31.712 263.263 33.44 264.159 35.232L251.679 42.336C251.167 40.864 250.175 39.744 248.703 38.976C247.295 38.144 245.759 37.728 244.095 37.728C243.263 37.728 242.559 37.856 241.983 38.112C241.407 38.304 240.959 38.592 240.639 38.976C240.383 39.296 240.255 39.712 240.255 40.224C240.255 41.184 240.863 41.92 242.079 42.432C243.295 42.944 244.863 43.36 246.783 43.68C248.703 44 250.751 44.416 252.927 44.928C255.103 45.44 257.151 46.208 259.071 47.232C260.991 48.256 262.559 49.696 263.775 51.552C264.991 53.344 265.599 55.744 265.599 58.752C265.599 62.08 264.607 64.992 262.623 67.488C260.639 69.984 258.015 71.936 254.751 73.344C251.487 74.688 247.903 75.36 243.999 75.36ZM292.447 73.824H275.167V3.744H292.447V38.784H284.383C284.383 36.288 285.247 33.952 286.975 31.776C288.767 29.536 291.135 27.744 294.079 26.4C297.087 25.056 300.383 24.384 303.967 24.384C309.023 24.384 313.215 25.376 316.543 27.36C319.871 29.28 322.367 32.064 324.031 35.712C325.695 39.36 326.527 43.776 326.527 48.96V73.824L309.247 73.728V50.784C309.247 48.992 308.927 47.328 308.287 45.792C307.711 44.256 306.815 43.008 305.599 42.048C304.383 41.088 302.911 40.608 301.183 40.608C299.391 40.608 297.823 41.056 296.479 41.952C295.199 42.784 294.207 43.968 293.503 45.504C292.799 47.04 292.447 48.8 292.447 50.784V73.824Z" fill="#204E1E"/>
</svg>
