<svg width="280" height="361" viewBox="0 0 280 361" fill="none" xmlns="http://www.w3.org/2000/svg">
<g filter="url(#filter0_dddd_45_5021)">
<path d="M47.7261 98.3522C47.4776 91.5339 47.3533 88.1247 48.6569 84.4937C49.775 81.3793 51.8315 78.3654 54.3237 76.1886C57.2293 73.6507 61.4488 72.1731 69.8878 69.2179C87.844 62.9299 105.167 54.497 121.5 44.6987C128.923 40.2451 132.635 38.0183 135.83 37.3168C139.002 36.6203 141.237 36.6203 144.409 37.3168C147.603 38.0183 151.315 40.2451 158.739 44.6987C175.072 54.497 192.395 62.9299 210.351 69.2179C218.79 72.1731 223.009 73.6507 225.915 76.1886C228.407 78.3654 230.464 81.3793 231.582 84.4937C232.885 88.1247 232.761 91.5339 232.513 98.3522C231.805 117.756 228.303 146.593 215.503 172.621C198.622 206.945 170.429 229.459 153.722 240.549C150.055 242.984 148.221 244.201 144.765 245.027C142.369 245.599 137.87 245.599 135.474 245.027C132.018 244.201 130.184 242.984 126.517 240.549C109.81 229.459 81.6166 206.945 64.7363 172.621C51.9356 146.593 48.4333 117.756 47.7261 98.3522Z" fill="black"/>
</g>
<mask id="mask0_45_5021" style="mask-type:alpha" maskUnits="userSpaceOnUse" x="47" y="36" width="186" height="210">
<path d="M47.7261 98.3522C47.4776 91.5339 47.3533 88.1247 48.6569 84.4937C49.775 81.3793 51.8315 78.3654 54.3237 76.1886C57.2293 73.6507 61.4488 72.1731 69.8878 69.2179C87.844 62.9299 105.167 54.497 121.5 44.6987C128.923 40.2451 132.635 38.0183 135.83 37.3168C139.002 36.6203 141.237 36.6203 144.409 37.3168C147.603 38.0183 151.315 40.2451 158.739 44.6987C175.072 54.497 192.395 62.9299 210.351 69.2179C218.79 72.1731 223.009 73.6507 225.915 76.1886C228.407 78.3654 230.464 81.3793 231.582 84.4937C232.885 88.1247 232.761 91.5339 232.513 98.3522C231.805 117.756 228.303 146.593 215.503 172.621C198.622 206.945 170.429 229.459 153.722 240.549C150.055 242.984 148.221 244.201 144.765 245.027C142.369 245.599 137.87 245.599 135.474 245.027C132.018 244.201 130.184 242.984 126.517 240.549C109.81 229.459 81.6166 206.945 64.7363 172.621C51.9356 146.593 48.4333 117.756 47.7261 98.3522Z" fill="black"/>
</mask>
<g mask="url(#mask0_45_5021)">
<mask id="mask1_45_5021" style="mask-type:alpha" maskUnits="userSpaceOnUse" x="47" y="36" width="186" height="210">
<path d="M47.7261 98.3522C47.4776 91.5339 47.3533 88.1247 48.6569 84.4937C49.775 81.3793 51.8315 78.3654 54.3237 76.1886C57.2293 73.6507 61.4488 72.1731 69.8878 69.2179C87.844 62.9299 105.167 54.497 121.5 44.6987C128.923 40.2451 132.635 38.0183 135.83 37.3168C139.002 36.6203 141.237 36.6203 144.409 37.3168C147.603 38.0183 151.315 40.2451 158.739 44.6987C175.072 54.497 192.395 62.9299 210.351 69.2179C218.79 72.1731 223.009 73.6507 225.915 76.1886C228.407 78.3654 230.464 81.3793 231.582 84.4937C232.885 88.1247 232.761 91.5339 232.513 98.3522C231.805 117.756 228.303 146.593 215.503 172.621C198.622 206.945 170.429 229.459 153.722 240.549C150.055 242.984 148.221 244.201 144.765 245.027C142.369 245.599 137.87 245.599 135.474 245.027C132.018 244.201 130.184 242.984 126.517 240.549C109.81 229.459 81.6166 206.945 64.7363 172.621C51.9356 146.593 48.4333 117.756 47.7261 98.3522Z" fill="black"/>
</mask>
<g mask="url(#mask1_45_5021)">
<rect width="280" height="280" fill="#EC5526"/>
<rect width="280" height="280" fill="url(#paint0_linear_45_5021)" fill-opacity="0.6" style="mix-blend-mode:overlay"/>
<rect width="280" height="280" fill="url(#paint1_radial_45_5021)" fill-opacity="0.6" style="mix-blend-mode:overlay"/>
<rect width="280" height="280" fill="black" fill-opacity="0.16" style="mix-blend-mode:overlay"/>
<rect width="280" height="280" fill="black" fill-opacity="0.12" style="mix-blend-mode:darken"/>
</g>
<g filter="url(#filter1_d_45_5021)">
<mask id="mask2_45_5021" style="mask-type:alpha" maskUnits="userSpaceOnUse" x="47" y="36" width="186" height="210">
<path fill-rule="evenodd" clip-rule="evenodd" d="M72.5318 76.7683C91.072 70.2759 108.886 61.5949 125.615 51.5589C129.399 49.2888 131.979 47.7443 134.011 46.6617C136.042 45.58 137.011 45.248 137.546 45.1306C139.587 44.6824 140.651 44.6824 142.693 45.1306C143.228 45.248 144.196 45.58 146.227 46.6617C148.26 47.7443 150.839 49.2888 154.623 51.5589C171.352 61.5949 189.167 70.2759 207.707 76.7683C212.027 78.2812 214.896 79.2903 217.066 80.217C219.168 81.1143 220.093 81.7255 220.652 82.2139C222.118 83.4944 223.395 85.3649 224.052 87.1969C224.728 89.0777 224.784 90.7724 224.518 98.0608C223.829 116.953 220.414 144.507 208.324 169.091C192.335 201.601 165.46 223.155 149.298 233.884C145.589 236.346 144.823 236.788 142.907 237.246C142.572 237.325 141.549 237.456 140.119 237.456C138.69 237.456 137.667 237.325 137.332 237.246C135.416 236.788 134.649 236.346 130.941 233.884C114.779 223.155 87.9037 201.601 71.915 169.091C59.825 144.507 56.4093 116.953 55.7207 98.0608C55.4551 90.7724 55.5111 89.0777 56.1863 87.1969C56.8441 85.3649 58.1203 83.4944 59.5864 82.2139C60.1456 81.7255 61.0711 81.1143 63.1725 80.217C65.3425 79.2903 68.2115 78.2812 72.5318 76.7683ZM47.726 98.3522C47.4775 91.5339 47.3533 88.1247 48.6569 84.4937C49.775 81.3794 51.8315 78.3654 54.3236 76.1886C57.2293 73.6507 61.4487 72.1731 69.8877 69.2179C87.8439 62.93 105.167 54.497 121.5 44.6987C128.923 40.2451 132.635 38.0183 135.83 37.3168C139.002 36.6203 141.237 36.6203 144.409 37.3168C147.603 38.0183 151.315 40.2451 158.739 44.6987C175.072 54.497 192.395 62.93 210.351 69.2179C218.79 72.1731 223.009 73.6507 225.915 76.1886C228.407 78.3654 230.464 81.3794 231.582 84.4937C232.885 88.1247 232.761 91.5339 232.513 98.3522C231.805 117.756 228.303 146.593 215.502 172.621C198.622 206.945 170.429 229.459 153.722 240.549C150.054 242.984 148.221 244.202 144.765 245.027C142.369 245.599 137.87 245.599 135.474 245.027C132.018 244.202 130.184 242.984 126.516 240.549C109.81 229.459 81.6166 206.945 64.7362 172.621C51.9356 146.593 48.4332 117.756 47.726 98.3522ZM133.644 65.2757C124.276 70.6607 114.938 76.0287 105.126 80.6528C95.5674 85.1573 85.7442 88.82 75.8758 92.4928C74.3382 93.065 73.5694 93.3512 73.0016 93.8634C72.5082 94.3086 72.1182 94.8977 71.901 95.5258C71.651 96.2485 71.687 97.0498 71.7588 98.6524C72.7336 120.384 76.6259 142.415 86.2725 162.03C97.5131 184.885 115.803 203.892 136.607 218.384C137.828 219.235 138.439 219.66 139.155 219.838C139.765 219.99 140.474 219.99 141.083 219.838C141.8 219.66 142.41 219.235 143.631 218.384C164.436 203.892 182.725 184.885 193.966 162.03C203.613 142.415 207.505 120.384 208.48 98.6525C208.552 97.0498 208.587 96.2485 208.338 95.5258C208.12 94.8977 207.73 94.3087 207.237 93.8635C206.669 93.3512 205.9 93.065 204.363 92.4927C194.499 88.8212 184.646 85.1457 175.112 80.6528C165.3 76.0288 155.962 70.6608 146.595 65.2757C145.491 64.6413 144.387 64.0065 143.282 63.3728C142.136 62.7156 141.562 62.387 140.946 62.2568C140.404 62.1422 139.834 62.1422 139.292 62.2568C138.676 62.387 138.103 62.7156 136.957 63.3728C135.851 64.0065 134.747 64.6412 133.644 65.2757Z" fill="url(#paint2_linear_45_5021)"/>
</mask>
<g mask="url(#mask2_45_5021)">
<rect width="280" height="280" fill="#EC5526"/>
<rect x="-1" width="280" height="280" fill="url(#paint3_linear_45_5021)" fill-opacity="0.6" style="mix-blend-mode:overlay"/>
<rect x="-1" width="280" height="280" fill="url(#paint4_radial_45_5021)" fill-opacity="0.6" style="mix-blend-mode:overlay"/>
<g style="mix-blend-mode:soft-light">
<path fill-rule="evenodd" clip-rule="evenodd" d="M0 0H140V280H0V0Z" fill="url(#paint5_linear_45_5021)" style="mix-blend-mode:lighten"/>
</g>
<g style="mix-blend-mode:soft-light">
<mask id="path-11-inside-1_45_5021" fill="white">
<path fill-rule="evenodd" clip-rule="evenodd" d="M72.5318 76.7683C91.072 70.2759 108.886 61.5949 125.615 51.5589C129.399 49.2888 131.979 47.7443 134.011 46.6617C136.042 45.58 137.011 45.248 137.546 45.1306C139.587 44.6824 140.651 44.6824 142.693 45.1306C143.228 45.248 144.196 45.58 146.227 46.6617C148.26 47.7443 150.839 49.2888 154.623 51.5589C171.352 61.5949 189.167 70.2759 207.707 76.7683C212.027 78.2812 214.896 79.2903 217.066 80.217C219.168 81.1143 220.093 81.7255 220.652 82.2139C222.118 83.4944 223.395 85.3649 224.052 87.1969C224.728 89.0777 224.784 90.7724 224.518 98.0608C223.829 116.953 220.414 144.507 208.324 169.091C192.335 201.601 165.46 223.155 149.298 233.884C145.589 236.346 144.823 236.788 142.907 237.246C142.572 237.325 141.549 237.456 140.119 237.456C138.69 237.456 137.667 237.325 137.332 237.246C135.416 236.788 134.649 236.346 130.941 233.884C114.779 223.155 87.9037 201.601 71.915 169.091C59.825 144.507 56.4093 116.953 55.7207 98.0608C55.4551 90.7724 55.5111 89.0777 56.1863 87.1969C56.8441 85.3649 58.1203 83.4944 59.5864 82.2139C60.1456 81.7255 61.0711 81.1143 63.1725 80.217C65.3425 79.2903 68.2115 78.2812 72.5318 76.7683ZM47.726 98.3522C47.4775 91.5339 47.3533 88.1247 48.6569 84.4937C49.775 81.3794 51.8315 78.3654 54.3236 76.1886C57.2293 73.6507 61.4487 72.1731 69.8877 69.2179C87.8439 62.93 105.167 54.497 121.5 44.6987C128.923 40.2451 132.635 38.0183 135.83 37.3168C139.002 36.6203 141.237 36.6203 144.409 37.3168C147.603 38.0183 151.315 40.2451 158.739 44.6987C175.072 54.497 192.395 62.93 210.351 69.2179C218.79 72.1731 223.009 73.6507 225.915 76.1886C228.407 78.3654 230.464 81.3794 231.582 84.4937C232.885 88.1247 232.761 91.5339 232.513 98.3522C231.805 117.756 228.303 146.593 215.502 172.621C198.622 206.945 170.429 229.459 153.722 240.549C150.054 242.984 148.221 244.202 144.765 245.027C142.369 245.599 137.87 245.599 135.474 245.027C132.018 244.202 130.184 242.984 126.516 240.549C109.81 229.459 81.6166 206.945 64.7362 172.621C51.9356 146.593 48.4332 117.756 47.726 98.3522ZM133.644 65.2757C124.276 70.6607 114.938 76.0287 105.126 80.6528C95.5674 85.1573 85.7442 88.82 75.8758 92.4928C74.3382 93.065 73.5694 93.3512 73.0016 93.8634C72.5082 94.3086 72.1182 94.8977 71.901 95.5258C71.651 96.2485 71.687 97.0498 71.7588 98.6524C72.7336 120.384 76.6259 142.415 86.2725 162.03C97.5131 184.885 115.803 203.892 136.607 218.384C137.828 219.235 138.439 219.66 139.155 219.838C139.765 219.99 140.474 219.99 141.083 219.838C141.8 219.66 142.41 219.235 143.631 218.384C164.436 203.892 182.725 184.885 193.966 162.03C203.613 142.415 207.505 120.384 208.48 98.6525C208.552 97.0498 208.587 96.2485 208.338 95.5258C208.12 94.8977 207.73 94.3087 207.237 93.8635C206.669 93.3512 205.9 93.065 204.363 92.4927C194.499 88.8212 184.646 85.1457 175.112 80.6528C165.3 76.0288 155.962 70.6608 146.595 65.2757C145.491 64.6413 144.387 64.0065 143.282 63.3728C142.136 62.7156 141.562 62.387 140.946 62.2568C140.404 62.1422 139.834 62.1422 139.292 62.2568C138.676 62.387 138.103 62.7156 136.957 63.3728C135.851 64.0065 134.747 64.6412 133.644 65.2757Z"/>
</mask>
<path d="M125.615 51.5589L125.873 51.9876L125.615 51.5589ZM72.5318 76.7683L72.697 77.2403H72.697L72.5318 76.7683ZM134.011 46.6617L134.246 47.1031V47.1031L134.011 46.6617ZM137.546 45.1306L137.653 45.619L137.546 45.1306ZM142.693 45.1306L142.586 45.619L142.693 45.1306ZM146.227 46.6617L145.992 47.1031L146.227 46.6617ZM154.623 51.5589L154.881 51.1301L154.623 51.5589ZM207.707 76.7683L207.542 77.2403L207.707 76.7683ZM217.066 80.217L217.263 79.7572L217.066 80.217ZM220.652 82.2139L220.981 81.8373L220.652 82.2139ZM224.052 87.1969L224.523 87.0279V87.0279L224.052 87.1969ZM224.518 98.0608L224.018 98.0426L224.518 98.0608ZM208.324 169.091L208.772 169.311L208.324 169.091ZM149.298 233.884L149.574 234.301L149.298 233.884ZM142.907 237.246L142.791 236.759H142.791L142.907 237.246ZM137.332 237.246L137.448 236.759H137.448L137.332 237.246ZM130.941 233.884L131.218 233.468L130.941 233.884ZM71.915 169.091L71.4663 169.311L71.915 169.091ZM55.7207 98.0608L55.2211 98.079L55.7207 98.0608ZM56.1863 87.1969L55.7158 87.0279H55.7158L56.1863 87.1969ZM59.5864 82.2139L59.2575 81.8373H59.2575L59.5864 82.2139ZM63.1725 80.217L62.9761 79.7572H62.9761L63.1725 80.217ZM48.6569 84.4937L48.1863 84.3247H48.1863L48.6569 84.4937ZM47.726 98.3522L47.2264 98.3704L47.726 98.3522ZM54.3236 76.1886L53.9947 75.8121H53.9947L54.3236 76.1886ZM69.8877 69.2179L70.053 69.6898H70.053L69.8877 69.2179ZM121.5 44.6987L121.243 44.2699L121.5 44.6987ZM135.83 37.3168L135.937 37.8051L135.83 37.3168ZM144.409 37.3168L144.301 37.8051L144.409 37.3168ZM158.739 44.6987L158.996 44.2699L158.739 44.6987ZM210.351 69.2179L210.186 69.6898L210.351 69.2179ZM225.915 76.1886L226.244 75.8121L225.915 76.1886ZM231.582 84.4937L232.052 84.3247L231.582 84.4937ZM232.513 98.3522L232.013 98.334L232.513 98.3522ZM215.502 172.621L215.951 172.842L215.502 172.621ZM153.722 240.549L153.446 240.133L153.722 240.549ZM144.765 245.027L144.881 245.513H144.881L144.765 245.027ZM135.474 245.027L135.358 245.513L135.474 245.027ZM126.516 240.549L126.793 240.133L126.516 240.549ZM64.7362 172.621L64.2875 172.842L64.7362 172.621ZM105.126 80.6528L105.339 81.105L105.126 80.6528ZM133.644 65.2757L133.893 65.7091V65.7091L133.644 65.2757ZM75.8758 92.4928L75.7014 92.0242H75.7014L75.8758 92.4928ZM73.0016 93.8634L73.3366 94.2347H73.3366L73.0016 93.8634ZM71.901 95.5258L71.4284 95.3624H71.4284L71.901 95.5258ZM71.7588 98.6524L72.2583 98.63L71.7588 98.6524ZM86.2725 162.03L86.7212 161.809L86.2725 162.03ZM136.607 218.384L136.893 217.974L136.607 218.384ZM139.155 219.838L139.276 219.353L139.155 219.838ZM141.083 219.838L141.204 220.324H141.204L141.083 219.838ZM143.631 218.384L143.346 217.974L143.631 218.384ZM193.966 162.03L194.415 162.25L193.966 162.03ZM208.48 98.6525L207.98 98.63L208.48 98.6525ZM208.338 95.5258L208.81 95.3624V95.3624L208.338 95.5258ZM207.237 93.8635L206.902 94.2347V94.2347L207.237 93.8635ZM204.363 92.4927L204.188 92.9613H204.188L204.363 92.4927ZM175.112 80.6528L174.899 81.105L175.112 80.6528ZM146.595 65.2757L146.346 65.7092V65.7092L146.595 65.2757ZM143.282 63.3728L143.531 62.939L143.282 63.3728ZM140.946 62.2568L141.05 61.7676L140.946 62.2568ZM139.292 62.2568L139.189 61.7676L139.292 62.2568ZM136.957 63.3728L137.205 63.8065L136.957 63.3728ZM125.358 51.1301C108.654 61.1513 90.8702 69.8168 72.3665 76.2964L72.697 77.2403C91.2737 70.735 109.119 62.0385 125.873 51.9876L125.358 51.1301ZM133.776 46.2204C131.73 47.3104 129.137 48.8628 125.358 51.1301L125.873 51.9876C129.661 49.7148 132.228 48.1782 134.246 47.1031L133.776 46.2204ZM137.439 44.6423C136.837 44.7743 135.821 45.1315 133.776 46.2204L134.246 47.1031C136.264 46.0284 137.185 45.7217 137.653 45.619L137.439 44.6423ZM142.8 44.6423C141.762 44.4144 140.947 44.2944 140.119 44.2944C139.292 44.2944 138.476 44.4144 137.439 44.6423L137.653 45.619C138.657 45.3986 139.394 45.2944 140.119 45.2944C140.845 45.2944 141.582 45.3986 142.586 45.619L142.8 44.6423ZM146.462 46.2204C144.418 45.1315 143.402 44.7743 142.8 44.6423L142.586 45.619C143.054 45.7217 143.975 46.0284 145.992 47.1031L146.462 46.2204ZM154.881 51.1301C151.101 48.8628 148.509 47.3104 146.462 46.2204L145.992 47.1031C148.011 48.1782 150.578 49.7148 154.366 51.9876L154.881 51.1301ZM207.872 76.2964C189.368 69.8168 171.585 61.1513 154.881 51.1301L154.366 51.9876C171.12 62.0385 188.965 70.735 207.542 77.2403L207.872 76.2964ZM217.263 79.7572C215.074 78.8224 212.186 77.8071 207.872 76.2964L207.542 77.2403C211.868 78.7554 214.719 79.7582 216.87 80.6768L217.263 79.7572ZM220.981 81.8373C220.366 81.3 219.387 80.6643 217.263 79.7572L216.87 80.6768C218.948 81.5644 219.82 82.151 220.323 82.5904L220.981 81.8373ZM224.523 87.0279C223.836 85.1158 222.511 83.1738 220.981 81.8373L220.323 82.5904C221.725 83.8149 222.953 85.6139 223.582 87.3658L224.523 87.0279ZM225.018 98.079C225.282 90.8255 225.238 89.0195 224.523 87.0279L223.582 87.3658C224.217 89.1359 224.285 90.7193 224.018 98.0426L225.018 98.079ZM208.772 169.311C220.907 144.638 224.328 117.003 225.018 98.079L224.018 98.0426C223.331 116.903 219.921 144.377 207.875 168.87L208.772 169.311ZM149.574 234.301C165.77 223.549 192.728 201.935 208.772 169.311L207.875 168.87C191.942 201.267 165.149 222.761 149.021 233.468L149.574 234.301ZM143.023 237.732C145.036 237.251 145.871 236.759 149.574 234.301L149.021 233.468C145.308 235.933 144.61 236.325 142.791 236.759L143.023 237.732ZM140.119 237.956C141.567 237.956 142.634 237.825 143.023 237.732L142.791 236.759C142.51 236.826 141.531 236.956 140.119 236.956V237.956ZM137.216 237.732C137.605 237.825 138.672 237.956 140.119 237.956V236.956C138.708 236.956 137.728 236.826 137.448 236.759L137.216 237.732ZM130.665 234.301C134.368 236.759 135.202 237.251 137.216 237.732L137.448 236.759C135.629 236.325 134.931 235.933 131.218 233.468L130.665 234.301ZM71.4663 169.311C87.5108 201.935 114.468 223.549 130.665 234.301L131.218 233.468C115.09 222.761 88.2967 201.267 72.3637 168.87L71.4663 169.311ZM55.2211 98.079C55.9108 117.003 59.3319 144.638 71.4663 169.311L72.3637 168.87C60.3181 144.377 56.9078 116.903 56.2204 98.0426L55.2211 98.079ZM55.7158 87.0279C55.0007 89.0195 54.9567 90.8255 55.2211 98.079L56.2204 98.0426C55.9535 90.7193 56.0215 89.1359 56.6569 87.3658L55.7158 87.0279ZM59.2575 81.8373C57.7273 83.1738 56.4023 85.1158 55.7158 87.0279L56.6569 87.3658C57.2859 85.6139 58.5134 83.8149 59.9153 82.5904L59.2575 81.8373ZM62.9761 79.7572C60.8518 80.6643 59.8726 81.3 59.2575 81.8373L59.9153 82.5904C60.4185 82.151 61.2904 81.5644 63.3688 80.6768L62.9761 79.7572ZM72.3665 76.2964C68.0527 77.8071 65.1651 78.8224 62.9761 79.7572L63.3688 80.6768C65.5199 79.7582 68.3702 78.7554 72.697 77.2403L72.3665 76.2964ZM48.1863 84.3247C46.8434 88.0652 46.9789 91.5815 47.2264 98.3704L48.2257 98.334C47.9761 91.4863 47.8631 88.1843 49.1275 84.6626L48.1863 84.3247ZM53.9947 75.8121C51.4384 78.0449 49.3332 81.1303 48.1863 84.3247L49.1275 84.6626C50.2168 81.6285 52.2245 78.686 54.6525 76.5652L53.9947 75.8121ZM69.7225 68.746C65.5093 70.2214 62.3262 71.3358 59.8343 72.3999C57.3381 73.4659 55.5034 74.4943 53.9947 75.8121L54.6525 76.5652C56.0495 75.345 57.7773 74.3657 60.227 73.3196C62.6811 72.2716 65.8272 71.1696 70.053 69.6898L69.7225 68.746ZM121.243 44.2699C104.934 54.0534 87.6422 62.4708 69.7225 68.746L70.053 69.6898C88.0457 63.3891 105.399 54.9407 121.757 45.1274L121.243 44.2699ZM135.723 36.8284C134.059 37.1937 132.285 37.9508 130.016 39.1594C127.747 40.3679 124.95 42.0458 121.243 44.2699L121.757 45.1274C125.473 42.8979 128.244 41.2357 130.486 40.042C132.727 38.8484 134.406 38.1413 135.937 37.8051L135.723 36.8284ZM144.516 36.8284C141.273 36.1164 138.965 36.1164 135.723 36.8284L135.937 37.8051C139.039 37.1242 141.2 37.1242 144.301 37.8051L144.516 36.8284ZM158.996 44.2699C155.289 42.0458 152.492 40.3679 150.223 39.1594C147.954 37.9508 146.18 37.1937 144.516 36.8284L144.301 37.8051C145.832 38.1413 147.512 38.8484 149.753 40.042C151.994 41.2357 154.765 42.8979 158.482 45.1274L158.996 44.2699ZM210.516 68.746C192.596 62.4708 175.304 54.0534 158.996 44.2699L158.482 45.1274C174.839 54.9407 192.193 63.3891 210.186 69.6898L210.516 68.746ZM226.244 75.8121C224.735 74.4943 222.901 73.4659 220.404 72.3999C217.912 71.3358 214.729 70.2214 210.516 68.746L210.186 69.6898C214.411 71.1696 217.558 72.2716 220.012 73.3196C222.461 74.3657 224.189 75.345 225.586 76.5652L226.244 75.8121ZM232.052 84.3247C230.906 81.1303 228.8 78.0449 226.244 75.8121L225.586 76.5652C228.014 78.686 230.022 81.6284 231.111 84.6626L232.052 84.3247ZM233.012 98.3704C233.26 91.5815 233.395 88.0652 232.052 84.3247L231.111 84.6626C232.376 88.1843 232.263 91.4863 232.013 98.334L233.012 98.3704ZM215.951 172.842C228.796 146.723 232.304 117.806 233.012 98.3704L232.013 98.334C231.307 117.706 227.81 146.463 215.054 172.4L215.951 172.842ZM153.999 240.966C170.739 229.853 199.015 207.279 215.951 172.842L215.054 172.4C198.229 206.611 170.118 229.065 153.446 240.133L153.999 240.966ZM144.881 245.513C148.433 244.665 150.334 243.399 153.999 240.966L153.446 240.133C149.775 242.569 148.008 243.738 144.649 244.54L144.881 245.513ZM135.358 245.513C136.61 245.812 138.377 245.956 140.119 245.956C141.862 245.956 143.629 245.812 144.881 245.513L144.649 244.54C143.505 244.814 141.825 244.956 140.119 244.956C138.414 244.956 136.734 244.814 135.59 244.54L135.358 245.513ZM126.24 240.966C129.905 243.399 131.806 244.665 135.358 245.513L135.59 244.54C132.23 243.738 130.463 242.569 126.793 240.133L126.24 240.966ZM64.2875 172.842C81.2236 207.279 109.499 229.853 126.24 240.966L126.793 240.133C110.12 229.065 82.0095 206.611 65.1849 172.4L64.2875 172.842ZM47.2264 98.3704C47.9347 117.806 51.4425 146.723 64.2875 172.842L65.1849 172.4C52.4287 146.463 48.9317 117.706 48.2257 98.334L47.2264 98.3704ZM105.339 81.105C115.173 76.4709 124.528 71.0925 133.893 65.7091L133.395 64.8422C124.024 70.2289 114.704 75.5865 104.913 80.2005L105.339 81.105ZM76.0502 92.9614C85.9157 89.2897 95.7585 85.62 105.339 81.105L104.913 80.2005C95.3763 84.6946 85.5728 88.3503 75.7014 92.0242L76.0502 92.9614ZM73.3366 94.2347C73.8164 93.8017 74.4734 93.5482 76.0502 92.9614L75.7014 92.0242C74.203 92.5818 73.3224 92.9006 72.6667 93.4922L73.3366 94.2347ZM72.3735 95.6892C72.5631 95.1409 72.9058 94.6233 73.3366 94.2347L72.6667 93.4922C72.1106 93.994 71.6732 94.6545 71.4284 95.3624L72.3735 95.6892ZM72.2583 98.63C72.1846 96.987 72.1622 96.3003 72.3735 95.6892L71.4284 95.3624C71.1399 96.1967 71.1893 97.1126 71.2593 98.6748L72.2583 98.63ZM86.7212 161.809C77.1156 142.277 73.2313 120.322 72.2583 98.63L71.2593 98.6748C72.2359 120.447 76.1362 142.552 85.8239 162.25L86.7212 161.809ZM136.893 217.974C116.141 203.519 97.9161 184.572 86.7212 161.809L85.8239 162.25C97.11 185.199 115.465 204.266 136.321 218.795L136.893 217.974ZM139.276 219.353C138.669 219.202 138.144 218.846 136.893 217.974L136.321 218.795C137.512 219.625 138.208 220.118 139.035 220.324L139.276 219.353ZM140.963 219.353C140.432 219.485 139.806 219.485 139.276 219.353L139.035 220.324C139.723 220.495 140.515 220.495 141.204 220.324L140.963 219.353ZM143.346 217.974C142.095 218.846 141.569 219.202 140.963 219.353L141.204 220.324C142.03 220.118 142.726 219.624 143.917 218.795L143.346 217.974ZM193.517 161.809C182.322 184.572 164.098 203.518 143.346 217.974L143.917 218.795C164.774 204.266 183.128 185.199 194.415 162.25L193.517 161.809ZM207.98 98.63C207.007 120.322 203.123 142.277 193.517 161.809L194.415 162.25C204.102 142.552 208.003 120.447 208.979 98.6749L207.98 98.63ZM207.865 95.6892C208.076 96.3003 208.054 96.9871 207.98 98.63L208.979 98.6749C209.049 97.1126 209.099 96.1967 208.81 95.3624L207.865 95.6892ZM206.902 94.2347C207.333 94.6234 207.675 95.1409 207.865 95.6892L208.81 95.3624C208.565 94.6545 208.128 93.994 207.572 93.4923L206.902 94.2347ZM204.188 92.9613C205.765 93.5482 206.422 93.8018 206.902 94.2347L207.572 93.4923C206.916 92.9006 206.036 92.5819 204.537 92.0241L204.188 92.9613ZM174.899 81.105C184.455 85.6084 194.327 89.2909 204.188 92.9613L204.537 92.0241C194.67 88.3515 184.837 84.683 175.325 80.2005L174.899 81.105ZM146.346 65.7092C155.71 71.0926 165.066 76.4709 174.899 81.105L175.325 80.2005C165.535 75.5866 156.214 70.2289 146.844 64.8423L146.346 65.7092ZM143.033 63.8065C144.138 64.4401 145.242 65.0747 146.346 65.7092L146.844 64.8423C145.74 64.2078 144.636 63.573 143.531 62.939L143.033 63.8065ZM140.843 62.7459C141.364 62.8561 141.858 63.133 143.033 63.8065L143.531 62.939C142.413 62.2982 141.761 61.9179 141.05 61.7676L140.843 62.7459ZM139.396 62.7459C139.869 62.6458 140.369 62.6458 140.843 62.7459L141.05 61.7676C140.439 61.6386 139.799 61.6386 139.189 61.7676L139.396 62.7459ZM137.205 63.8065C138.38 63.133 138.875 62.8561 139.396 62.7459L139.189 61.7676C138.478 61.9179 137.826 62.2982 136.708 62.939L137.205 63.8065ZM133.893 65.7091C134.997 65.0747 136.1 64.4401 137.205 63.8065L136.708 62.939C135.602 63.5729 134.498 64.2078 133.395 64.8422L133.893 65.7091Z" fill="url(#paint6_linear_45_5021)" mask="url(#path-11-inside-1_45_5021)"/>
</g>
</g>
</g>
<g filter="url(#filter2_d_45_5021)">
<path fill-rule="evenodd" clip-rule="evenodd" d="M123.474 87.0526C123.405 87.0526 123.331 87.0522 123.253 87.0518C122.508 87.0477 121.372 87.0414 120.326 87.3693C118.467 87.9526 116.935 89.3191 116.123 91.0664L106.583 91.0664C105.88 91.0662 105.11 91.066 104.438 91.1276C103.656 91.1993 102.695 91.3743 101.711 91.911C100.385 92.6348 99.2668 93.8645 98.6715 95.2531C97.9551 96.9244 98.1377 98.6865 98.2522 99.791C98.2633 99.8986 98.2739 99.9999 98.2828 100.094C100.019 118.385 111.311 133.238 128.648 137.77C130.295 139.599 132.057 141.165 133.909 142.484C134.824 143.136 135.807 143.593 136.803 143.891C136.78 144.128 136.753 144.37 136.724 144.615C136.433 147.044 135.897 149.34 135.097 150.896C133.461 151.003 131.777 151.21 130.184 151.612C126.811 152.463 123.362 154.313 121.64 158.316L121.606 158.395C121.447 158.761 121.203 159.327 121.066 159.937C120.891 160.722 120.903 161.467 121.05 162.241C121.211 163.093 121.624 163.857 121.96 164.367C122.295 164.877 122.834 165.559 123.553 166.043C125.077 167.071 126.724 167.061 127.936 167.054H127.938C128.035 167.053 128.13 167.053 128.221 167.053H151.778C151.87 167.053 151.965 167.053 152.063 167.054C153.276 167.061 154.923 167.071 156.447 166.043C157.166 165.559 157.704 164.877 158.04 164.367C158.376 163.857 158.789 163.093 158.95 162.241C159.096 161.467 159.109 160.722 158.933 159.937C158.797 159.327 158.552 158.761 158.394 158.395L158.36 158.316C156.637 154.313 153.189 152.463 149.816 151.612C148.222 151.21 146.539 151.003 144.902 150.896C144.103 149.34 143.567 147.044 143.276 144.615C143.246 144.37 143.22 144.128 143.196 143.891C144.193 143.593 145.176 143.136 146.091 142.484C147.953 141.158 149.724 139.581 151.38 137.739C168.692 133.182 179.983 118.407 181.718 100.094C181.727 99.9991 181.737 99.8978 181.748 99.7902C181.862 98.6854 182.045 96.9231 181.328 95.2522C180.733 93.8638 179.614 92.6345 178.288 91.9108C177.305 91.3742 176.344 91.1992 175.562 91.1276C174.89 91.066 174.12 91.0662 173.416 91.0664L163.877 91.0664C163.065 89.3191 161.533 87.9526 159.674 87.3693C158.628 87.0414 157.492 87.0477 156.746 87.0518C156.668 87.0522 156.595 87.0526 156.526 87.0526H123.474ZM106.701 99.0664H115.685C116.323 109.995 118.29 118.845 121.268 125.875C112.822 120.341 107.341 110.865 106.247 99.3382L106.221 99.0669C106.366 99.0665 106.524 99.0664 106.701 99.0664ZM158.746 125.841C161.716 118.817 163.678 109.978 164.315 99.0664H173.299C173.476 99.0664 173.634 99.0665 173.779 99.0669L173.753 99.3392C172.661 110.868 167.188 120.312 158.746 125.841Z" fill="white"/>
<path d="M156.745 86.8018C157.486 86.7977 158.66 86.7897 159.748 87.1309C161.624 87.7193 163.175 89.0763 164.032 90.8164H173.416C174.117 90.8162 174.899 90.8161 175.584 90.8789C176.385 90.9523 177.384 91.1324 178.408 91.6914C179.783 92.4419 180.94 93.7136 181.558 95.1533C182.303 96.8911 182.111 98.7155 181.997 99.8154C181.986 99.9233 181.976 100.024 181.967 100.117C180.226 118.496 168.9 133.353 151.514 137.962C149.861 139.793 148.094 141.364 146.236 142.688C145.358 143.313 144.419 143.761 143.467 144.066C143.485 144.237 143.503 144.411 143.524 144.586C143.806 146.938 144.319 149.142 145.063 150.656C146.664 150.766 148.311 150.975 149.877 151.37C153.292 152.231 156.824 154.116 158.589 158.217L158.623 158.296C158.781 158.661 159.035 159.246 159.178 159.883C159.362 160.705 159.347 161.485 159.195 162.288C159.026 163.186 158.593 163.982 158.249 164.505C157.905 165.028 157.345 165.74 156.587 166.251C154.992 167.326 153.27 167.311 152.062 167.304C151.964 167.303 151.869 167.303 151.778 167.303H128.222C128.131 167.303 128.037 167.303 127.939 167.304H127.938C126.729 167.311 125.008 167.326 123.413 166.251C122.655 165.74 122.095 165.028 121.751 164.505C121.407 163.982 120.973 163.186 120.804 162.288C120.652 161.485 120.638 160.705 120.822 159.883C120.965 159.246 121.218 158.661 121.376 158.296L121.41 158.217L121.581 157.839C123.396 153.999 126.815 152.205 130.123 151.37C131.689 150.975 133.335 150.766 134.936 150.656C135.681 149.142 136.194 146.939 136.476 144.586C136.497 144.411 136.514 144.237 136.532 144.066C135.58 143.761 134.642 143.313 133.764 142.688C131.916 141.372 130.158 139.811 128.513 137.993C111.102 133.409 99.777 118.474 98.0342 100.118C98.0253 100.025 98.0151 99.9242 98.0039 99.8164C97.8899 98.7167 97.6963 96.8925 98.4414 95.1543C99.0588 93.7143 100.217 92.4421 101.592 91.6914C102.616 91.1325 103.614 90.9523 104.415 90.8789C105.1 90.8161 105.883 90.8162 106.583 90.8164H115.968C116.825 89.0764 118.375 87.7194 120.251 87.1309C121.339 86.7896 122.514 86.7977 123.255 86.8018C123.333 86.8022 123.406 86.8027 123.474 86.8027H156.526C156.594 86.8027 156.667 86.8022 156.745 86.8018ZM106.496 99.3164C107.554 110.459 112.734 119.656 120.718 125.2C117.926 118.318 116.08 109.764 115.45 99.3164H106.496ZM164.55 99.3164C163.921 109.748 162.078 118.292 159.294 125.168C167.275 119.63 172.448 110.462 173.504 99.3164H164.55Z" stroke="url(#paint7_linear_45_5021)" stroke-width="0.5" stroke-linecap="round" style="mix-blend-mode:color-burn"/>
</g>
</g>
<g filter="url(#filter3_dd_45_5021)">
<mask id="path-15-inside-2_45_5021" fill="white">
<path fill-rule="evenodd" clip-rule="evenodd" d="M36.0426 185.276C35.8205 186.482 36.476 187.978 37.7871 190.969L43.9369 205L37.7871 219.031C36.476 222.022 35.8205 223.518 36.0426 224.724C36.2368 225.779 36.8461 226.711 37.7339 227.312C38.7497 228 40.3828 228 43.6488 228H60.3715C64.8519 228 67.0921 228 68.8034 227.128C70.3087 226.361 71.5325 225.137 72.2995 223.632C73.1715 221.921 73.1715 219.68 73.1715 215.2V194.8C73.1715 190.32 73.1715 188.079 72.2995 186.368C71.5325 184.863 70.3087 183.639 68.8034 182.872C67.0921 182 64.8519 182 60.3715 182H43.6488C40.3828 182 38.7497 182 37.7339 182.688C36.8461 183.289 36.2368 184.221 36.0426 185.276ZM243.669 185.276C243.891 186.482 243.236 187.978 241.925 190.969L235.775 205L241.925 219.031C243.236 222.022 243.891 223.518 243.669 224.724C243.475 225.779 242.866 226.711 241.978 227.312C240.962 228 239.329 228 236.063 228H219.34C214.86 228 212.62 228 210.909 227.128C209.403 226.361 208.179 225.137 207.412 223.632C206.54 221.921 206.54 219.68 206.54 215.2V194.8C206.54 190.32 206.54 188.079 207.412 186.368C208.179 184.863 209.403 183.639 210.909 182.872C212.62 182 214.86 182 219.34 182H236.063C239.329 182 240.962 182 241.978 182.688C242.866 183.289 243.475 184.221 243.669 185.276Z"/>
</mask>
<path fill-rule="evenodd" clip-rule="evenodd" d="M36.0426 185.276C35.8205 186.482 36.476 187.978 37.7871 190.969L43.9369 205L37.7871 219.031C36.476 222.022 35.8205 223.518 36.0426 224.724C36.2368 225.779 36.8461 226.711 37.7339 227.312C38.7497 228 40.3828 228 43.6488 228H60.3715C64.8519 228 67.0921 228 68.8034 227.128C70.3087 226.361 71.5325 225.137 72.2995 223.632C73.1715 221.921 73.1715 219.68 73.1715 215.2V194.8C73.1715 190.32 73.1715 188.079 72.2995 186.368C71.5325 184.863 70.3087 183.639 68.8034 182.872C67.0921 182 64.8519 182 60.3715 182H43.6488C40.3828 182 38.7497 182 37.7339 182.688C36.8461 183.289 36.2368 184.221 36.0426 185.276ZM243.669 185.276C243.891 186.482 243.236 187.978 241.925 190.969L235.775 205L241.925 219.031C243.236 222.022 243.891 223.518 243.669 224.724C243.475 225.779 242.866 226.711 241.978 227.312C240.962 228 239.329 228 236.063 228H219.34C214.86 228 212.62 228 210.909 227.128C209.403 226.361 208.179 225.137 207.412 223.632C206.54 221.921 206.54 219.68 206.54 215.2V194.8C206.54 190.32 206.54 188.079 207.412 186.368C208.179 184.863 209.403 183.639 210.909 182.872C212.62 182 214.86 182 219.34 182H236.063C239.329 182 240.962 182 241.978 182.688C242.866 183.289 243.475 184.221 243.669 185.276Z" fill="#FFA00F"/>
<path d="M37.7871 190.969L37.3292 191.17L37.7871 190.969ZM36.0426 185.276L35.5509 185.185L36.0426 185.276ZM43.9369 205L44.3948 205.201L44.4828 205L44.3948 204.799L43.9369 205ZM37.7871 219.031L38.2451 219.232L37.7871 219.031ZM36.0426 224.724L36.5344 224.634L36.0426 224.724ZM37.7339 227.312L37.4536 227.726H37.4536L37.7339 227.312ZM68.8034 227.128L69.0304 227.574L68.8034 227.128ZM72.2995 223.632L71.854 223.405V223.405L72.2995 223.632ZM72.2995 186.368L71.854 186.595L72.2995 186.368ZM68.8034 182.872L69.0304 182.426V182.426L68.8034 182.872ZM37.7339 182.688L38.0142 183.102L37.7339 182.688ZM241.925 190.969L241.467 190.768V190.768L241.925 190.969ZM243.669 185.276L243.178 185.366V185.366L243.669 185.276ZM235.775 205L235.317 204.799L235.229 205L235.317 205.201L235.775 205ZM241.925 219.031L241.467 219.232L241.925 219.031ZM243.669 224.724L243.178 224.634V224.634L243.669 224.724ZM241.978 227.312L242.258 227.726L241.978 227.312ZM210.909 227.128L211.135 226.683L210.909 227.128ZM207.412 223.632L207.858 223.405V223.405L207.412 223.632ZM207.412 186.368L207.858 186.595V186.595L207.412 186.368ZM210.909 182.872L211.135 183.317V183.317L210.909 182.872ZM241.978 182.688L242.258 182.274V182.274L241.978 182.688ZM38.2451 190.768C37.5857 189.264 37.1053 188.167 36.8142 187.295C36.5233 186.423 36.4462 185.845 36.5344 185.366L35.5509 185.185C35.4169 185.913 35.5565 186.686 35.8657 187.611C36.1746 188.537 36.6775 189.683 37.3292 191.17L38.2451 190.768ZM44.3948 204.799L38.2451 190.768L37.3292 191.17L43.4789 205.201L44.3948 204.799ZM38.2451 219.232L44.3948 205.201L43.4789 204.799L37.3292 218.83L38.2451 219.232ZM36.5344 224.634C36.4462 224.155 36.5233 223.577 36.8142 222.705C37.1053 221.833 37.5857 220.736 38.2451 219.232L37.3292 218.83C36.6775 220.317 36.1746 221.463 35.8657 222.389C35.5565 223.314 35.4169 224.087 35.5509 224.815L36.5344 224.634ZM38.0142 226.898C37.2374 226.372 36.7042 225.556 36.5344 224.634L35.5509 224.815C35.7693 226.001 36.4548 227.05 37.4536 227.726L38.0142 226.898ZM43.6488 227.5C42.0062 227.5 40.8084 227.5 39.8929 227.416C38.9781 227.333 38.4173 227.171 38.0142 226.898L37.4536 227.726C38.0664 228.141 38.83 228.323 39.8022 228.412C40.7737 228.5 42.0254 228.5 43.6488 228.5V227.5ZM60.3715 227.5H43.6488V228.5H60.3715V227.5ZM68.5764 226.683C67.803 227.077 66.8882 227.286 65.5851 227.393C64.2762 227.5 62.6199 227.5 60.3715 227.5V228.5C62.6034 228.5 64.3075 228.5 65.6666 228.389C67.0315 228.278 68.0925 228.051 69.0304 227.574L68.5764 226.683ZM71.854 223.405C71.135 224.816 69.9876 225.963 68.5764 226.683L69.0304 227.574C70.6298 226.759 71.9301 225.458 72.745 223.859L71.854 223.405ZM72.6715 215.2C72.6715 217.448 72.6711 219.105 72.5641 220.414C72.4577 221.717 72.2481 222.632 71.854 223.405L72.745 223.859C73.2229 222.921 73.4493 221.86 73.5608 220.495C73.6719 219.136 73.6715 217.432 73.6715 215.2H72.6715ZM72.6715 194.8V215.2H73.6715V194.8H72.6715ZM71.854 186.595C72.2481 187.368 72.4577 188.283 72.5641 189.586C72.6711 190.895 72.6715 192.552 72.6715 194.8H73.6715C73.6715 192.568 73.6719 190.864 73.5608 189.505C73.4493 188.14 73.2229 187.079 72.745 186.141L71.854 186.595ZM68.5764 183.317C69.9876 184.037 71.135 185.184 71.854 186.595L72.745 186.141C71.9301 184.542 70.6298 183.241 69.0304 182.426L68.5764 183.317ZM60.3715 182.5C62.6199 182.5 64.2762 182.5 65.5852 182.607C66.8882 182.714 67.803 182.923 68.5764 183.317L69.0304 182.426C68.0925 181.949 67.0315 181.722 65.6666 181.611C64.3075 181.5 62.6034 181.5 60.3715 181.5V182.5ZM43.6488 182.5H60.3715V181.5H43.6488V182.5ZM38.0142 183.102C38.4173 182.829 38.9781 182.667 39.8929 182.584C40.8084 182.5 42.0062 182.5 43.6488 182.5V181.5C42.0255 181.5 40.7737 181.5 39.8022 181.588C38.83 181.677 38.0664 181.859 37.4536 182.274L38.0142 183.102ZM36.5344 185.366C36.7042 184.444 37.2374 183.628 38.0142 183.102L37.4536 182.274C36.4548 182.95 35.7693 183.999 35.5509 185.185L36.5344 185.366ZM242.383 191.17C243.034 189.683 243.537 188.537 243.846 187.611C244.155 186.686 244.295 185.913 244.161 185.185L243.178 185.366C243.266 185.845 243.189 186.423 242.898 187.295C242.607 188.167 242.126 189.264 241.467 190.768L242.383 191.17ZM236.233 205.201L242.383 191.17L241.467 190.768L235.317 204.799L236.233 205.201ZM242.383 218.83L236.233 204.799L235.317 205.201L241.467 219.232L242.383 218.83ZM244.161 224.815C244.295 224.087 244.155 223.314 243.846 222.389C243.537 221.463 243.034 220.317 242.383 218.83L241.467 219.232C242.126 220.736 242.607 221.833 242.898 222.705C243.189 223.577 243.266 224.155 243.178 224.634L244.161 224.815ZM242.258 227.726C243.257 227.05 243.943 226.001 244.161 224.815L243.178 224.634C243.008 225.556 242.475 226.372 241.698 226.898L242.258 227.726ZM236.063 228.5C237.686 228.5 238.938 228.5 239.91 228.412C240.882 228.323 241.645 228.141 242.258 227.726L241.698 226.898C241.295 227.171 240.734 227.333 239.819 227.416C238.904 227.5 237.706 227.5 236.063 227.5V228.5ZM219.34 228.5H236.063V227.5H219.34V228.5ZM210.682 227.574C211.619 228.051 212.68 228.278 214.045 228.389C215.404 228.5 217.108 228.5 219.34 228.5V227.5C217.092 227.5 215.436 227.5 214.127 227.393C212.824 227.286 211.909 227.077 211.135 226.683L210.682 227.574ZM206.967 223.859C207.782 225.458 209.082 226.759 210.682 227.574L211.135 226.683C209.724 225.963 208.577 224.816 207.858 223.405L206.967 223.859ZM206.04 215.2C206.04 217.432 206.04 219.136 206.151 220.495C206.263 221.86 206.489 222.921 206.967 223.859L207.858 223.405C207.464 222.632 207.254 221.717 207.148 220.414C207.041 219.105 207.04 217.448 207.04 215.2H206.04ZM206.04 194.8V215.2H207.04V194.8H206.04ZM206.967 186.141C206.489 187.079 206.263 188.14 206.151 189.505C206.04 190.864 206.04 192.568 206.04 194.8H207.04C207.04 192.552 207.041 190.895 207.148 189.586C207.254 188.283 207.464 187.368 207.858 186.595L206.967 186.141ZM210.682 182.426C209.082 183.241 207.782 184.542 206.967 186.141L207.858 186.595C208.577 185.184 209.724 184.037 211.135 183.317L210.682 182.426ZM219.34 181.5C217.108 181.5 215.404 181.5 214.045 181.611C212.68 181.722 211.619 181.949 210.682 182.426L211.135 183.317C211.909 182.923 212.824 182.714 214.127 182.607C215.436 182.5 217.092 182.5 219.34 182.5V181.5ZM236.063 181.5H219.34V182.5H236.063V181.5ZM242.258 182.274C241.645 181.859 240.882 181.677 239.91 181.588C238.938 181.5 237.686 181.5 236.063 181.5V182.5C237.706 182.5 238.904 182.5 239.819 182.584C240.734 182.667 241.295 182.829 241.698 183.102L242.258 182.274ZM244.161 185.185C243.943 183.999 243.257 182.95 242.258 182.274L241.698 183.102C242.475 183.628 243.008 184.444 243.178 185.366L244.161 185.185Z" fill="url(#paint8_linear_45_5021)" style="mix-blend-mode:darken" mask="url(#path-15-inside-2_45_5021)"/>
</g>
<path fill-rule="evenodd" clip-rule="evenodd" d="M36.0426 185.276C35.8205 186.482 36.476 187.978 37.7871 190.969L43.9369 205L37.7871 219.031C36.476 222.022 35.8205 223.518 36.0426 224.724C36.2368 225.779 36.8461 226.711 37.7339 227.312C38.7497 228 40.3828 228 43.6488 228H60.3715C64.8519 228 67.0921 228 68.8034 227.128C70.3087 226.361 71.5325 225.137 72.2995 223.632C73.1715 221.921 73.1715 219.68 73.1715 215.2V194.8C73.1715 190.32 73.1715 188.079 72.2995 186.368C71.5325 184.863 70.3087 183.639 68.8034 182.872C67.0921 182 64.8519 182 60.3715 182H43.6488C40.3828 182 38.7497 182 37.7339 182.688C36.8461 183.289 36.2368 184.221 36.0426 185.276ZM243.669 185.276C243.891 186.482 243.236 187.978 241.925 190.969L235.775 205L241.925 219.031C243.236 222.022 243.891 223.518 243.669 224.724C243.475 225.779 242.866 226.711 241.978 227.312C240.962 228 239.329 228 236.063 228H219.34C214.86 228 212.62 228 210.909 227.128C209.403 226.361 208.179 225.137 207.412 223.632C206.54 221.921 206.54 219.68 206.54 215.2V194.8C206.54 190.32 206.54 188.079 207.412 186.368C208.179 184.863 209.403 183.639 210.909 182.872C212.62 182 214.86 182 219.34 182H236.063C239.329 182 240.962 182 241.978 182.688C242.866 183.289 243.475 184.221 243.669 185.276Z" fill="url(#paint9_linear_45_5021)" fill-opacity="0.3" style="mix-blend-mode:overlay"/>
<path fill-rule="evenodd" clip-rule="evenodd" d="M36.0426 185.276C35.8205 186.482 36.476 187.978 37.7871 190.969L43.9369 205L37.7871 219.031C36.476 222.022 35.8205 223.518 36.0426 224.724C36.2368 225.779 36.8461 226.711 37.7339 227.312C38.7497 228 40.3828 228 43.6488 228H60.3715C64.8519 228 67.0921 228 68.8034 227.128C70.3087 226.361 71.5325 225.137 72.2995 223.632C73.1715 221.921 73.1715 219.68 73.1715 215.2V194.8C73.1715 190.32 73.1715 188.079 72.2995 186.368C71.5325 184.863 70.3087 183.639 68.8034 182.872C67.0921 182 64.8519 182 60.3715 182H43.6488C40.3828 182 38.7497 182 37.7339 182.688C36.8461 183.289 36.2368 184.221 36.0426 185.276ZM243.669 185.276C243.891 186.482 243.236 187.978 241.925 190.969L235.775 205L241.925 219.031C243.236 222.022 243.891 223.518 243.669 224.724C243.475 225.779 242.866 226.711 241.978 227.312C240.962 228 239.329 228 236.063 228H219.34C214.86 228 212.62 228 210.909 227.128C209.403 226.361 208.179 225.137 207.412 223.632C206.54 221.921 206.54 219.68 206.54 215.2V194.8C206.54 190.32 206.54 188.079 207.412 186.368C208.179 184.863 209.403 183.639 210.909 182.872C212.62 182 214.86 182 219.34 182H236.063C239.329 182 240.962 182 241.978 182.688C242.866 183.289 243.475 184.221 243.669 185.276Z" fill="url(#paint10_radial_45_5021)" fill-opacity="0.6" style="mix-blend-mode:overlay"/>
<path fill-rule="evenodd" clip-rule="evenodd" d="M36.0426 185.276C35.8205 186.482 36.476 187.978 37.7871 190.969L43.9369 205L37.7871 219.031C36.476 222.022 35.8205 223.518 36.0426 224.724C36.2368 225.779 36.8461 226.711 37.7339 227.312C38.7497 228 40.3828 228 43.6488 228H60.3715C64.8519 228 67.0921 228 68.8034 227.128C70.3087 226.361 71.5325 225.137 72.2995 223.632C73.1715 221.921 73.1715 219.68 73.1715 215.2V194.8C73.1715 190.32 73.1715 188.079 72.2995 186.368C71.5325 184.863 70.3087 183.639 68.8034 182.872C67.0921 182 64.8519 182 60.3715 182H43.6488C40.3828 182 38.7497 182 37.7339 182.688C36.8461 183.289 36.2368 184.221 36.0426 185.276ZM243.669 185.276C243.891 186.482 243.236 187.978 241.925 190.969L235.775 205L241.925 219.031C243.236 222.022 243.891 223.518 243.669 224.724C243.475 225.779 242.866 226.711 241.978 227.312C240.962 228 239.329 228 236.063 228H219.34C214.86 228 212.62 228 210.909 227.128C209.403 226.361 208.179 225.137 207.412 223.632C206.54 221.921 206.54 219.68 206.54 215.2V194.8C206.54 190.32 206.54 188.079 207.412 186.368C208.179 184.863 209.403 183.639 210.909 182.872C212.62 182 214.86 182 219.34 182H236.063C239.329 182 240.962 182 241.978 182.688C242.866 183.289 243.475 184.221 243.669 185.276Z" fill="black" fill-opacity="0.24" style="mix-blend-mode:overlay"/>
<path fill-rule="evenodd" clip-rule="evenodd" d="M36.0426 185.276C35.8205 186.482 36.476 187.978 37.7871 190.969L43.9369 205L37.7871 219.031C36.476 222.022 35.8205 223.518 36.0426 224.724C36.2368 225.779 36.8461 226.711 37.7339 227.312C38.7497 228 40.3828 228 43.6488 228H60.3715C64.8519 228 67.0921 228 68.8034 227.128C70.3087 226.361 71.5325 225.137 72.2995 223.632C73.1715 221.921 73.1715 219.68 73.1715 215.2V194.8C73.1715 190.32 73.1715 188.079 72.2995 186.368C71.5325 184.863 70.3087 183.639 68.8034 182.872C67.0921 182 64.8519 182 60.3715 182H43.6488C40.3828 182 38.7497 182 37.7339 182.688C36.8461 183.289 36.2368 184.221 36.0426 185.276ZM243.669 185.276C243.891 186.482 243.236 187.978 241.925 190.969L235.775 205L241.925 219.031C243.236 222.022 243.891 223.518 243.669 224.724C243.475 225.779 242.866 226.711 241.978 227.312C240.962 228 239.329 228 236.063 228H219.34C214.86 228 212.62 228 210.909 227.128C209.403 226.361 208.179 225.137 207.412 223.632C206.54 221.921 206.54 219.68 206.54 215.2V194.8C206.54 190.32 206.54 188.079 207.412 186.368C208.179 184.863 209.403 183.639 210.909 182.872C212.62 182 214.86 182 219.34 182H236.063C239.329 182 240.962 182 241.978 182.688C242.866 183.289 243.475 184.221 243.669 185.276Z" fill="black" fill-opacity="0.12" style="mix-blend-mode:darken"/>
<g filter="url(#filter4_dd_45_5021)">
<rect x="51.856" y="170" width="176" height="46" rx="8" fill="#FFA00F"/>
<rect x="52.106" y="170.25" width="175.5" height="45.5" rx="7.75" stroke="url(#paint11_linear_45_5021)" stroke-width="0.5" stroke-linecap="round" style="mix-blend-mode:darken"/>
</g>
<rect x="51.856" y="170" width="176" height="46" rx="8" fill="url(#paint12_linear_45_5021)" fill-opacity="0.3" style="mix-blend-mode:overlay"/>
<rect x="51.856" y="170" width="176" height="46" rx="8" fill="url(#paint13_radial_45_5021)" fill-opacity="0.6" style="mix-blend-mode:overlay"/>
<g filter="url(#filter5_i_45_5021)">
<circle cx="62.856" cy="193" r="3" fill="black" fill-opacity="0.24" style="mix-blend-mode:color-burn"/>
<circle cx="62.856" cy="193" r="3" fill="black" fill-opacity="0.32" style="mix-blend-mode:darken"/>
</g>
<g filter="url(#filter6_i_45_5021)">
<circle cx="216.856" cy="193" r="3" fill="black" fill-opacity="0.24" style="mix-blend-mode:color-burn"/>
<circle cx="216.856" cy="193" r="3" fill="black" fill-opacity="0.32" style="mix-blend-mode:darken"/>
</g>
<g filter="url(#filter7_i_45_5021)">
<path d="M93.9638 187.424C93.9638 187.792 93.8678 188.112 93.6758 188.384C93.4838 188.656 93.2678 188.872 93.0278 189.032C92.6278 188.76 92.1718 188.52 91.6598 188.312C91.1638 188.104 90.5718 188 89.8838 188C89.0358 188 88.2998 188.184 87.6758 188.552C87.0518 188.92 86.5718 189.456 86.2358 190.16C85.9158 190.864 85.7558 191.72 85.7558 192.728C85.7558 194.264 86.1398 195.432 86.9078 196.232C87.6758 197.032 88.7318 197.432 90.0758 197.432C90.7638 197.432 91.3558 197.336 91.8518 197.144C92.3478 196.952 92.8038 196.736 93.2198 196.496C93.4598 196.672 93.6518 196.904 93.7958 197.192C93.9558 197.464 94.0358 197.784 94.0358 198.152C94.0358 198.472 93.9478 198.768 93.7718 199.04C93.6118 199.312 93.3318 199.544 92.9318 199.736C92.6278 199.896 92.1958 200.048 91.6358 200.192C91.0758 200.336 90.3958 200.408 89.5958 200.408C88.1878 200.408 86.8998 200.136 85.7318 199.592C84.5798 199.032 83.6678 198.192 82.9958 197.072C82.3238 195.936 81.9878 194.488 81.9878 192.728C81.9878 191.064 82.3158 189.664 82.9718 188.528C83.6438 187.376 84.5398 186.504 85.6598 185.912C86.7798 185.32 88.0198 185.024 89.3798 185.024C90.3238 185.024 91.1398 185.136 91.8278 185.36C92.5158 185.568 93.0438 185.856 93.4118 186.224C93.7798 186.576 93.9638 186.976 93.9638 187.424ZM96.5365 189.848H100.185V199.976C100.041 200.024 99.8085 200.064 99.4885 200.096C99.1685 200.144 98.8405 200.168 98.5045 200.168C97.7845 200.168 97.2725 200.04 96.9685 199.784C96.6805 199.528 96.5365 199.08 96.5365 198.44V189.848ZM100.185 194.456H96.5365V185.408C96.6965 185.376 96.9365 185.336 97.2565 185.288C97.5925 185.24 97.9125 185.216 98.2165 185.216C98.9205 185.216 99.4245 185.336 99.7285 185.576C100.033 185.816 100.185 186.272 100.185 186.944V194.456ZM105.489 189.848H109.161V199.976C109.001 200.024 108.761 200.064 108.441 200.096C108.121 200.144 107.793 200.168 107.457 200.168C106.737 200.168 106.225 200.04 105.921 199.784C105.633 199.528 105.489 199.08 105.489 198.44V189.848ZM109.161 194.456H105.489V185.408C105.665 185.376 105.913 185.336 106.233 185.288C106.553 185.24 106.873 185.216 107.193 185.216C107.881 185.216 108.377 185.344 108.681 185.6C109.001 185.84 109.161 186.296 109.161 186.968V194.456ZM107.577 194.144H98.1925V191.24H107.577V194.144ZM118.424 188.48H118.28C118.12 188.992 117.928 189.56 117.704 190.184C117.496 190.808 117.28 191.464 117.056 192.152C116.832 192.824 116.616 193.496 116.408 194.168L115.976 196.328C115.88 196.632 115.784 196.952 115.688 197.288C115.608 197.624 115.52 197.952 115.424 198.272C115.328 198.592 115.24 198.896 115.16 199.184C115.08 199.472 115 199.744 114.92 200C114.744 200.048 114.544 200.096 114.32 200.144C114.096 200.208 113.832 200.24 113.528 200.24C112.856 200.24 112.344 200.12 111.992 199.88C111.64 199.64 111.464 199.288 111.464 198.824C111.464 198.632 111.488 198.432 111.536 198.224C111.6 198.016 111.672 197.776 111.752 197.504C111.896 196.976 112.096 196.312 112.352 195.512C112.624 194.712 112.912 193.848 113.216 192.92C113.536 191.976 113.856 191.048 114.176 190.136C114.512 189.224 114.816 188.384 115.088 187.616C115.376 186.848 115.608 186.248 115.784 185.816C116.008 185.672 116.36 185.544 116.84 185.432C117.336 185.304 117.824 185.24 118.304 185.24C118.992 185.24 119.608 185.344 120.152 185.552C120.696 185.744 121.04 186.056 121.184 186.488C121.488 187.336 121.816 188.32 122.168 189.44C122.536 190.544 122.904 191.704 123.272 192.92C123.64 194.136 123.992 195.32 124.328 196.472C124.68 197.608 124.984 198.632 125.24 199.544C125.064 199.736 124.808 199.896 124.472 200.024C124.136 200.168 123.736 200.24 123.272 200.24C122.616 200.24 122.152 200.12 121.88 199.88C121.608 199.64 121.4 199.28 121.256 198.8L120.488 196.112L120.08 194.072C119.888 193.352 119.688 192.656 119.48 191.984C119.272 191.312 119.08 190.68 118.904 190.088C118.728 189.48 118.568 188.944 118.424 188.48ZM114.368 196.76L115.784 193.928H121.4L121.88 196.76H114.368ZM137.051 196.376C136.875 196.52 136.635 196.64 136.331 196.736C136.043 196.832 135.707 196.88 135.323 196.88C134.827 196.88 134.411 196.816 134.075 196.688C133.739 196.56 133.523 196.344 133.427 196.04C132.883 194.52 132.419 193.256 132.035 192.248C131.667 191.24 131.379 190.368 131.171 189.632H131.051C131.003 190.64 130.963 191.56 130.931 192.392C130.899 193.224 130.875 194.04 130.859 194.84C130.843 195.624 130.819 196.424 130.787 197.24C130.755 198.056 130.707 198.952 130.643 199.928C130.467 199.976 130.227 200.032 129.923 200.096C129.635 200.16 129.347 200.192 129.059 200.192C128.451 200.192 127.971 200.088 127.619 199.88C127.283 199.672 127.115 199.312 127.115 198.8C127.115 198.448 127.131 197.928 127.163 197.24C127.211 196.536 127.259 195.736 127.307 194.84C127.371 193.928 127.427 192.968 127.475 191.96C127.539 190.952 127.603 189.96 127.667 188.984C127.747 187.992 127.819 187.08 127.883 186.248C128.011 186.056 128.267 185.864 128.651 185.672C129.035 185.464 129.563 185.36 130.235 185.36C130.955 185.36 131.531 185.48 131.963 185.72C132.411 185.944 132.731 186.32 132.923 186.848C133.163 187.424 133.419 188.096 133.691 188.864C133.963 189.616 134.227 190.384 134.483 191.168C134.755 191.936 135.003 192.632 135.227 193.256H135.347C135.795 191.848 136.251 190.472 136.715 189.128C137.195 187.784 137.603 186.664 137.939 185.768C138.163 185.64 138.443 185.544 138.779 185.48C139.131 185.4 139.499 185.36 139.883 185.36C140.571 185.36 141.123 185.464 141.539 185.672C141.971 185.864 142.227 186.16 142.307 186.56C142.371 186.864 142.435 187.344 142.499 188C142.579 188.656 142.659 189.416 142.739 190.28C142.819 191.128 142.899 192.024 142.979 192.968C143.059 193.896 143.131 194.808 143.195 195.704C143.275 196.584 143.339 197.376 143.387 198.08C143.435 198.784 143.467 199.344 143.483 199.76C143.243 199.904 142.987 200.008 142.715 200.072C142.459 200.152 142.131 200.192 141.731 200.192C141.219 200.192 140.779 200.096 140.411 199.904C140.059 199.712 139.867 199.344 139.835 198.8C139.755 197.552 139.691 196.368 139.643 195.248C139.595 194.112 139.555 193.08 139.523 192.152C139.507 191.208 139.483 190.4 139.451 189.728H139.331C139.123 190.416 138.827 191.288 138.443 192.344C138.075 193.384 137.611 194.728 137.051 196.376ZM150.082 192.44H151.522C152.338 192.44 152.978 192.248 153.442 191.864C153.922 191.48 154.162 190.928 154.162 190.208C154.162 189.488 153.938 188.944 153.49 188.576C153.042 188.208 152.394 188.024 151.546 188.024C151.258 188.024 150.994 188.032 150.754 188.048C150.53 188.064 150.306 188.088 150.082 188.12V192.44ZM151.762 195.32H146.458V186.728C146.458 186.424 146.546 186.184 146.722 186.008C146.898 185.832 147.13 185.696 147.418 185.6C147.946 185.408 148.578 185.272 149.314 185.192C150.05 185.112 150.714 185.072 151.306 185.072C153.466 185.072 155.098 185.536 156.202 186.464C157.322 187.376 157.882 188.624 157.882 190.208C157.882 191.232 157.634 192.128 157.138 192.896C156.658 193.664 155.962 194.264 155.05 194.696C154.138 195.112 153.042 195.32 151.762 195.32ZM146.458 193.712H150.106V199.976C149.962 200.024 149.73 200.064 149.41 200.096C149.09 200.144 148.762 200.168 148.426 200.168C147.706 200.168 147.194 200.04 146.89 199.784C146.602 199.528 146.458 199.08 146.458 198.44V193.712ZM160.333 189.848H163.981V199.976C163.837 200.024 163.605 200.064 163.285 200.096C162.965 200.144 162.637 200.168 162.301 200.168C161.581 200.168 161.069 200.04 160.765 199.784C160.477 199.528 160.333 199.08 160.333 198.44V189.848ZM163.981 194.456H160.333V185.408C160.493 185.376 160.733 185.336 161.053 185.288C161.389 185.24 161.717 185.216 162.037 185.216C162.725 185.216 163.221 185.336 163.525 185.576C163.829 185.816 163.981 186.272 163.981 186.944V194.456ZM181.548 192.704C181.548 194.368 181.22 195.776 180.564 196.928C179.924 198.064 179.036 198.928 177.9 199.52C176.78 200.112 175.508 200.408 174.084 200.408C172.66 200.408 171.388 200.112 170.268 199.52C169.148 198.928 168.268 198.064 167.628 196.928C166.988 195.776 166.668 194.368 166.668 192.704C166.668 191.04 166.996 189.64 167.652 188.504C168.308 187.352 169.196 186.488 170.316 185.912C171.436 185.32 172.692 185.024 174.084 185.024C175.492 185.024 176.756 185.32 177.876 185.912C179.012 186.488 179.908 187.352 180.564 188.504C181.22 189.64 181.548 191.04 181.548 192.704ZM177.78 192.704C177.78 191.168 177.444 190 176.772 189.2C176.116 188.4 175.22 188 174.084 188C172.996 188 172.116 188.4 171.444 189.2C170.772 189.984 170.436 191.152 170.436 192.704C170.436 194.272 170.764 195.456 171.42 196.256C172.092 197.04 172.988 197.432 174.108 197.432C175.228 197.432 176.116 197.04 176.772 196.256C177.444 195.456 177.78 194.272 177.78 192.704ZM184.216 189.608L187.528 189.56C187.592 190.248 187.64 190.928 187.672 191.6C187.704 192.272 187.72 192.92 187.72 193.544C187.736 194.168 187.744 194.776 187.744 195.368V200C187.6 200.032 187.368 200.064 187.048 200.096C186.744 200.144 186.432 200.168 186.112 200.168C185.408 200.168 184.912 200.048 184.624 199.808C184.352 199.568 184.216 199.136 184.216 198.512V189.608ZM197.008 195.776L193.672 195.8C193.56 194.632 193.496 193.52 193.48 192.464C193.464 191.408 193.456 190.4 193.456 189.44V185.408C193.616 185.376 193.848 185.336 194.152 185.288C194.456 185.24 194.776 185.216 195.112 185.216C195.8 185.216 196.288 185.344 196.576 185.6C196.864 185.84 197.008 186.264 197.008 186.872V195.776ZM197.008 194.624V199.544C196.8 199.736 196.504 199.888 196.12 200C195.752 200.128 195.312 200.192 194.8 200.192C194.256 200.192 193.744 200.104 193.264 199.928C192.8 199.752 192.416 199.36 192.112 198.752L189.208 193.232C189.032 192.88 188.856 192.528 188.68 192.176C188.52 191.824 188.36 191.472 188.2 191.12C188.04 190.752 187.88 190.384 187.72 190.016L184.216 190.808V186.08C184.408 185.808 184.704 185.6 185.104 185.456C185.52 185.312 185.968 185.24 186.448 185.24C186.976 185.24 187.472 185.328 187.936 185.504C188.416 185.68 188.808 186.064 189.112 186.656L192.04 192.2C192.216 192.536 192.392 192.888 192.568 193.256C192.744 193.608 192.912 193.96 193.072 194.312C193.232 194.664 193.384 195.024 193.528 195.392L197.008 194.624Z" fill="black" fill-opacity="0.24" style="mix-blend-mode:color-burn"/>
<path d="M93.9638 187.424C93.9638 187.792 93.8678 188.112 93.6758 188.384C93.4838 188.656 93.2678 188.872 93.0278 189.032C92.6278 188.76 92.1718 188.52 91.6598 188.312C91.1638 188.104 90.5718 188 89.8838 188C89.0358 188 88.2998 188.184 87.6758 188.552C87.0518 188.92 86.5718 189.456 86.2358 190.16C85.9158 190.864 85.7558 191.72 85.7558 192.728C85.7558 194.264 86.1398 195.432 86.9078 196.232C87.6758 197.032 88.7318 197.432 90.0758 197.432C90.7638 197.432 91.3558 197.336 91.8518 197.144C92.3478 196.952 92.8038 196.736 93.2198 196.496C93.4598 196.672 93.6518 196.904 93.7958 197.192C93.9558 197.464 94.0358 197.784 94.0358 198.152C94.0358 198.472 93.9478 198.768 93.7718 199.04C93.6118 199.312 93.3318 199.544 92.9318 199.736C92.6278 199.896 92.1958 200.048 91.6358 200.192C91.0758 200.336 90.3958 200.408 89.5958 200.408C88.1878 200.408 86.8998 200.136 85.7318 199.592C84.5798 199.032 83.6678 198.192 82.9958 197.072C82.3238 195.936 81.9878 194.488 81.9878 192.728C81.9878 191.064 82.3158 189.664 82.9718 188.528C83.6438 187.376 84.5398 186.504 85.6598 185.912C86.7798 185.32 88.0198 185.024 89.3798 185.024C90.3238 185.024 91.1398 185.136 91.8278 185.36C92.5158 185.568 93.0438 185.856 93.4118 186.224C93.7798 186.576 93.9638 186.976 93.9638 187.424ZM96.5365 189.848H100.185V199.976C100.041 200.024 99.8085 200.064 99.4885 200.096C99.1685 200.144 98.8405 200.168 98.5045 200.168C97.7845 200.168 97.2725 200.04 96.9685 199.784C96.6805 199.528 96.5365 199.08 96.5365 198.44V189.848ZM100.185 194.456H96.5365V185.408C96.6965 185.376 96.9365 185.336 97.2565 185.288C97.5925 185.24 97.9125 185.216 98.2165 185.216C98.9205 185.216 99.4245 185.336 99.7285 185.576C100.033 185.816 100.185 186.272 100.185 186.944V194.456ZM105.489 189.848H109.161V199.976C109.001 200.024 108.761 200.064 108.441 200.096C108.121 200.144 107.793 200.168 107.457 200.168C106.737 200.168 106.225 200.04 105.921 199.784C105.633 199.528 105.489 199.08 105.489 198.44V189.848ZM109.161 194.456H105.489V185.408C105.665 185.376 105.913 185.336 106.233 185.288C106.553 185.24 106.873 185.216 107.193 185.216C107.881 185.216 108.377 185.344 108.681 185.6C109.001 185.84 109.161 186.296 109.161 186.968V194.456ZM107.577 194.144H98.1925V191.24H107.577V194.144ZM118.424 188.48H118.28C118.12 188.992 117.928 189.56 117.704 190.184C117.496 190.808 117.28 191.464 117.056 192.152C116.832 192.824 116.616 193.496 116.408 194.168L115.976 196.328C115.88 196.632 115.784 196.952 115.688 197.288C115.608 197.624 115.52 197.952 115.424 198.272C115.328 198.592 115.24 198.896 115.16 199.184C115.08 199.472 115 199.744 114.92 200C114.744 200.048 114.544 200.096 114.32 200.144C114.096 200.208 113.832 200.24 113.528 200.24C112.856 200.24 112.344 200.12 111.992 199.88C111.64 199.64 111.464 199.288 111.464 198.824C111.464 198.632 111.488 198.432 111.536 198.224C111.6 198.016 111.672 197.776 111.752 197.504C111.896 196.976 112.096 196.312 112.352 195.512C112.624 194.712 112.912 193.848 113.216 192.92C113.536 191.976 113.856 191.048 114.176 190.136C114.512 189.224 114.816 188.384 115.088 187.616C115.376 186.848 115.608 186.248 115.784 185.816C116.008 185.672 116.36 185.544 116.84 185.432C117.336 185.304 117.824 185.24 118.304 185.24C118.992 185.24 119.608 185.344 120.152 185.552C120.696 185.744 121.04 186.056 121.184 186.488C121.488 187.336 121.816 188.32 122.168 189.44C122.536 190.544 122.904 191.704 123.272 192.92C123.64 194.136 123.992 195.32 124.328 196.472C124.68 197.608 124.984 198.632 125.24 199.544C125.064 199.736 124.808 199.896 124.472 200.024C124.136 200.168 123.736 200.24 123.272 200.24C122.616 200.24 122.152 200.12 121.88 199.88C121.608 199.64 121.4 199.28 121.256 198.8L120.488 196.112L120.08 194.072C119.888 193.352 119.688 192.656 119.48 191.984C119.272 191.312 119.08 190.68 118.904 190.088C118.728 189.48 118.568 188.944 118.424 188.48ZM114.368 196.76L115.784 193.928H121.4L121.88 196.76H114.368ZM137.051 196.376C136.875 196.52 136.635 196.64 136.331 196.736C136.043 196.832 135.707 196.88 135.323 196.88C134.827 196.88 134.411 196.816 134.075 196.688C133.739 196.56 133.523 196.344 133.427 196.04C132.883 194.52 132.419 193.256 132.035 192.248C131.667 191.24 131.379 190.368 131.171 189.632H131.051C131.003 190.64 130.963 191.56 130.931 192.392C130.899 193.224 130.875 194.04 130.859 194.84C130.843 195.624 130.819 196.424 130.787 197.24C130.755 198.056 130.707 198.952 130.643 199.928C130.467 199.976 130.227 200.032 129.923 200.096C129.635 200.16 129.347 200.192 129.059 200.192C128.451 200.192 127.971 200.088 127.619 199.88C127.283 199.672 127.115 199.312 127.115 198.8C127.115 198.448 127.131 197.928 127.163 197.24C127.211 196.536 127.259 195.736 127.307 194.84C127.371 193.928 127.427 192.968 127.475 191.96C127.539 190.952 127.603 189.96 127.667 188.984C127.747 187.992 127.819 187.08 127.883 186.248C128.011 186.056 128.267 185.864 128.651 185.672C129.035 185.464 129.563 185.36 130.235 185.36C130.955 185.36 131.531 185.48 131.963 185.72C132.411 185.944 132.731 186.32 132.923 186.848C133.163 187.424 133.419 188.096 133.691 188.864C133.963 189.616 134.227 190.384 134.483 191.168C134.755 191.936 135.003 192.632 135.227 193.256H135.347C135.795 191.848 136.251 190.472 136.715 189.128C137.195 187.784 137.603 186.664 137.939 185.768C138.163 185.64 138.443 185.544 138.779 185.48C139.131 185.4 139.499 185.36 139.883 185.36C140.571 185.36 141.123 185.464 141.539 185.672C141.971 185.864 142.227 186.16 142.307 186.56C142.371 186.864 142.435 187.344 142.499 188C142.579 188.656 142.659 189.416 142.739 190.28C142.819 191.128 142.899 192.024 142.979 192.968C143.059 193.896 143.131 194.808 143.195 195.704C143.275 196.584 143.339 197.376 143.387 198.08C143.435 198.784 143.467 199.344 143.483 199.76C143.243 199.904 142.987 200.008 142.715 200.072C142.459 200.152 142.131 200.192 141.731 200.192C141.219 200.192 140.779 200.096 140.411 199.904C140.059 199.712 139.867 199.344 139.835 198.8C139.755 197.552 139.691 196.368 139.643 195.248C139.595 194.112 139.555 193.08 139.523 192.152C139.507 191.208 139.483 190.4 139.451 189.728H139.331C139.123 190.416 138.827 191.288 138.443 192.344C138.075 193.384 137.611 194.728 137.051 196.376ZM150.082 192.44H151.522C152.338 192.44 152.978 192.248 153.442 191.864C153.922 191.48 154.162 190.928 154.162 190.208C154.162 189.488 153.938 188.944 153.49 188.576C153.042 188.208 152.394 188.024 151.546 188.024C151.258 188.024 150.994 188.032 150.754 188.048C150.53 188.064 150.306 188.088 150.082 188.12V192.44ZM151.762 195.32H146.458V186.728C146.458 186.424 146.546 186.184 146.722 186.008C146.898 185.832 147.13 185.696 147.418 185.6C147.946 185.408 148.578 185.272 149.314 185.192C150.05 185.112 150.714 185.072 151.306 185.072C153.466 185.072 155.098 185.536 156.202 186.464C157.322 187.376 157.882 188.624 157.882 190.208C157.882 191.232 157.634 192.128 157.138 192.896C156.658 193.664 155.962 194.264 155.05 194.696C154.138 195.112 153.042 195.32 151.762 195.32ZM146.458 193.712H150.106V199.976C149.962 200.024 149.73 200.064 149.41 200.096C149.09 200.144 148.762 200.168 148.426 200.168C147.706 200.168 147.194 200.04 146.89 199.784C146.602 199.528 146.458 199.08 146.458 198.44V193.712ZM160.333 189.848H163.981V199.976C163.837 200.024 163.605 200.064 163.285 200.096C162.965 200.144 162.637 200.168 162.301 200.168C161.581 200.168 161.069 200.04 160.765 199.784C160.477 199.528 160.333 199.08 160.333 198.44V189.848ZM163.981 194.456H160.333V185.408C160.493 185.376 160.733 185.336 161.053 185.288C161.389 185.24 161.717 185.216 162.037 185.216C162.725 185.216 163.221 185.336 163.525 185.576C163.829 185.816 163.981 186.272 163.981 186.944V194.456ZM181.548 192.704C181.548 194.368 181.22 195.776 180.564 196.928C179.924 198.064 179.036 198.928 177.9 199.52C176.78 200.112 175.508 200.408 174.084 200.408C172.66 200.408 171.388 200.112 170.268 199.52C169.148 198.928 168.268 198.064 167.628 196.928C166.988 195.776 166.668 194.368 166.668 192.704C166.668 191.04 166.996 189.64 167.652 188.504C168.308 187.352 169.196 186.488 170.316 185.912C171.436 185.32 172.692 185.024 174.084 185.024C175.492 185.024 176.756 185.32 177.876 185.912C179.012 186.488 179.908 187.352 180.564 188.504C181.22 189.64 181.548 191.04 181.548 192.704ZM177.78 192.704C177.78 191.168 177.444 190 176.772 189.2C176.116 188.4 175.22 188 174.084 188C172.996 188 172.116 188.4 171.444 189.2C170.772 189.984 170.436 191.152 170.436 192.704C170.436 194.272 170.764 195.456 171.42 196.256C172.092 197.04 172.988 197.432 174.108 197.432C175.228 197.432 176.116 197.04 176.772 196.256C177.444 195.456 177.78 194.272 177.78 192.704ZM184.216 189.608L187.528 189.56C187.592 190.248 187.64 190.928 187.672 191.6C187.704 192.272 187.72 192.92 187.72 193.544C187.736 194.168 187.744 194.776 187.744 195.368V200C187.6 200.032 187.368 200.064 187.048 200.096C186.744 200.144 186.432 200.168 186.112 200.168C185.408 200.168 184.912 200.048 184.624 199.808C184.352 199.568 184.216 199.136 184.216 198.512V189.608ZM197.008 195.776L193.672 195.8C193.56 194.632 193.496 193.52 193.48 192.464C193.464 191.408 193.456 190.4 193.456 189.44V185.408C193.616 185.376 193.848 185.336 194.152 185.288C194.456 185.24 194.776 185.216 195.112 185.216C195.8 185.216 196.288 185.344 196.576 185.6C196.864 185.84 197.008 186.264 197.008 186.872V195.776ZM197.008 194.624V199.544C196.8 199.736 196.504 199.888 196.12 200C195.752 200.128 195.312 200.192 194.8 200.192C194.256 200.192 193.744 200.104 193.264 199.928C192.8 199.752 192.416 199.36 192.112 198.752L189.208 193.232C189.032 192.88 188.856 192.528 188.68 192.176C188.52 191.824 188.36 191.472 188.2 191.12C188.04 190.752 187.88 190.384 187.72 190.016L184.216 190.808V186.08C184.408 185.808 184.704 185.6 185.104 185.456C185.52 185.312 185.968 185.24 186.448 185.24C186.976 185.24 187.472 185.328 187.936 185.504C188.416 185.68 188.808 186.064 189.112 186.656L192.04 192.2C192.216 192.536 192.392 192.888 192.568 193.256C192.744 193.608 192.912 193.96 193.072 194.312C193.232 194.664 193.384 195.024 193.528 195.392L197.008 194.624Z" fill="black" fill-opacity="0.32" style="mix-blend-mode:darken"/>
</g>
<defs>
<filter id="filter0_dddd_45_5021" x="14.5667" y="30.7944" width="251.105" height="329.661" filterUnits="userSpaceOnUse" color-interpolation-filters="sRGB">
<feFlood flood-opacity="0" result="BackgroundImageFix"/>
<feColorMatrix in="SourceAlpha" type="matrix" values="0 0 0 0 0 0 0 0 0 0 0 0 0 0 0 0 0 0 127 0" result="hardAlpha"/>
<feOffset dy="5"/>
<feGaussianBlur stdDeviation="5.5"/>
<feColorMatrix type="matrix" values="0 0 0 0 0 0 0 0 0 0 0 0 0 0 0 0 0 0 0.24 0"/>
<feBlend mode="normal" in2="BackgroundImageFix" result="effect1_dropShadow_45_5021"/>
<feColorMatrix in="SourceAlpha" type="matrix" values="0 0 0 0 0 0 0 0 0 0 0 0 0 0 0 0 0 0 127 0" result="hardAlpha"/>
<feOffset dy="21"/>
<feGaussianBlur stdDeviation="10.5"/>
<feColorMatrix type="matrix" values="0 0 0 0 0 0 0 0 0 0 0 0 0 0 0 0 0 0 0.21 0"/>
<feBlend mode="normal" in2="effect1_dropShadow_45_5021" result="effect2_dropShadow_45_5021"/>
<feColorMatrix in="SourceAlpha" type="matrix" values="0 0 0 0 0 0 0 0 0 0 0 0 0 0 0 0 0 0 127 0" result="hardAlpha"/>
<feOffset dy="46"/>
<feGaussianBlur stdDeviation="14"/>
<feColorMatrix type="matrix" values="0 0 0 0 0 0 0 0 0 0 0 0 0 0 0 0 0 0 0.12 0"/>
<feBlend mode="normal" in2="effect2_dropShadow_45_5021" result="effect3_dropShadow_45_5021"/>
<feColorMatrix in="SourceAlpha" type="matrix" values="0 0 0 0 0 0 0 0 0 0 0 0 0 0 0 0 0 0 127 0" result="hardAlpha"/>
<feOffset dy="82"/>
<feGaussianBlur stdDeviation="16.5"/>
<feColorMatrix type="matrix" values="0 0 0 0 0 0 0 0 0 0 0 0 0 0 0 0 0 0 0.04 0"/>
<feBlend mode="normal" in2="effect3_dropShadow_45_5021" result="effect4_dropShadow_45_5021"/>
<feBlend mode="normal" in="SourceGraphic" in2="effect4_dropShadow_45_5021" result="shape"/>
</filter>
<filter id="filter1_d_45_5021" x="39.5667" y="30.7944" width="201.105" height="224.661" filterUnits="userSpaceOnUse" color-interpolation-filters="sRGB">
<feFlood flood-opacity="0" result="BackgroundImageFix"/>
<feColorMatrix in="SourceAlpha" type="matrix" values="0 0 0 0 0 0 0 0 0 0 0 0 0 0 0 0 0 0 127 0" result="hardAlpha"/>
<feOffset dy="2"/>
<feGaussianBlur stdDeviation="4"/>
<feColorMatrix type="matrix" values="0 0 0 0 0 0 0 0 0 0 0 0 0 0 0 0 0 0 0.16 0"/>
<feBlend mode="color-burn" in2="BackgroundImageFix" result="effect1_dropShadow_45_5021"/>
<feBlend mode="normal" in="SourceGraphic" in2="effect1_dropShadow_45_5021" result="shape"/>
</filter>
<filter id="filter2_d_45_5021" x="85.6433" y="76.5508" width="108.713" height="105.004" filterUnits="userSpaceOnUse" color-interpolation-filters="sRGB">
<feFlood flood-opacity="0" result="BackgroundImageFix"/>
<feColorMatrix in="SourceAlpha" type="matrix" values="0 0 0 0 0 0 0 0 0 0 0 0 0 0 0 0 0 0 127 0" result="hardAlpha"/>
<feOffset dy="2"/>
<feGaussianBlur stdDeviation="6"/>
<feColorMatrix type="matrix" values="0 0 0 0 0 0 0 0 0 0 0 0 0 0 0 0 0 0 0.12 0"/>
<feBlend mode="plus-darker" in2="BackgroundImageFix" result="effect1_dropShadow_45_5021"/>
<feBlend mode="normal" in="SourceGraphic" in2="effect1_dropShadow_45_5021" result="shape"/>
</filter>
<filter id="filter3_dd_45_5021" x="24" y="174" width="231.712" height="70" filterUnits="userSpaceOnUse" color-interpolation-filters="sRGB">
<feFlood flood-opacity="0" result="BackgroundImageFix"/>
<feColorMatrix in="SourceAlpha" type="matrix" values="0 0 0 0 0 0 0 0 0 0 0 0 0 0 0 0 0 0 127 0" result="hardAlpha"/>
<feOffset dy="4"/>
<feGaussianBlur stdDeviation="6"/>
<feColorMatrix type="matrix" values="0 0 0 0 0 0 0 0 0 0 0 0 0 0 0 0 0 0 0.16 0"/>
<feBlend mode="normal" in2="BackgroundImageFix" result="effect1_dropShadow_45_5021"/>
<feColorMatrix in="SourceAlpha" type="matrix" values="0 0 0 0 0 0 0 0 0 0 0 0 0 0 0 0 0 0 127 0" result="hardAlpha"/>
<feOffset dy="2"/>
<feGaussianBlur stdDeviation="2"/>
<feColorMatrix type="matrix" values="0 0 0 0 0 0 0 0 0 0 0 0 0 0 0 0 0 0 0.24 0"/>
<feBlend mode="normal" in2="effect1_dropShadow_45_5021" result="effect2_dropShadow_45_5021"/>
<feBlend mode="normal" in="SourceGraphic" in2="effect2_dropShadow_45_5021" result="shape"/>
</filter>
<filter id="filter4_dd_45_5021" x="39.856" y="162" width="200" height="70" filterUnits="userSpaceOnUse" color-interpolation-filters="sRGB">
<feFlood flood-opacity="0" result="BackgroundImageFix"/>
<feColorMatrix in="SourceAlpha" type="matrix" values="0 0 0 0 0 0 0 0 0 0 0 0 0 0 0 0 0 0 127 0" result="hardAlpha"/>
<feOffset dy="4"/>
<feGaussianBlur stdDeviation="6"/>
<feColorMatrix type="matrix" values="0 0 0 0 0 0 0 0 0 0 0 0 0 0 0 0 0 0 0.16 0"/>
<feBlend mode="normal" in2="BackgroundImageFix" result="effect1_dropShadow_45_5021"/>
<feColorMatrix in="SourceAlpha" type="matrix" values="0 0 0 0 0 0 0 0 0 0 0 0 0 0 0 0 0 0 127 0" result="hardAlpha"/>
<feOffset dy="2"/>
<feGaussianBlur stdDeviation="2"/>
<feColorMatrix type="matrix" values="0 0 0 0 0 0 0 0 0 0 0 0 0 0 0 0 0 0 0.24 0"/>
<feBlend mode="normal" in2="effect1_dropShadow_45_5021" result="effect2_dropShadow_45_5021"/>
<feBlend mode="normal" in="SourceGraphic" in2="effect2_dropShadow_45_5021" result="shape"/>
</filter>
<filter id="filter5_i_45_5021" x="59.856" y="190" width="6" height="7" filterUnits="userSpaceOnUse" color-interpolation-filters="sRGB">
<feFlood flood-opacity="0" result="BackgroundImageFix"/>
<feBlend mode="normal" in="SourceGraphic" in2="BackgroundImageFix" result="shape"/>
<feColorMatrix in="SourceAlpha" type="matrix" values="0 0 0 0 0 0 0 0 0 0 0 0 0 0 0 0 0 0 127 0" result="hardAlpha"/>
<feOffset dy="1"/>
<feGaussianBlur stdDeviation="1"/>
<feComposite in2="hardAlpha" operator="arithmetic" k2="-1" k3="1"/>
<feColorMatrix type="matrix" values="0 0 0 0 0 0 0 0 0 0 0 0 0 0 0 0 0 0 0.24 0"/>
<feBlend mode="darken" in2="shape" result="effect1_innerShadow_45_5021"/>
</filter>
<filter id="filter6_i_45_5021" x="213.856" y="190" width="6" height="7" filterUnits="userSpaceOnUse" color-interpolation-filters="sRGB">
<feFlood flood-opacity="0" result="BackgroundImageFix"/>
<feBlend mode="normal" in="SourceGraphic" in2="BackgroundImageFix" result="shape"/>
<feColorMatrix in="SourceAlpha" type="matrix" values="0 0 0 0 0 0 0 0 0 0 0 0 0 0 0 0 0 0 127 0" result="hardAlpha"/>
<feOffset dy="1"/>
<feGaussianBlur stdDeviation="1"/>
<feComposite in2="hardAlpha" operator="arithmetic" k2="-1" k3="1"/>
<feColorMatrix type="matrix" values="0 0 0 0 0 0 0 0 0 0 0 0 0 0 0 0 0 0 0.24 0"/>
<feBlend mode="darken" in2="shape" result="effect1_innerShadow_45_5021"/>
</filter>
<filter id="filter7_i_45_5021" x="81.9878" y="185.024" width="115.021" height="16.384" filterUnits="userSpaceOnUse" color-interpolation-filters="sRGB">
<feFlood flood-opacity="0" result="BackgroundImageFix"/>
<feBlend mode="normal" in="SourceGraphic" in2="BackgroundImageFix" result="shape"/>
<feColorMatrix in="SourceAlpha" type="matrix" values="0 0 0 0 0 0 0 0 0 0 0 0 0 0 0 0 0 0 127 0" result="hardAlpha"/>
<feOffset dy="1"/>
<feGaussianBlur stdDeviation="1"/>
<feComposite in2="hardAlpha" operator="arithmetic" k2="-1" k3="1"/>
<feColorMatrix type="matrix" values="0 0 0 0 0 0 0 0 0 0 0 0 0 0 0 0 0 0 0.24 0"/>
<feBlend mode="darken" in2="shape" result="effect1_innerShadow_45_5021"/>
</filter>
<linearGradient id="paint0_linear_45_5021" x1="140" y1="31.7284" x2="140" y2="246.82" gradientUnits="userSpaceOnUse">
<stop stop-color="white"/>
<stop offset="1" stop-color="white" stop-opacity="0"/>
</linearGradient>
<radialGradient id="paint1_radial_45_5021" cx="0" cy="0" r="1" gradientUnits="userSpaceOnUse" gradientTransform="translate(140 93.51) rotate(90) scale(141.869 107.639)">
<stop stop-color="white"/>
<stop offset="1" stop-color="white" stop-opacity="0"/>
</radialGradient>
<linearGradient id="paint2_linear_45_5021" x1="232.12" y1="40.6237" x2="232.12" y2="245.588" gradientUnits="userSpaceOnUse">
<stop stop-color="#49F0BC"/>
<stop offset="1" stop-color="#29DCCC"/>
</linearGradient>
<linearGradient id="paint3_linear_45_5021" x1="139" y1="31.7284" x2="139" y2="246.82" gradientUnits="userSpaceOnUse">
<stop stop-color="white"/>
<stop offset="1" stop-color="white" stop-opacity="0"/>
</linearGradient>
<radialGradient id="paint4_radial_45_5021" cx="0" cy="0" r="1" gradientUnits="userSpaceOnUse" gradientTransform="translate(139 93.51) rotate(90) scale(141.869 107.639)">
<stop stop-color="white"/>
<stop offset="1" stop-color="white" stop-opacity="0"/>
</radialGradient>
<linearGradient id="paint5_linear_45_5021" x1="0" y1="0" x2="0" y2="280" gradientUnits="userSpaceOnUse">
<stop stop-color="white"/>
<stop offset="1" stop-color="white" stop-opacity="0.01"/>
</linearGradient>
<linearGradient id="paint6_linear_45_5021" x1="140.119" y1="36.7944" x2="140.119" y2="245.456" gradientUnits="userSpaceOnUse">
<stop stop-color="white"/>
<stop offset="1" stop-color="#999999"/>
</linearGradient>
<linearGradient id="paint7_linear_45_5021" x1="140" y1="87.0508" x2="140" y2="167.055" gradientUnits="userSpaceOnUse">
<stop stop-color="#DFDFDF"/>
<stop offset="1" stop-color="#A9A9A9"/>
</linearGradient>
<linearGradient id="paint8_linear_45_5021" x1="139.856" y1="182" x2="139.856" y2="228" gradientUnits="userSpaceOnUse">
<stop stop-opacity="0"/>
<stop offset="1" stop-opacity="0.16"/>
</linearGradient>
<linearGradient id="paint9_linear_45_5021" x1="139.856" y1="159" x2="139.856" y2="228" gradientUnits="userSpaceOnUse">
<stop stop-color="white"/>
<stop offset="1" stop-color="white" stop-opacity="0"/>
</linearGradient>
<radialGradient id="paint10_radial_45_5021" cx="0" cy="0" r="1" gradientUnits="userSpaceOnUse" gradientTransform="translate(139.856 182) rotate(90) scale(46 193.221)">
<stop stop-color="white"/>
<stop offset="1" stop-color="white" stop-opacity="0"/>
</radialGradient>
<linearGradient id="paint11_linear_45_5021" x1="139.856" y1="170" x2="139.856" y2="216" gradientUnits="userSpaceOnUse">
<stop stop-opacity="0"/>
<stop offset="1" stop-opacity="0.16"/>
</linearGradient>
<linearGradient id="paint12_linear_45_5021" x1="139.856" y1="170" x2="139.856" y2="216" gradientUnits="userSpaceOnUse">
<stop stop-color="white"/>
<stop offset="1" stop-color="white" stop-opacity="0"/>
</linearGradient>
<radialGradient id="paint13_radial_45_5021" cx="0" cy="0" r="1" gradientUnits="userSpaceOnUse" gradientTransform="translate(139.856 178.027) rotate(90) scale(37.9729 88)">
<stop stop-color="white"/>
<stop offset="1" stop-color="white" stop-opacity="0"/>
</radialGradient>
</defs>
</svg>
