<svg width="280" height="361" viewBox="0 0 280 361" fill="none" xmlns="http://www.w3.org/2000/svg">
<g filter="url(#filter0_dddd_45_5019)">
<path d="M47.7261 98.3522C47.4776 91.5339 47.3533 88.1247 48.6569 84.4937C49.775 81.3793 51.8315 78.3654 54.3237 76.1886C57.2293 73.6507 61.4488 72.1731 69.8878 69.2179C87.844 62.9299 105.167 54.497 121.5 44.6987C128.923 40.2451 132.635 38.0183 135.83 37.3168C139.002 36.6203 141.237 36.6203 144.409 37.3168C147.603 38.0183 151.315 40.2451 158.739 44.6987C175.072 54.497 192.395 62.9299 210.351 69.2179C218.79 72.1731 223.009 73.6507 225.915 76.1886C228.407 78.3654 230.464 81.3793 231.582 84.4937C232.885 88.1247 232.761 91.5339 232.513 98.3522C231.805 117.756 228.303 146.593 215.503 172.621C198.622 206.945 170.429 229.459 153.722 240.549C150.055 242.984 148.221 244.201 144.765 245.027C142.369 245.599 137.87 245.599 135.474 245.027C132.018 244.201 130.184 242.984 126.517 240.549C109.81 229.459 81.6166 206.945 64.7363 172.621C51.9356 146.593 48.4333 117.756 47.7261 98.3522Z" fill="black"/>
</g>
<mask id="mask0_45_5019" style="mask-type:alpha" maskUnits="userSpaceOnUse" x="47" y="36" width="186" height="210">
<path d="M47.7261 98.3522C47.4776 91.5339 47.3533 88.1247 48.6569 84.4937C49.775 81.3793 51.8315 78.3654 54.3237 76.1886C57.2293 73.6507 61.4488 72.1731 69.8878 69.2179C87.844 62.9299 105.167 54.497 121.5 44.6987C128.923 40.2451 132.635 38.0183 135.83 37.3168C139.002 36.6203 141.237 36.6203 144.409 37.3168C147.603 38.0183 151.315 40.2451 158.739 44.6987C175.072 54.497 192.395 62.9299 210.351 69.2179C218.79 72.1731 223.009 73.6507 225.915 76.1886C228.407 78.3654 230.464 81.3793 231.582 84.4937C232.885 88.1247 232.761 91.5339 232.513 98.3522C231.805 117.756 228.303 146.593 215.503 172.621C198.622 206.945 170.429 229.459 153.722 240.549C150.055 242.984 148.221 244.201 144.765 245.027C142.369 245.599 137.87 245.599 135.474 245.027C132.018 244.201 130.184 242.984 126.517 240.549C109.81 229.459 81.6166 206.945 64.7363 172.621C51.9356 146.593 48.4333 117.756 47.7261 98.3522Z" fill="black"/>
</mask>
<g mask="url(#mask0_45_5019)">
<mask id="mask1_45_5019" style="mask-type:alpha" maskUnits="userSpaceOnUse" x="47" y="36" width="186" height="210">
<path d="M47.7261 98.3522C47.4776 91.5339 47.3533 88.1247 48.6569 84.4937C49.775 81.3793 51.8315 78.3654 54.3237 76.1886C57.2293 73.6507 61.4488 72.1731 69.8878 69.2179C87.844 62.9299 105.167 54.497 121.5 44.6987C128.923 40.2451 132.635 38.0183 135.83 37.3168C139.002 36.6203 141.237 36.6203 144.409 37.3168C147.603 38.0183 151.315 40.2451 158.739 44.6987C175.072 54.497 192.395 62.9299 210.351 69.2179C218.79 72.1731 223.009 73.6507 225.915 76.1886C228.407 78.3654 230.464 81.3793 231.582 84.4937C232.885 88.1247 232.761 91.5339 232.513 98.3522C231.805 117.756 228.303 146.593 215.503 172.621C198.622 206.945 170.429 229.459 153.722 240.549C150.055 242.984 148.221 244.201 144.765 245.027C142.369 245.599 137.87 245.599 135.474 245.027C132.018 244.201 130.184 242.984 126.517 240.549C109.81 229.459 81.6166 206.945 64.7363 172.621C51.9356 146.593 48.4333 117.756 47.7261 98.3522Z" fill="black"/>
</mask>
<g mask="url(#mask1_45_5019)">
<rect width="280" height="280" fill="#67C40C"/>
<rect width="280" height="280" fill="url(#paint0_linear_45_5019)" fill-opacity="0.6" style="mix-blend-mode:overlay"/>
<rect width="280" height="280" fill="url(#paint1_radial_45_5019)" fill-opacity="0.6" style="mix-blend-mode:overlay"/>
<rect width="280" height="280" fill="black" fill-opacity="0.16" style="mix-blend-mode:overlay"/>
<rect width="280" height="280" fill="black" fill-opacity="0.12" style="mix-blend-mode:darken"/>
</g>
<g filter="url(#filter1_d_45_5019)">
<mask id="mask2_45_5019" style="mask-type:alpha" maskUnits="userSpaceOnUse" x="47" y="36" width="186" height="210">
<path fill-rule="evenodd" clip-rule="evenodd" d="M72.5318 76.7683C91.072 70.2759 108.886 61.5949 125.615 51.5589C129.399 49.2888 131.979 47.7443 134.011 46.6617C136.042 45.58 137.011 45.248 137.546 45.1306C139.587 44.6824 140.651 44.6824 142.693 45.1306C143.228 45.248 144.196 45.58 146.227 46.6617C148.26 47.7443 150.839 49.2888 154.623 51.5589C171.352 61.5949 189.167 70.2759 207.707 76.7683C212.027 78.2812 214.896 79.2903 217.066 80.217C219.168 81.1143 220.093 81.7255 220.652 82.2139C222.118 83.4944 223.395 85.3649 224.052 87.1969C224.728 89.0777 224.784 90.7724 224.518 98.0608C223.829 116.953 220.414 144.507 208.324 169.091C192.335 201.601 165.46 223.155 149.298 233.884C145.589 236.346 144.823 236.788 142.907 237.246C142.572 237.325 141.549 237.456 140.119 237.456C138.69 237.456 137.667 237.325 137.332 237.246C135.416 236.788 134.649 236.346 130.941 233.884C114.779 223.155 87.9037 201.601 71.915 169.091C59.825 144.507 56.4093 116.953 55.7207 98.0608C55.4551 90.7724 55.5111 89.0777 56.1863 87.1969C56.8441 85.3649 58.1203 83.4944 59.5864 82.2139C60.1456 81.7255 61.0711 81.1143 63.1725 80.217C65.3425 79.2903 68.2115 78.2812 72.5318 76.7683ZM47.726 98.3522C47.4775 91.5339 47.3533 88.1247 48.6569 84.4937C49.775 81.3794 51.8315 78.3654 54.3236 76.1886C57.2293 73.6507 61.4487 72.1731 69.8877 69.2179C87.8439 62.93 105.167 54.497 121.5 44.6987C128.923 40.2451 132.635 38.0183 135.83 37.3168C139.002 36.6203 141.237 36.6203 144.409 37.3168C147.603 38.0183 151.315 40.2451 158.739 44.6987C175.072 54.497 192.395 62.93 210.351 69.2179C218.79 72.1731 223.009 73.6507 225.915 76.1886C228.407 78.3654 230.464 81.3794 231.582 84.4937C232.885 88.1247 232.761 91.5339 232.513 98.3522C231.805 117.756 228.303 146.593 215.502 172.621C198.622 206.945 170.429 229.459 153.722 240.549C150.054 242.984 148.221 244.202 144.765 245.027C142.369 245.599 137.87 245.599 135.474 245.027C132.018 244.202 130.184 242.984 126.516 240.549C109.81 229.459 81.6166 206.945 64.7362 172.621C51.9356 146.593 48.4332 117.756 47.726 98.3522ZM133.644 65.2757C124.276 70.6607 114.938 76.0287 105.126 80.6528C95.5674 85.1573 85.7442 88.82 75.8758 92.4928C74.3382 93.065 73.5694 93.3512 73.0016 93.8634C72.5082 94.3086 72.1182 94.8977 71.901 95.5258C71.651 96.2485 71.687 97.0498 71.7588 98.6524C72.7336 120.384 76.6259 142.415 86.2725 162.03C97.5131 184.885 115.803 203.892 136.607 218.384C137.828 219.235 138.439 219.66 139.155 219.838C139.765 219.99 140.474 219.99 141.083 219.838C141.8 219.66 142.41 219.235 143.631 218.384C164.436 203.892 182.725 184.885 193.966 162.03C203.613 142.415 207.505 120.384 208.48 98.6525C208.552 97.0498 208.587 96.2485 208.338 95.5258C208.12 94.8977 207.73 94.3087 207.237 93.8635C206.669 93.3512 205.9 93.065 204.363 92.4927C194.499 88.8212 184.646 85.1457 175.112 80.6528C165.3 76.0288 155.962 70.6608 146.595 65.2757C145.491 64.6413 144.387 64.0065 143.282 63.3728C142.136 62.7156 141.562 62.387 140.946 62.2568C140.404 62.1422 139.834 62.1422 139.292 62.2568C138.676 62.387 138.103 62.7156 136.957 63.3728C135.851 64.0065 134.747 64.6412 133.644 65.2757Z" fill="url(#paint2_linear_45_5019)"/>
</mask>
<g mask="url(#mask2_45_5019)">
<rect width="280" height="280" fill="#67C40C"/>
<rect x="-1" width="280" height="280" fill="url(#paint3_linear_45_5019)" fill-opacity="0.6" style="mix-blend-mode:overlay"/>
<rect x="-1" width="280" height="280" fill="url(#paint4_radial_45_5019)" fill-opacity="0.6" style="mix-blend-mode:overlay"/>
<g style="mix-blend-mode:soft-light">
<path fill-rule="evenodd" clip-rule="evenodd" d="M0 0H140V280H0V0Z" fill="url(#paint5_linear_45_5019)" style="mix-blend-mode:lighten"/>
</g>
<g style="mix-blend-mode:soft-light">
<mask id="path-11-inside-1_45_5019" fill="white">
<path fill-rule="evenodd" clip-rule="evenodd" d="M72.5318 76.7683C91.072 70.2759 108.886 61.5949 125.615 51.5589C129.399 49.2888 131.979 47.7443 134.011 46.6617C136.042 45.58 137.011 45.248 137.546 45.1306C139.587 44.6824 140.651 44.6824 142.693 45.1306C143.228 45.248 144.196 45.58 146.227 46.6617C148.26 47.7443 150.839 49.2888 154.623 51.5589C171.352 61.5949 189.167 70.2759 207.707 76.7683C212.027 78.2812 214.896 79.2903 217.066 80.217C219.168 81.1143 220.093 81.7255 220.652 82.2139C222.118 83.4944 223.395 85.3649 224.052 87.1969C224.728 89.0777 224.784 90.7724 224.518 98.0608C223.829 116.953 220.414 144.507 208.324 169.091C192.335 201.601 165.46 223.155 149.298 233.884C145.589 236.346 144.823 236.788 142.907 237.246C142.572 237.325 141.549 237.456 140.119 237.456C138.69 237.456 137.667 237.325 137.332 237.246C135.416 236.788 134.649 236.346 130.941 233.884C114.779 223.155 87.9037 201.601 71.915 169.091C59.825 144.507 56.4093 116.953 55.7207 98.0608C55.4551 90.7724 55.5111 89.0777 56.1863 87.1969C56.8441 85.3649 58.1203 83.4944 59.5864 82.2139C60.1456 81.7255 61.0711 81.1143 63.1725 80.217C65.3425 79.2903 68.2115 78.2812 72.5318 76.7683ZM47.726 98.3522C47.4775 91.5339 47.3533 88.1247 48.6569 84.4937C49.775 81.3794 51.8315 78.3654 54.3236 76.1886C57.2293 73.6507 61.4487 72.1731 69.8877 69.2179C87.8439 62.93 105.167 54.497 121.5 44.6987C128.923 40.2451 132.635 38.0183 135.83 37.3168C139.002 36.6203 141.237 36.6203 144.409 37.3168C147.603 38.0183 151.315 40.2451 158.739 44.6987C175.072 54.497 192.395 62.93 210.351 69.2179C218.79 72.1731 223.009 73.6507 225.915 76.1886C228.407 78.3654 230.464 81.3794 231.582 84.4937C232.885 88.1247 232.761 91.5339 232.513 98.3522C231.805 117.756 228.303 146.593 215.502 172.621C198.622 206.945 170.429 229.459 153.722 240.549C150.054 242.984 148.221 244.202 144.765 245.027C142.369 245.599 137.87 245.599 135.474 245.027C132.018 244.202 130.184 242.984 126.516 240.549C109.81 229.459 81.6166 206.945 64.7362 172.621C51.9356 146.593 48.4332 117.756 47.726 98.3522ZM133.644 65.2757C124.276 70.6607 114.938 76.0287 105.126 80.6528C95.5674 85.1573 85.7442 88.82 75.8758 92.4928C74.3382 93.065 73.5694 93.3512 73.0016 93.8634C72.5082 94.3086 72.1182 94.8977 71.901 95.5258C71.651 96.2485 71.687 97.0498 71.7588 98.6524C72.7336 120.384 76.6259 142.415 86.2725 162.03C97.5131 184.885 115.803 203.892 136.607 218.384C137.828 219.235 138.439 219.66 139.155 219.838C139.765 219.99 140.474 219.99 141.083 219.838C141.8 219.66 142.41 219.235 143.631 218.384C164.436 203.892 182.725 184.885 193.966 162.03C203.613 142.415 207.505 120.384 208.48 98.6525C208.552 97.0498 208.587 96.2485 208.338 95.5258C208.12 94.8977 207.73 94.3087 207.237 93.8635C206.669 93.3512 205.9 93.065 204.363 92.4927C194.499 88.8212 184.646 85.1457 175.112 80.6528C165.3 76.0288 155.962 70.6608 146.595 65.2757C145.491 64.6413 144.387 64.0065 143.282 63.3728C142.136 62.7156 141.562 62.387 140.946 62.2568C140.404 62.1422 139.834 62.1422 139.292 62.2568C138.676 62.387 138.103 62.7156 136.957 63.3728C135.851 64.0065 134.747 64.6412 133.644 65.2757Z"/>
</mask>
<path d="M125.615 51.5589L125.873 51.9876L125.615 51.5589ZM72.5318 76.7683L72.697 77.2403H72.697L72.5318 76.7683ZM134.011 46.6617L134.246 47.1031V47.1031L134.011 46.6617ZM137.546 45.1306L137.653 45.619L137.546 45.1306ZM142.693 45.1306L142.586 45.619L142.693 45.1306ZM146.227 46.6617L145.992 47.1031L146.227 46.6617ZM154.623 51.5589L154.881 51.1301L154.623 51.5589ZM207.707 76.7683L207.542 77.2403L207.707 76.7683ZM217.066 80.217L217.263 79.7572L217.066 80.217ZM220.652 82.2139L220.981 81.8373L220.652 82.2139ZM224.052 87.1969L224.523 87.0279V87.0279L224.052 87.1969ZM224.518 98.0608L224.018 98.0426L224.518 98.0608ZM208.324 169.091L208.772 169.311L208.324 169.091ZM149.298 233.884L149.574 234.301L149.298 233.884ZM142.907 237.246L142.791 236.759H142.791L142.907 237.246ZM137.332 237.246L137.448 236.759H137.448L137.332 237.246ZM130.941 233.884L131.218 233.468L130.941 233.884ZM71.915 169.091L71.4663 169.311L71.915 169.091ZM55.7207 98.0608L55.2211 98.079L55.7207 98.0608ZM56.1863 87.1969L55.7158 87.0279H55.7158L56.1863 87.1969ZM59.5864 82.2139L59.2575 81.8373H59.2575L59.5864 82.2139ZM63.1725 80.217L62.9761 79.7572H62.9761L63.1725 80.217ZM48.6569 84.4937L48.1863 84.3247H48.1863L48.6569 84.4937ZM47.726 98.3522L47.2264 98.3704L47.726 98.3522ZM54.3236 76.1886L53.9947 75.8121H53.9947L54.3236 76.1886ZM69.8877 69.2179L70.053 69.6898H70.053L69.8877 69.2179ZM121.5 44.6987L121.243 44.2699L121.5 44.6987ZM135.83 37.3168L135.937 37.8051L135.83 37.3168ZM144.409 37.3168L144.301 37.8051L144.409 37.3168ZM158.739 44.6987L158.996 44.2699L158.739 44.6987ZM210.351 69.2179L210.186 69.6898L210.351 69.2179ZM225.915 76.1886L226.244 75.8121L225.915 76.1886ZM231.582 84.4937L232.052 84.3247L231.582 84.4937ZM232.513 98.3522L232.013 98.334L232.513 98.3522ZM215.502 172.621L215.951 172.842L215.502 172.621ZM153.722 240.549L153.446 240.133L153.722 240.549ZM144.765 245.027L144.881 245.513H144.881L144.765 245.027ZM135.474 245.027L135.358 245.513L135.474 245.027ZM126.516 240.549L126.793 240.133L126.516 240.549ZM64.7362 172.621L64.2875 172.842L64.7362 172.621ZM105.126 80.6528L105.339 81.105L105.126 80.6528ZM133.644 65.2757L133.893 65.7091V65.7091L133.644 65.2757ZM75.8758 92.4928L75.7014 92.0242H75.7014L75.8758 92.4928ZM73.0016 93.8634L73.3366 94.2347H73.3366L73.0016 93.8634ZM71.901 95.5258L71.4284 95.3624H71.4284L71.901 95.5258ZM71.7588 98.6524L72.2583 98.63L71.7588 98.6524ZM86.2725 162.03L86.7212 161.809L86.2725 162.03ZM136.607 218.384L136.893 217.974L136.607 218.384ZM139.155 219.838L139.276 219.353L139.155 219.838ZM141.083 219.838L141.204 220.324H141.204L141.083 219.838ZM143.631 218.384L143.346 217.974L143.631 218.384ZM193.966 162.03L194.415 162.25L193.966 162.03ZM208.48 98.6525L207.98 98.63L208.48 98.6525ZM208.338 95.5258L208.81 95.3624V95.3624L208.338 95.5258ZM207.237 93.8635L206.902 94.2347V94.2347L207.237 93.8635ZM204.363 92.4927L204.188 92.9613H204.188L204.363 92.4927ZM175.112 80.6528L174.899 81.105L175.112 80.6528ZM146.595 65.2757L146.346 65.7092V65.7092L146.595 65.2757ZM143.282 63.3728L143.531 62.939L143.282 63.3728ZM140.946 62.2568L141.05 61.7676L140.946 62.2568ZM139.292 62.2568L139.189 61.7676L139.292 62.2568ZM136.957 63.3728L137.205 63.8065L136.957 63.3728ZM125.358 51.1301C108.654 61.1513 90.8702 69.8168 72.3665 76.2964L72.697 77.2403C91.2737 70.735 109.119 62.0385 125.873 51.9876L125.358 51.1301ZM133.776 46.2204C131.73 47.3104 129.137 48.8628 125.358 51.1301L125.873 51.9876C129.661 49.7148 132.228 48.1782 134.246 47.1031L133.776 46.2204ZM137.439 44.6423C136.837 44.7743 135.821 45.1315 133.776 46.2204L134.246 47.1031C136.264 46.0284 137.185 45.7217 137.653 45.619L137.439 44.6423ZM142.8 44.6423C141.762 44.4144 140.947 44.2944 140.119 44.2944C139.292 44.2944 138.476 44.4144 137.439 44.6423L137.653 45.619C138.657 45.3986 139.394 45.2944 140.119 45.2944C140.845 45.2944 141.582 45.3986 142.586 45.619L142.8 44.6423ZM146.462 46.2204C144.418 45.1315 143.402 44.7743 142.8 44.6423L142.586 45.619C143.054 45.7217 143.975 46.0284 145.992 47.1031L146.462 46.2204ZM154.881 51.1301C151.101 48.8628 148.509 47.3104 146.462 46.2204L145.992 47.1031C148.011 48.1782 150.578 49.7148 154.366 51.9876L154.881 51.1301ZM207.872 76.2964C189.368 69.8168 171.585 61.1513 154.881 51.1301L154.366 51.9876C171.12 62.0385 188.965 70.735 207.542 77.2403L207.872 76.2964ZM217.263 79.7572C215.074 78.8224 212.186 77.8071 207.872 76.2964L207.542 77.2403C211.868 78.7554 214.719 79.7582 216.87 80.6768L217.263 79.7572ZM220.981 81.8373C220.366 81.3 219.387 80.6643 217.263 79.7572L216.87 80.6768C218.948 81.5644 219.82 82.151 220.323 82.5904L220.981 81.8373ZM224.523 87.0279C223.836 85.1158 222.511 83.1738 220.981 81.8373L220.323 82.5904C221.725 83.8149 222.953 85.6139 223.582 87.3658L224.523 87.0279ZM225.018 98.079C225.282 90.8255 225.238 89.0195 224.523 87.0279L223.582 87.3658C224.217 89.1359 224.285 90.7193 224.018 98.0426L225.018 98.079ZM208.772 169.311C220.907 144.638 224.328 117.003 225.018 98.079L224.018 98.0426C223.331 116.903 219.921 144.377 207.875 168.87L208.772 169.311ZM149.574 234.301C165.77 223.549 192.728 201.935 208.772 169.311L207.875 168.87C191.942 201.267 165.149 222.761 149.021 233.468L149.574 234.301ZM143.023 237.732C145.036 237.251 145.871 236.759 149.574 234.301L149.021 233.468C145.308 235.933 144.61 236.325 142.791 236.759L143.023 237.732ZM140.119 237.956C141.567 237.956 142.634 237.825 143.023 237.732L142.791 236.759C142.51 236.826 141.531 236.956 140.119 236.956V237.956ZM137.216 237.732C137.605 237.825 138.672 237.956 140.119 237.956V236.956C138.708 236.956 137.728 236.826 137.448 236.759L137.216 237.732ZM130.665 234.301C134.368 236.759 135.202 237.251 137.216 237.732L137.448 236.759C135.629 236.325 134.931 235.933 131.218 233.468L130.665 234.301ZM71.4663 169.311C87.5108 201.935 114.468 223.549 130.665 234.301L131.218 233.468C115.09 222.761 88.2967 201.267 72.3637 168.87L71.4663 169.311ZM55.2211 98.079C55.9108 117.003 59.3319 144.638 71.4663 169.311L72.3637 168.87C60.3181 144.377 56.9078 116.903 56.2204 98.0426L55.2211 98.079ZM55.7158 87.0279C55.0007 89.0195 54.9567 90.8255 55.2211 98.079L56.2204 98.0426C55.9535 90.7193 56.0215 89.1359 56.6569 87.3658L55.7158 87.0279ZM59.2575 81.8373C57.7273 83.1738 56.4023 85.1158 55.7158 87.0279L56.6569 87.3658C57.2859 85.6139 58.5134 83.8149 59.9153 82.5904L59.2575 81.8373ZM62.9761 79.7572C60.8518 80.6643 59.8726 81.3 59.2575 81.8373L59.9153 82.5904C60.4185 82.151 61.2904 81.5644 63.3688 80.6768L62.9761 79.7572ZM72.3665 76.2964C68.0527 77.8071 65.1651 78.8224 62.9761 79.7572L63.3688 80.6768C65.5199 79.7582 68.3702 78.7554 72.697 77.2403L72.3665 76.2964ZM48.1863 84.3247C46.8434 88.0652 46.9789 91.5815 47.2264 98.3704L48.2257 98.334C47.9761 91.4863 47.8631 88.1843 49.1275 84.6626L48.1863 84.3247ZM53.9947 75.8121C51.4384 78.0449 49.3332 81.1303 48.1863 84.3247L49.1275 84.6626C50.2168 81.6285 52.2245 78.686 54.6525 76.5652L53.9947 75.8121ZM69.7225 68.746C65.5093 70.2214 62.3262 71.3358 59.8343 72.3999C57.3381 73.4659 55.5034 74.4943 53.9947 75.8121L54.6525 76.5652C56.0495 75.345 57.7773 74.3657 60.227 73.3196C62.6811 72.2716 65.8272 71.1696 70.053 69.6898L69.7225 68.746ZM121.243 44.2699C104.934 54.0534 87.6422 62.4708 69.7225 68.746L70.053 69.6898C88.0457 63.3891 105.399 54.9407 121.757 45.1274L121.243 44.2699ZM135.723 36.8284C134.059 37.1937 132.285 37.9508 130.016 39.1594C127.747 40.3679 124.95 42.0458 121.243 44.2699L121.757 45.1274C125.473 42.8979 128.244 41.2357 130.486 40.042C132.727 38.8484 134.406 38.1413 135.937 37.8051L135.723 36.8284ZM144.516 36.8284C141.273 36.1164 138.965 36.1164 135.723 36.8284L135.937 37.8051C139.039 37.1242 141.2 37.1242 144.301 37.8051L144.516 36.8284ZM158.996 44.2699C155.289 42.0458 152.492 40.3679 150.223 39.1594C147.954 37.9508 146.18 37.1937 144.516 36.8284L144.301 37.8051C145.832 38.1413 147.512 38.8484 149.753 40.042C151.994 41.2357 154.765 42.8979 158.482 45.1274L158.996 44.2699ZM210.516 68.746C192.596 62.4708 175.304 54.0534 158.996 44.2699L158.482 45.1274C174.839 54.9407 192.193 63.3891 210.186 69.6898L210.516 68.746ZM226.244 75.8121C224.735 74.4943 222.901 73.4659 220.404 72.3999C217.912 71.3358 214.729 70.2214 210.516 68.746L210.186 69.6898C214.411 71.1696 217.558 72.2716 220.012 73.3196C222.461 74.3657 224.189 75.345 225.586 76.5652L226.244 75.8121ZM232.052 84.3247C230.906 81.1303 228.8 78.0449 226.244 75.8121L225.586 76.5652C228.014 78.686 230.022 81.6284 231.111 84.6626L232.052 84.3247ZM233.012 98.3704C233.26 91.5815 233.395 88.0652 232.052 84.3247L231.111 84.6626C232.376 88.1843 232.263 91.4863 232.013 98.334L233.012 98.3704ZM215.951 172.842C228.796 146.723 232.304 117.806 233.012 98.3704L232.013 98.334C231.307 117.706 227.81 146.463 215.054 172.4L215.951 172.842ZM153.999 240.966C170.739 229.853 199.015 207.279 215.951 172.842L215.054 172.4C198.229 206.611 170.118 229.065 153.446 240.133L153.999 240.966ZM144.881 245.513C148.433 244.665 150.334 243.399 153.999 240.966L153.446 240.133C149.775 242.569 148.008 243.738 144.649 244.54L144.881 245.513ZM135.358 245.513C136.61 245.812 138.377 245.956 140.119 245.956C141.862 245.956 143.629 245.812 144.881 245.513L144.649 244.54C143.505 244.814 141.825 244.956 140.119 244.956C138.414 244.956 136.734 244.814 135.59 244.54L135.358 245.513ZM126.24 240.966C129.905 243.399 131.806 244.665 135.358 245.513L135.59 244.54C132.23 243.738 130.463 242.569 126.793 240.133L126.24 240.966ZM64.2875 172.842C81.2236 207.279 109.499 229.853 126.24 240.966L126.793 240.133C110.12 229.065 82.0095 206.611 65.1849 172.4L64.2875 172.842ZM47.2264 98.3704C47.9347 117.806 51.4425 146.723 64.2875 172.842L65.1849 172.4C52.4287 146.463 48.9317 117.706 48.2257 98.334L47.2264 98.3704ZM105.339 81.105C115.173 76.4709 124.528 71.0925 133.893 65.7091L133.395 64.8422C124.024 70.2289 114.704 75.5865 104.913 80.2005L105.339 81.105ZM76.0502 92.9614C85.9157 89.2897 95.7585 85.62 105.339 81.105L104.913 80.2005C95.3763 84.6946 85.5728 88.3503 75.7014 92.0242L76.0502 92.9614ZM73.3366 94.2347C73.8164 93.8017 74.4734 93.5482 76.0502 92.9614L75.7014 92.0242C74.203 92.5818 73.3224 92.9006 72.6667 93.4922L73.3366 94.2347ZM72.3735 95.6892C72.5631 95.1409 72.9058 94.6233 73.3366 94.2347L72.6667 93.4922C72.1106 93.994 71.6732 94.6545 71.4284 95.3624L72.3735 95.6892ZM72.2583 98.63C72.1846 96.987 72.1622 96.3003 72.3735 95.6892L71.4284 95.3624C71.1399 96.1967 71.1893 97.1126 71.2593 98.6748L72.2583 98.63ZM86.7212 161.809C77.1156 142.277 73.2313 120.322 72.2583 98.63L71.2593 98.6748C72.2359 120.447 76.1362 142.552 85.8239 162.25L86.7212 161.809ZM136.893 217.974C116.141 203.519 97.9161 184.572 86.7212 161.809L85.8239 162.25C97.11 185.199 115.465 204.266 136.321 218.795L136.893 217.974ZM139.276 219.353C138.669 219.202 138.144 218.846 136.893 217.974L136.321 218.795C137.512 219.625 138.208 220.118 139.035 220.324L139.276 219.353ZM140.963 219.353C140.432 219.485 139.806 219.485 139.276 219.353L139.035 220.324C139.723 220.495 140.515 220.495 141.204 220.324L140.963 219.353ZM143.346 217.974C142.095 218.846 141.569 219.202 140.963 219.353L141.204 220.324C142.03 220.118 142.726 219.624 143.917 218.795L143.346 217.974ZM193.517 161.809C182.322 184.572 164.098 203.518 143.346 217.974L143.917 218.795C164.774 204.266 183.128 185.199 194.415 162.25L193.517 161.809ZM207.98 98.63C207.007 120.322 203.123 142.277 193.517 161.809L194.415 162.25C204.102 142.552 208.003 120.447 208.979 98.6749L207.98 98.63ZM207.865 95.6892C208.076 96.3003 208.054 96.9871 207.98 98.63L208.979 98.6749C209.049 97.1126 209.099 96.1967 208.81 95.3624L207.865 95.6892ZM206.902 94.2347C207.333 94.6234 207.675 95.1409 207.865 95.6892L208.81 95.3624C208.565 94.6545 208.128 93.994 207.572 93.4923L206.902 94.2347ZM204.188 92.9613C205.765 93.5482 206.422 93.8018 206.902 94.2347L207.572 93.4923C206.916 92.9006 206.036 92.5819 204.537 92.0241L204.188 92.9613ZM174.899 81.105C184.455 85.6084 194.327 89.2909 204.188 92.9613L204.537 92.0241C194.67 88.3515 184.837 84.683 175.325 80.2005L174.899 81.105ZM146.346 65.7092C155.71 71.0926 165.066 76.4709 174.899 81.105L175.325 80.2005C165.535 75.5866 156.214 70.2289 146.844 64.8423L146.346 65.7092ZM143.033 63.8065C144.138 64.4401 145.242 65.0747 146.346 65.7092L146.844 64.8423C145.74 64.2078 144.636 63.573 143.531 62.939L143.033 63.8065ZM140.843 62.7459C141.364 62.8561 141.858 63.133 143.033 63.8065L143.531 62.939C142.413 62.2982 141.761 61.9179 141.05 61.7676L140.843 62.7459ZM139.396 62.7459C139.869 62.6458 140.369 62.6458 140.843 62.7459L141.05 61.7676C140.439 61.6386 139.799 61.6386 139.189 61.7676L139.396 62.7459ZM137.205 63.8065C138.38 63.133 138.875 62.8561 139.396 62.7459L139.189 61.7676C138.478 61.9179 137.826 62.2982 136.708 62.939L137.205 63.8065ZM133.893 65.7091C134.997 65.0747 136.1 64.4401 137.205 63.8065L136.708 62.939C135.602 63.5729 134.498 64.2078 133.395 64.8422L133.893 65.7091Z" fill="url(#paint6_linear_45_5019)" mask="url(#path-11-inside-1_45_5019)"/>
</g>
</g>
</g>
<g filter="url(#filter2_d_45_5019)">
<path d="M176.986 117.179L141.59 136.498C140.514 137.085 139.214 137.085 138.138 136.498L108.379 120.255V135.651C108.379 137.642 106.812 139.257 104.879 139.257C102.946 139.257 101.379 137.642 101.379 135.651V115.882C100.38 114.224 100.835 111.888 102.742 110.847L138.138 91.5273C139.214 90.9401 140.514 90.9401 141.59 91.5273L176.986 110.847C179.49 112.214 179.49 115.812 176.986 117.179Z" fill="white"/>
<path d="M165.993 149.542C165.993 151.404 164.87 153.235 163.199 154.072L142.278 164.539C140.82 165.268 138.913 165.271 137.451 164.539L116.529 154.072C114.863 153.238 113.736 151.407 113.736 149.542V133.315C113.736 131.798 115.358 130.834 116.69 131.558L136.045 142.071C138.033 143.151 141.694 143.152 143.684 142.071L163.038 131.558C164.371 130.834 165.993 131.798 165.993 133.315V149.542Z" fill="white"/>
<path d="M162.919 131.338C164.418 130.523 166.243 131.609 166.243 133.315V149.542C166.243 151.498 165.067 153.416 163.311 154.295L142.39 164.763C140.862 165.527 138.871 165.529 137.339 164.763L116.418 154.295C114.667 153.419 113.485 151.501 113.485 149.542V133.315C113.485 131.609 115.31 130.523 116.81 131.338L136.164 141.852C137.109 142.365 138.477 142.632 139.864 142.632C141.252 142.632 142.619 142.365 143.564 141.852L162.919 131.338ZM138.019 91.3076C139.169 90.6797 140.56 90.6797 141.71 91.3076L177.105 110.627C179.783 112.089 179.783 115.937 177.105 117.398L141.71 136.718C140.56 137.346 139.169 137.346 138.019 136.718L108.629 120.676V135.65C108.629 137.773 106.957 139.507 104.879 139.507C102.801 139.507 101.129 137.773 101.129 135.65V115.948C100.111 114.182 100.605 111.728 102.623 110.627L138.019 91.3076Z" stroke="url(#paint7_linear_45_5019)" stroke-width="0.5" stroke-linecap="round" style="mix-blend-mode:color-burn"/>
</g>
</g>
<g filter="url(#filter3_dd_45_5019)">
<mask id="path-15-inside-2_45_5019" fill="white">
<path fill-rule="evenodd" clip-rule="evenodd" d="M36.0426 185.276C35.8205 186.482 36.476 187.978 37.7871 190.969L43.9369 205L37.7871 219.031C36.476 222.022 35.8205 223.518 36.0426 224.724C36.2368 225.779 36.8461 226.711 37.7339 227.312C38.7497 228 40.3828 228 43.6488 228H60.3715C64.8519 228 67.0921 228 68.8034 227.128C70.3087 226.361 71.5325 225.137 72.2995 223.632C73.1715 221.921 73.1715 219.68 73.1715 215.2V194.8C73.1715 190.32 73.1715 188.079 72.2995 186.368C71.5325 184.863 70.3087 183.639 68.8034 182.872C67.0921 182 64.8519 182 60.3715 182H43.6488C40.3828 182 38.7497 182 37.7339 182.688C36.8461 183.289 36.2368 184.221 36.0426 185.276ZM243.669 185.276C243.891 186.482 243.236 187.978 241.925 190.969L235.775 205L241.925 219.031C243.236 222.022 243.891 223.518 243.669 224.724C243.475 225.779 242.866 226.711 241.978 227.312C240.962 228 239.329 228 236.063 228H219.34C214.86 228 212.62 228 210.909 227.128C209.403 226.361 208.179 225.137 207.412 223.632C206.54 221.921 206.54 219.68 206.54 215.2V194.8C206.54 190.32 206.54 188.079 207.412 186.368C208.179 184.863 209.403 183.639 210.909 182.872C212.62 182 214.86 182 219.34 182H236.063C239.329 182 240.962 182 241.978 182.688C242.866 183.289 243.475 184.221 243.669 185.276Z"/>
</mask>
<path fill-rule="evenodd" clip-rule="evenodd" d="M36.0426 185.276C35.8205 186.482 36.476 187.978 37.7871 190.969L43.9369 205L37.7871 219.031C36.476 222.022 35.8205 223.518 36.0426 224.724C36.2368 225.779 36.8461 226.711 37.7339 227.312C38.7497 228 40.3828 228 43.6488 228H60.3715C64.8519 228 67.0921 228 68.8034 227.128C70.3087 226.361 71.5325 225.137 72.2995 223.632C73.1715 221.921 73.1715 219.68 73.1715 215.2V194.8C73.1715 190.32 73.1715 188.079 72.2995 186.368C71.5325 184.863 70.3087 183.639 68.8034 182.872C67.0921 182 64.8519 182 60.3715 182H43.6488C40.3828 182 38.7497 182 37.7339 182.688C36.8461 183.289 36.2368 184.221 36.0426 185.276ZM243.669 185.276C243.891 186.482 243.236 187.978 241.925 190.969L235.775 205L241.925 219.031C243.236 222.022 243.891 223.518 243.669 224.724C243.475 225.779 242.866 226.711 241.978 227.312C240.962 228 239.329 228 236.063 228H219.34C214.86 228 212.62 228 210.909 227.128C209.403 226.361 208.179 225.137 207.412 223.632C206.54 221.921 206.54 219.68 206.54 215.2V194.8C206.54 190.32 206.54 188.079 207.412 186.368C208.179 184.863 209.403 183.639 210.909 182.872C212.62 182 214.86 182 219.34 182H236.063C239.329 182 240.962 182 241.978 182.688C242.866 183.289 243.475 184.221 243.669 185.276Z" fill="#FFA00F"/>
<path d="M37.7871 190.969L37.3292 191.17L37.7871 190.969ZM36.0426 185.276L35.5509 185.185L36.0426 185.276ZM43.9369 205L44.3948 205.201L44.4828 205L44.3948 204.799L43.9369 205ZM37.7871 219.031L38.2451 219.232L37.7871 219.031ZM36.0426 224.724L36.5344 224.634L36.0426 224.724ZM37.7339 227.312L37.4536 227.726H37.4536L37.7339 227.312ZM68.8034 227.128L69.0304 227.574L68.8034 227.128ZM72.2995 223.632L71.854 223.405V223.405L72.2995 223.632ZM72.2995 186.368L71.854 186.595L72.2995 186.368ZM68.8034 182.872L69.0304 182.426V182.426L68.8034 182.872ZM37.7339 182.688L38.0142 183.102L37.7339 182.688ZM241.925 190.969L241.467 190.768V190.768L241.925 190.969ZM243.669 185.276L243.178 185.366V185.366L243.669 185.276ZM235.775 205L235.317 204.799L235.229 205L235.317 205.201L235.775 205ZM241.925 219.031L241.467 219.232L241.925 219.031ZM243.669 224.724L243.178 224.634V224.634L243.669 224.724ZM241.978 227.312L242.258 227.726L241.978 227.312ZM210.909 227.128L211.135 226.683L210.909 227.128ZM207.412 223.632L207.858 223.405V223.405L207.412 223.632ZM207.412 186.368L207.858 186.595V186.595L207.412 186.368ZM210.909 182.872L211.135 183.317V183.317L210.909 182.872ZM241.978 182.688L242.258 182.274V182.274L241.978 182.688ZM38.2451 190.768C37.5857 189.264 37.1053 188.167 36.8142 187.295C36.5233 186.423 36.4462 185.845 36.5344 185.366L35.5509 185.185C35.4169 185.913 35.5565 186.686 35.8657 187.611C36.1746 188.537 36.6775 189.683 37.3292 191.17L38.2451 190.768ZM44.3948 204.799L38.2451 190.768L37.3292 191.17L43.4789 205.201L44.3948 204.799ZM38.2451 219.232L44.3948 205.201L43.4789 204.799L37.3292 218.83L38.2451 219.232ZM36.5344 224.634C36.4462 224.155 36.5233 223.577 36.8142 222.705C37.1053 221.833 37.5857 220.736 38.2451 219.232L37.3292 218.83C36.6775 220.317 36.1746 221.463 35.8657 222.389C35.5565 223.314 35.4169 224.087 35.5509 224.815L36.5344 224.634ZM38.0142 226.898C37.2374 226.372 36.7042 225.556 36.5344 224.634L35.5509 224.815C35.7693 226.001 36.4548 227.05 37.4536 227.726L38.0142 226.898ZM43.6488 227.5C42.0062 227.5 40.8084 227.5 39.8929 227.416C38.9781 227.333 38.4173 227.171 38.0142 226.898L37.4536 227.726C38.0664 228.141 38.83 228.323 39.8022 228.412C40.7737 228.5 42.0254 228.5 43.6488 228.5V227.5ZM60.3715 227.5H43.6488V228.5H60.3715V227.5ZM68.5764 226.683C67.803 227.077 66.8882 227.286 65.5851 227.393C64.2762 227.5 62.6199 227.5 60.3715 227.5V228.5C62.6034 228.5 64.3075 228.5 65.6666 228.389C67.0315 228.278 68.0925 228.051 69.0304 227.574L68.5764 226.683ZM71.854 223.405C71.135 224.816 69.9876 225.963 68.5764 226.683L69.0304 227.574C70.6298 226.759 71.9301 225.458 72.745 223.859L71.854 223.405ZM72.6715 215.2C72.6715 217.448 72.6711 219.105 72.5641 220.414C72.4577 221.717 72.2481 222.632 71.854 223.405L72.745 223.859C73.2229 222.921 73.4493 221.86 73.5608 220.495C73.6719 219.136 73.6715 217.432 73.6715 215.2H72.6715ZM72.6715 194.8V215.2H73.6715V194.8H72.6715ZM71.854 186.595C72.2481 187.368 72.4577 188.283 72.5641 189.586C72.6711 190.895 72.6715 192.552 72.6715 194.8H73.6715C73.6715 192.568 73.6719 190.864 73.5608 189.505C73.4493 188.14 73.2229 187.079 72.745 186.141L71.854 186.595ZM68.5764 183.317C69.9876 184.037 71.135 185.184 71.854 186.595L72.745 186.141C71.9301 184.542 70.6298 183.241 69.0304 182.426L68.5764 183.317ZM60.3715 182.5C62.6199 182.5 64.2762 182.5 65.5852 182.607C66.8882 182.714 67.803 182.923 68.5764 183.317L69.0304 182.426C68.0925 181.949 67.0315 181.722 65.6666 181.611C64.3075 181.5 62.6034 181.5 60.3715 181.5V182.5ZM43.6488 182.5H60.3715V181.5H43.6488V182.5ZM38.0142 183.102C38.4173 182.829 38.9781 182.667 39.8929 182.584C40.8084 182.5 42.0062 182.5 43.6488 182.5V181.5C42.0255 181.5 40.7737 181.5 39.8022 181.588C38.83 181.677 38.0664 181.859 37.4536 182.274L38.0142 183.102ZM36.5344 185.366C36.7042 184.444 37.2374 183.628 38.0142 183.102L37.4536 182.274C36.4548 182.95 35.7693 183.999 35.5509 185.185L36.5344 185.366ZM242.383 191.17C243.034 189.683 243.537 188.537 243.846 187.611C244.155 186.686 244.295 185.913 244.161 185.185L243.178 185.366C243.266 185.845 243.189 186.423 242.898 187.295C242.607 188.167 242.126 189.264 241.467 190.768L242.383 191.17ZM236.233 205.201L242.383 191.17L241.467 190.768L235.317 204.799L236.233 205.201ZM242.383 218.83L236.233 204.799L235.317 205.201L241.467 219.232L242.383 218.83ZM244.161 224.815C244.295 224.087 244.155 223.314 243.846 222.389C243.537 221.463 243.034 220.317 242.383 218.83L241.467 219.232C242.126 220.736 242.607 221.833 242.898 222.705C243.189 223.577 243.266 224.155 243.178 224.634L244.161 224.815ZM242.258 227.726C243.257 227.05 243.943 226.001 244.161 224.815L243.178 224.634C243.008 225.556 242.475 226.372 241.698 226.898L242.258 227.726ZM236.063 228.5C237.686 228.5 238.938 228.5 239.91 228.412C240.882 228.323 241.645 228.141 242.258 227.726L241.698 226.898C241.295 227.171 240.734 227.333 239.819 227.416C238.904 227.5 237.706 227.5 236.063 227.5V228.5ZM219.34 228.5H236.063V227.5H219.34V228.5ZM210.682 227.574C211.619 228.051 212.68 228.278 214.045 228.389C215.404 228.5 217.108 228.5 219.34 228.5V227.5C217.092 227.5 215.436 227.5 214.127 227.393C212.824 227.286 211.909 227.077 211.135 226.683L210.682 227.574ZM206.967 223.859C207.782 225.458 209.082 226.759 210.682 227.574L211.135 226.683C209.724 225.963 208.577 224.816 207.858 223.405L206.967 223.859ZM206.04 215.2C206.04 217.432 206.04 219.136 206.151 220.495C206.263 221.86 206.489 222.921 206.967 223.859L207.858 223.405C207.464 222.632 207.254 221.717 207.148 220.414C207.041 219.105 207.04 217.448 207.04 215.2H206.04ZM206.04 194.8V215.2H207.04V194.8H206.04ZM206.967 186.141C206.489 187.079 206.263 188.14 206.151 189.505C206.04 190.864 206.04 192.568 206.04 194.8H207.04C207.04 192.552 207.041 190.895 207.148 189.586C207.254 188.283 207.464 187.368 207.858 186.595L206.967 186.141ZM210.682 182.426C209.082 183.241 207.782 184.542 206.967 186.141L207.858 186.595C208.577 185.184 209.724 184.037 211.135 183.317L210.682 182.426ZM219.34 181.5C217.108 181.5 215.404 181.5 214.045 181.611C212.68 181.722 211.619 181.949 210.682 182.426L211.135 183.317C211.909 182.923 212.824 182.714 214.127 182.607C215.436 182.5 217.092 182.5 219.34 182.5V181.5ZM236.063 181.5H219.34V182.5H236.063V181.5ZM242.258 182.274C241.645 181.859 240.882 181.677 239.91 181.588C238.938 181.5 237.686 181.5 236.063 181.5V182.5C237.706 182.5 238.904 182.5 239.819 182.584C240.734 182.667 241.295 182.829 241.698 183.102L242.258 182.274ZM244.161 185.185C243.943 183.999 243.257 182.95 242.258 182.274L241.698 183.102C242.475 183.628 243.008 184.444 243.178 185.366L244.161 185.185Z" fill="url(#paint8_linear_45_5019)" style="mix-blend-mode:darken" mask="url(#path-15-inside-2_45_5019)"/>
</g>
<path fill-rule="evenodd" clip-rule="evenodd" d="M36.0426 185.276C35.8205 186.482 36.476 187.978 37.7871 190.969L43.9369 205L37.7871 219.031C36.476 222.022 35.8205 223.518 36.0426 224.724C36.2368 225.779 36.8461 226.711 37.7339 227.312C38.7497 228 40.3828 228 43.6488 228H60.3715C64.8519 228 67.0921 228 68.8034 227.128C70.3087 226.361 71.5325 225.137 72.2995 223.632C73.1715 221.921 73.1715 219.68 73.1715 215.2V194.8C73.1715 190.32 73.1715 188.079 72.2995 186.368C71.5325 184.863 70.3087 183.639 68.8034 182.872C67.0921 182 64.8519 182 60.3715 182H43.6488C40.3828 182 38.7497 182 37.7339 182.688C36.8461 183.289 36.2368 184.221 36.0426 185.276ZM243.669 185.276C243.891 186.482 243.236 187.978 241.925 190.969L235.775 205L241.925 219.031C243.236 222.022 243.891 223.518 243.669 224.724C243.475 225.779 242.866 226.711 241.978 227.312C240.962 228 239.329 228 236.063 228H219.34C214.86 228 212.62 228 210.909 227.128C209.403 226.361 208.179 225.137 207.412 223.632C206.54 221.921 206.54 219.68 206.54 215.2V194.8C206.54 190.32 206.54 188.079 207.412 186.368C208.179 184.863 209.403 183.639 210.909 182.872C212.62 182 214.86 182 219.34 182H236.063C239.329 182 240.962 182 241.978 182.688C242.866 183.289 243.475 184.221 243.669 185.276Z" fill="url(#paint9_linear_45_5019)" fill-opacity="0.3" style="mix-blend-mode:overlay"/>
<path fill-rule="evenodd" clip-rule="evenodd" d="M36.0426 185.276C35.8205 186.482 36.476 187.978 37.7871 190.969L43.9369 205L37.7871 219.031C36.476 222.022 35.8205 223.518 36.0426 224.724C36.2368 225.779 36.8461 226.711 37.7339 227.312C38.7497 228 40.3828 228 43.6488 228H60.3715C64.8519 228 67.0921 228 68.8034 227.128C70.3087 226.361 71.5325 225.137 72.2995 223.632C73.1715 221.921 73.1715 219.68 73.1715 215.2V194.8C73.1715 190.32 73.1715 188.079 72.2995 186.368C71.5325 184.863 70.3087 183.639 68.8034 182.872C67.0921 182 64.8519 182 60.3715 182H43.6488C40.3828 182 38.7497 182 37.7339 182.688C36.8461 183.289 36.2368 184.221 36.0426 185.276ZM243.669 185.276C243.891 186.482 243.236 187.978 241.925 190.969L235.775 205L241.925 219.031C243.236 222.022 243.891 223.518 243.669 224.724C243.475 225.779 242.866 226.711 241.978 227.312C240.962 228 239.329 228 236.063 228H219.34C214.86 228 212.62 228 210.909 227.128C209.403 226.361 208.179 225.137 207.412 223.632C206.54 221.921 206.54 219.68 206.54 215.2V194.8C206.54 190.32 206.54 188.079 207.412 186.368C208.179 184.863 209.403 183.639 210.909 182.872C212.62 182 214.86 182 219.34 182H236.063C239.329 182 240.962 182 241.978 182.688C242.866 183.289 243.475 184.221 243.669 185.276Z" fill="url(#paint10_radial_45_5019)" fill-opacity="0.6" style="mix-blend-mode:overlay"/>
<path fill-rule="evenodd" clip-rule="evenodd" d="M36.0426 185.276C35.8205 186.482 36.476 187.978 37.7871 190.969L43.9369 205L37.7871 219.031C36.476 222.022 35.8205 223.518 36.0426 224.724C36.2368 225.779 36.8461 226.711 37.7339 227.312C38.7497 228 40.3828 228 43.6488 228H60.3715C64.8519 228 67.0921 228 68.8034 227.128C70.3087 226.361 71.5325 225.137 72.2995 223.632C73.1715 221.921 73.1715 219.68 73.1715 215.2V194.8C73.1715 190.32 73.1715 188.079 72.2995 186.368C71.5325 184.863 70.3087 183.639 68.8034 182.872C67.0921 182 64.8519 182 60.3715 182H43.6488C40.3828 182 38.7497 182 37.7339 182.688C36.8461 183.289 36.2368 184.221 36.0426 185.276ZM243.669 185.276C243.891 186.482 243.236 187.978 241.925 190.969L235.775 205L241.925 219.031C243.236 222.022 243.891 223.518 243.669 224.724C243.475 225.779 242.866 226.711 241.978 227.312C240.962 228 239.329 228 236.063 228H219.34C214.86 228 212.62 228 210.909 227.128C209.403 226.361 208.179 225.137 207.412 223.632C206.54 221.921 206.54 219.68 206.54 215.2V194.8C206.54 190.32 206.54 188.079 207.412 186.368C208.179 184.863 209.403 183.639 210.909 182.872C212.62 182 214.86 182 219.34 182H236.063C239.329 182 240.962 182 241.978 182.688C242.866 183.289 243.475 184.221 243.669 185.276Z" fill="black" fill-opacity="0.24" style="mix-blend-mode:overlay"/>
<path fill-rule="evenodd" clip-rule="evenodd" d="M36.0426 185.276C35.8205 186.482 36.476 187.978 37.7871 190.969L43.9369 205L37.7871 219.031C36.476 222.022 35.8205 223.518 36.0426 224.724C36.2368 225.779 36.8461 226.711 37.7339 227.312C38.7497 228 40.3828 228 43.6488 228H60.3715C64.8519 228 67.0921 228 68.8034 227.128C70.3087 226.361 71.5325 225.137 72.2995 223.632C73.1715 221.921 73.1715 219.68 73.1715 215.2V194.8C73.1715 190.32 73.1715 188.079 72.2995 186.368C71.5325 184.863 70.3087 183.639 68.8034 182.872C67.0921 182 64.8519 182 60.3715 182H43.6488C40.3828 182 38.7497 182 37.7339 182.688C36.8461 183.289 36.2368 184.221 36.0426 185.276ZM243.669 185.276C243.891 186.482 243.236 187.978 241.925 190.969L235.775 205L241.925 219.031C243.236 222.022 243.891 223.518 243.669 224.724C243.475 225.779 242.866 226.711 241.978 227.312C240.962 228 239.329 228 236.063 228H219.34C214.86 228 212.62 228 210.909 227.128C209.403 226.361 208.179 225.137 207.412 223.632C206.54 221.921 206.54 219.68 206.54 215.2V194.8C206.54 190.32 206.54 188.079 207.412 186.368C208.179 184.863 209.403 183.639 210.909 182.872C212.62 182 214.86 182 219.34 182H236.063C239.329 182 240.962 182 241.978 182.688C242.866 183.289 243.475 184.221 243.669 185.276Z" fill="black" fill-opacity="0.12" style="mix-blend-mode:darken"/>
<g filter="url(#filter4_dd_45_5019)">
<rect x="51.856" y="170" width="176" height="46" rx="8" fill="#FFA00F"/>
<rect x="52.106" y="170.25" width="175.5" height="45.5" rx="7.75" stroke="url(#paint11_linear_45_5019)" stroke-width="0.5" stroke-linecap="round" style="mix-blend-mode:darken"/>
</g>
<rect x="51.856" y="170" width="176" height="46" rx="8" fill="url(#paint12_linear_45_5019)" fill-opacity="0.3" style="mix-blend-mode:overlay"/>
<rect x="51.856" y="170" width="176" height="46" rx="8" fill="url(#paint13_radial_45_5019)" fill-opacity="0.6" style="mix-blend-mode:overlay"/>
<g filter="url(#filter5_i_45_5019)">
<circle cx="62.856" cy="193" r="3" fill="black" fill-opacity="0.24" style="mix-blend-mode:color-burn"/>
<circle cx="62.856" cy="193" r="3" fill="black" fill-opacity="0.32" style="mix-blend-mode:darken"/>
</g>
<g filter="url(#filter6_i_45_5019)">
<circle cx="216.856" cy="193" r="3" fill="black" fill-opacity="0.24" style="mix-blend-mode:color-burn"/>
<circle cx="216.856" cy="193" r="3" fill="black" fill-opacity="0.32" style="mix-blend-mode:darken"/>
</g>
<g filter="url(#filter7_i_45_5019)">
<path d="M97.9715 197.432C98.8355 197.432 99.4515 197.28 99.8195 196.976C100.203 196.656 100.395 196.28 100.395 195.848C100.395 195.448 100.243 195.128 99.9395 194.888C99.6515 194.632 99.2195 194.416 98.6435 194.24L97.3715 193.832C96.5075 193.544 95.7395 193.224 95.0675 192.872C94.4115 192.52 93.8995 192.064 93.5315 191.504C93.1795 190.944 93.0035 190.232 93.0035 189.368C93.0035 188.04 93.5075 186.984 94.5155 186.2C95.5235 185.416 96.9235 185.024 98.7155 185.024C99.6275 185.024 100.435 185.112 101.139 185.288C101.859 185.464 102.419 185.728 102.819 186.08C103.235 186.416 103.443 186.832 103.443 187.328C103.443 187.696 103.355 188.016 103.179 188.288C103.019 188.544 102.811 188.768 102.555 188.96C102.187 188.704 101.699 188.488 101.091 188.312C100.483 188.12 99.8115 188.024 99.0755 188.024C98.3075 188.024 97.7315 188.152 97.3475 188.408C96.9635 188.648 96.7715 188.968 96.7715 189.368C96.7715 189.688 96.8995 189.952 97.1555 190.16C97.4115 190.352 97.7955 190.528 98.3075 190.688L99.6275 191.096C101.083 191.544 102.203 192.144 102.987 192.896C103.771 193.632 104.163 194.624 104.163 195.872C104.163 197.216 103.643 198.312 102.603 199.16C101.563 199.992 100.059 200.408 98.0915 200.408C97.1155 200.408 96.2435 200.304 95.4755 200.096C94.7075 199.888 94.0915 199.584 93.6275 199.184C93.1795 198.784 92.9555 198.32 92.9555 197.792C92.9555 197.376 93.0755 197.024 93.3155 196.736C93.5715 196.432 93.8515 196.208 94.1555 196.064C94.5875 196.416 95.1235 196.736 95.7635 197.024C96.4195 197.296 97.1555 197.432 97.9715 197.432ZM117.071 187.424C117.071 187.792 116.975 188.112 116.783 188.384C116.591 188.656 116.375 188.872 116.135 189.032C115.735 188.76 115.279 188.52 114.767 188.312C114.271 188.104 113.679 188 112.991 188C112.143 188 111.407 188.184 110.783 188.552C110.159 188.92 109.679 189.456 109.343 190.16C109.023 190.864 108.863 191.72 108.863 192.728C108.863 194.264 109.247 195.432 110.015 196.232C110.783 197.032 111.839 197.432 113.183 197.432C113.871 197.432 114.463 197.336 114.959 197.144C115.455 196.952 115.911 196.736 116.327 196.496C116.567 196.672 116.759 196.904 116.903 197.192C117.063 197.464 117.143 197.784 117.143 198.152C117.143 198.472 117.055 198.768 116.879 199.04C116.719 199.312 116.439 199.544 116.039 199.736C115.735 199.896 115.303 200.048 114.743 200.192C114.183 200.336 113.503 200.408 112.703 200.408C111.295 200.408 110.007 200.136 108.839 199.592C107.687 199.032 106.775 198.192 106.103 197.072C105.431 195.936 105.095 194.488 105.095 192.728C105.095 191.064 105.423 189.664 106.079 188.528C106.751 187.376 107.647 186.504 108.767 185.912C109.887 185.32 111.127 185.024 112.487 185.024C113.431 185.024 114.247 185.136 114.935 185.36C115.623 185.568 116.151 185.856 116.519 186.224C116.887 186.576 117.071 186.976 117.071 187.424ZM118.684 189.848H122.332V199.976C122.188 200.024 121.956 200.064 121.636 200.096C121.316 200.144 120.988 200.168 120.652 200.168C119.932 200.168 119.42 200.04 119.116 199.784C118.828 199.528 118.684 199.08 118.684 198.44V189.848ZM122.332 194.456H118.684V185.408C118.844 185.376 119.084 185.336 119.404 185.288C119.74 185.24 120.06 185.216 120.364 185.216C121.068 185.216 121.572 185.336 121.876 185.576C122.18 185.816 122.332 186.272 122.332 186.944V194.456ZM127.636 189.848H131.308V199.976C131.148 200.024 130.908 200.064 130.588 200.096C130.268 200.144 129.94 200.168 129.604 200.168C128.884 200.168 128.372 200.04 128.068 199.784C127.78 199.528 127.636 199.08 127.636 198.44V189.848ZM131.308 194.456H127.636V185.408C127.812 185.376 128.06 185.336 128.38 185.288C128.7 185.24 129.02 185.216 129.34 185.216C130.028 185.216 130.524 185.344 130.828 185.6C131.148 185.84 131.308 186.296 131.308 186.968V194.456ZM129.724 194.144H120.34V191.24H129.724V194.144ZM147.891 192.704C147.891 194.368 147.563 195.776 146.907 196.928C146.267 198.064 145.379 198.928 144.243 199.52C143.123 200.112 141.851 200.408 140.427 200.408C139.003 200.408 137.731 200.112 136.611 199.52C135.491 198.928 134.611 198.064 133.971 196.928C133.331 195.776 133.011 194.368 133.011 192.704C133.011 191.04 133.339 189.64 133.995 188.504C134.651 187.352 135.539 186.488 136.659 185.912C137.779 185.32 139.035 185.024 140.427 185.024C141.835 185.024 143.099 185.32 144.219 185.912C145.355 186.488 146.251 187.352 146.907 188.504C147.563 189.64 147.891 191.04 147.891 192.704ZM144.123 192.704C144.123 191.168 143.787 190 143.115 189.2C142.459 188.4 141.563 188 140.427 188C139.339 188 138.459 188.4 137.787 189.2C137.115 189.984 136.779 191.152 136.779 192.704C136.779 194.272 137.107 195.456 137.763 196.256C138.435 197.04 139.331 197.432 140.451 197.432C141.571 197.432 142.459 197.04 143.115 196.256C143.787 195.456 144.123 194.272 144.123 192.704ZM149.6 189.896H153.248V199.856L151.544 200.048C150.952 200.048 150.48 199.872 150.128 199.52C149.776 199.168 149.6 198.696 149.6 198.104V189.896ZM151.544 200.048V197.072H159.08C159.192 197.232 159.288 197.44 159.368 197.696C159.448 197.936 159.488 198.208 159.488 198.512C159.488 199.024 159.376 199.408 159.152 199.664C158.928 199.92 158.616 200.048 158.216 200.048H151.544ZM153.248 194.456H149.6V185.408C149.76 185.376 150 185.336 150.32 185.288C150.656 185.24 150.976 185.216 151.28 185.216C151.984 185.216 152.488 185.336 152.792 185.576C153.096 185.816 153.248 186.272 153.248 186.944V194.456ZM166.965 188.48H166.821C166.661 188.992 166.469 189.56 166.245 190.184C166.037 190.808 165.821 191.464 165.597 192.152C165.373 192.824 165.157 193.496 164.949 194.168L164.517 196.328C164.421 196.632 164.325 196.952 164.229 197.288C164.149 197.624 164.061 197.952 163.965 198.272C163.869 198.592 163.781 198.896 163.701 199.184C163.621 199.472 163.541 199.744 163.461 200C163.285 200.048 163.085 200.096 162.861 200.144C162.637 200.208 162.373 200.24 162.069 200.24C161.397 200.24 160.885 200.12 160.533 199.88C160.181 199.64 160.005 199.288 160.005 198.824C160.005 198.632 160.029 198.432 160.077 198.224C160.141 198.016 160.213 197.776 160.293 197.504C160.437 196.976 160.637 196.312 160.893 195.512C161.165 194.712 161.453 193.848 161.757 192.92C162.077 191.976 162.397 191.048 162.717 190.136C163.053 189.224 163.357 188.384 163.629 187.616C163.917 186.848 164.149 186.248 164.325 185.816C164.549 185.672 164.901 185.544 165.381 185.432C165.877 185.304 166.365 185.24 166.845 185.24C167.533 185.24 168.149 185.344 168.693 185.552C169.237 185.744 169.581 186.056 169.725 186.488C170.029 187.336 170.357 188.32 170.709 189.44C171.077 190.544 171.445 191.704 171.813 192.92C172.181 194.136 172.533 195.32 172.869 196.472C173.221 197.608 173.525 198.632 173.781 199.544C173.605 199.736 173.349 199.896 173.013 200.024C172.677 200.168 172.277 200.24 171.813 200.24C171.157 200.24 170.693 200.12 170.421 199.88C170.149 199.64 169.941 199.28 169.797 198.8L169.029 196.112L168.621 194.072C168.429 193.352 168.229 192.656 168.021 191.984C167.813 191.312 167.621 190.68 167.445 190.088C167.269 189.48 167.109 188.944 166.965 188.48ZM162.909 196.76L164.325 193.928H169.941L170.421 196.76H162.909ZM178.632 192.272H180.192C180.992 192.272 181.632 192.096 182.112 191.744C182.608 191.376 182.856 190.84 182.856 190.136C182.856 189.448 182.624 188.928 182.16 188.576C181.696 188.208 180.984 188.024 180.024 188.024C179.752 188.024 179.504 188.032 179.28 188.048C179.056 188.064 178.84 188.096 178.632 188.144V192.272ZM180.528 195.104H175.008V186.728C175.008 186.424 175.096 186.184 175.272 186.008C175.448 185.832 175.68 185.696 175.968 185.6C176.496 185.408 177.112 185.272 177.816 185.192C178.536 185.112 179.28 185.072 180.048 185.072C182.208 185.072 183.832 185.528 184.92 186.44C186.008 187.336 186.552 188.56 186.552 190.112C186.552 191.072 186.288 191.936 185.76 192.704C185.248 193.456 184.536 194.048 183.624 194.48C182.728 194.896 181.696 195.104 180.528 195.104ZM179.856 194.24L183.12 193.472C183.488 193.984 183.864 194.488 184.248 194.984C184.648 195.48 185.024 195.96 185.376 196.424C185.744 196.888 186.072 197.32 186.36 197.72C186.648 198.104 186.88 198.432 187.056 198.704C186.912 199.184 186.656 199.56 186.288 199.832C185.92 200.088 185.504 200.216 185.04 200.216C184.448 200.216 183.992 200.088 183.672 199.832C183.368 199.56 183.08 199.208 182.808 198.776L179.856 194.24ZM175.008 193.736H178.656V199.976C178.512 200.024 178.28 200.064 177.96 200.096C177.64 200.144 177.312 200.168 176.976 200.168C176.256 200.168 175.744 200.04 175.44 199.784C175.152 199.528 175.008 199.08 175.008 198.44V193.736Z" fill="black" fill-opacity="0.24" style="mix-blend-mode:color-burn"/>
<path d="M97.9715 197.432C98.8355 197.432 99.4515 197.28 99.8195 196.976C100.203 196.656 100.395 196.28 100.395 195.848C100.395 195.448 100.243 195.128 99.9395 194.888C99.6515 194.632 99.2195 194.416 98.6435 194.24L97.3715 193.832C96.5075 193.544 95.7395 193.224 95.0675 192.872C94.4115 192.52 93.8995 192.064 93.5315 191.504C93.1795 190.944 93.0035 190.232 93.0035 189.368C93.0035 188.04 93.5075 186.984 94.5155 186.2C95.5235 185.416 96.9235 185.024 98.7155 185.024C99.6275 185.024 100.435 185.112 101.139 185.288C101.859 185.464 102.419 185.728 102.819 186.08C103.235 186.416 103.443 186.832 103.443 187.328C103.443 187.696 103.355 188.016 103.179 188.288C103.019 188.544 102.811 188.768 102.555 188.96C102.187 188.704 101.699 188.488 101.091 188.312C100.483 188.12 99.8115 188.024 99.0755 188.024C98.3075 188.024 97.7315 188.152 97.3475 188.408C96.9635 188.648 96.7715 188.968 96.7715 189.368C96.7715 189.688 96.8995 189.952 97.1555 190.16C97.4115 190.352 97.7955 190.528 98.3075 190.688L99.6275 191.096C101.083 191.544 102.203 192.144 102.987 192.896C103.771 193.632 104.163 194.624 104.163 195.872C104.163 197.216 103.643 198.312 102.603 199.16C101.563 199.992 100.059 200.408 98.0915 200.408C97.1155 200.408 96.2435 200.304 95.4755 200.096C94.7075 199.888 94.0915 199.584 93.6275 199.184C93.1795 198.784 92.9555 198.32 92.9555 197.792C92.9555 197.376 93.0755 197.024 93.3155 196.736C93.5715 196.432 93.8515 196.208 94.1555 196.064C94.5875 196.416 95.1235 196.736 95.7635 197.024C96.4195 197.296 97.1555 197.432 97.9715 197.432ZM117.071 187.424C117.071 187.792 116.975 188.112 116.783 188.384C116.591 188.656 116.375 188.872 116.135 189.032C115.735 188.76 115.279 188.52 114.767 188.312C114.271 188.104 113.679 188 112.991 188C112.143 188 111.407 188.184 110.783 188.552C110.159 188.92 109.679 189.456 109.343 190.16C109.023 190.864 108.863 191.72 108.863 192.728C108.863 194.264 109.247 195.432 110.015 196.232C110.783 197.032 111.839 197.432 113.183 197.432C113.871 197.432 114.463 197.336 114.959 197.144C115.455 196.952 115.911 196.736 116.327 196.496C116.567 196.672 116.759 196.904 116.903 197.192C117.063 197.464 117.143 197.784 117.143 198.152C117.143 198.472 117.055 198.768 116.879 199.04C116.719 199.312 116.439 199.544 116.039 199.736C115.735 199.896 115.303 200.048 114.743 200.192C114.183 200.336 113.503 200.408 112.703 200.408C111.295 200.408 110.007 200.136 108.839 199.592C107.687 199.032 106.775 198.192 106.103 197.072C105.431 195.936 105.095 194.488 105.095 192.728C105.095 191.064 105.423 189.664 106.079 188.528C106.751 187.376 107.647 186.504 108.767 185.912C109.887 185.32 111.127 185.024 112.487 185.024C113.431 185.024 114.247 185.136 114.935 185.36C115.623 185.568 116.151 185.856 116.519 186.224C116.887 186.576 117.071 186.976 117.071 187.424ZM118.684 189.848H122.332V199.976C122.188 200.024 121.956 200.064 121.636 200.096C121.316 200.144 120.988 200.168 120.652 200.168C119.932 200.168 119.42 200.04 119.116 199.784C118.828 199.528 118.684 199.08 118.684 198.44V189.848ZM122.332 194.456H118.684V185.408C118.844 185.376 119.084 185.336 119.404 185.288C119.74 185.24 120.06 185.216 120.364 185.216C121.068 185.216 121.572 185.336 121.876 185.576C122.18 185.816 122.332 186.272 122.332 186.944V194.456ZM127.636 189.848H131.308V199.976C131.148 200.024 130.908 200.064 130.588 200.096C130.268 200.144 129.94 200.168 129.604 200.168C128.884 200.168 128.372 200.04 128.068 199.784C127.78 199.528 127.636 199.08 127.636 198.44V189.848ZM131.308 194.456H127.636V185.408C127.812 185.376 128.06 185.336 128.38 185.288C128.7 185.24 129.02 185.216 129.34 185.216C130.028 185.216 130.524 185.344 130.828 185.6C131.148 185.84 131.308 186.296 131.308 186.968V194.456ZM129.724 194.144H120.34V191.24H129.724V194.144ZM147.891 192.704C147.891 194.368 147.563 195.776 146.907 196.928C146.267 198.064 145.379 198.928 144.243 199.52C143.123 200.112 141.851 200.408 140.427 200.408C139.003 200.408 137.731 200.112 136.611 199.52C135.491 198.928 134.611 198.064 133.971 196.928C133.331 195.776 133.011 194.368 133.011 192.704C133.011 191.04 133.339 189.64 133.995 188.504C134.651 187.352 135.539 186.488 136.659 185.912C137.779 185.32 139.035 185.024 140.427 185.024C141.835 185.024 143.099 185.32 144.219 185.912C145.355 186.488 146.251 187.352 146.907 188.504C147.563 189.64 147.891 191.04 147.891 192.704ZM144.123 192.704C144.123 191.168 143.787 190 143.115 189.2C142.459 188.4 141.563 188 140.427 188C139.339 188 138.459 188.4 137.787 189.2C137.115 189.984 136.779 191.152 136.779 192.704C136.779 194.272 137.107 195.456 137.763 196.256C138.435 197.04 139.331 197.432 140.451 197.432C141.571 197.432 142.459 197.04 143.115 196.256C143.787 195.456 144.123 194.272 144.123 192.704ZM149.6 189.896H153.248V199.856L151.544 200.048C150.952 200.048 150.48 199.872 150.128 199.52C149.776 199.168 149.6 198.696 149.6 198.104V189.896ZM151.544 200.048V197.072H159.08C159.192 197.232 159.288 197.44 159.368 197.696C159.448 197.936 159.488 198.208 159.488 198.512C159.488 199.024 159.376 199.408 159.152 199.664C158.928 199.92 158.616 200.048 158.216 200.048H151.544ZM153.248 194.456H149.6V185.408C149.76 185.376 150 185.336 150.32 185.288C150.656 185.24 150.976 185.216 151.28 185.216C151.984 185.216 152.488 185.336 152.792 185.576C153.096 185.816 153.248 186.272 153.248 186.944V194.456ZM166.965 188.48H166.821C166.661 188.992 166.469 189.56 166.245 190.184C166.037 190.808 165.821 191.464 165.597 192.152C165.373 192.824 165.157 193.496 164.949 194.168L164.517 196.328C164.421 196.632 164.325 196.952 164.229 197.288C164.149 197.624 164.061 197.952 163.965 198.272C163.869 198.592 163.781 198.896 163.701 199.184C163.621 199.472 163.541 199.744 163.461 200C163.285 200.048 163.085 200.096 162.861 200.144C162.637 200.208 162.373 200.24 162.069 200.24C161.397 200.24 160.885 200.12 160.533 199.88C160.181 199.64 160.005 199.288 160.005 198.824C160.005 198.632 160.029 198.432 160.077 198.224C160.141 198.016 160.213 197.776 160.293 197.504C160.437 196.976 160.637 196.312 160.893 195.512C161.165 194.712 161.453 193.848 161.757 192.92C162.077 191.976 162.397 191.048 162.717 190.136C163.053 189.224 163.357 188.384 163.629 187.616C163.917 186.848 164.149 186.248 164.325 185.816C164.549 185.672 164.901 185.544 165.381 185.432C165.877 185.304 166.365 185.24 166.845 185.24C167.533 185.24 168.149 185.344 168.693 185.552C169.237 185.744 169.581 186.056 169.725 186.488C170.029 187.336 170.357 188.32 170.709 189.44C171.077 190.544 171.445 191.704 171.813 192.92C172.181 194.136 172.533 195.32 172.869 196.472C173.221 197.608 173.525 198.632 173.781 199.544C173.605 199.736 173.349 199.896 173.013 200.024C172.677 200.168 172.277 200.24 171.813 200.24C171.157 200.24 170.693 200.12 170.421 199.88C170.149 199.64 169.941 199.28 169.797 198.8L169.029 196.112L168.621 194.072C168.429 193.352 168.229 192.656 168.021 191.984C167.813 191.312 167.621 190.68 167.445 190.088C167.269 189.48 167.109 188.944 166.965 188.48ZM162.909 196.76L164.325 193.928H169.941L170.421 196.76H162.909ZM178.632 192.272H180.192C180.992 192.272 181.632 192.096 182.112 191.744C182.608 191.376 182.856 190.84 182.856 190.136C182.856 189.448 182.624 188.928 182.16 188.576C181.696 188.208 180.984 188.024 180.024 188.024C179.752 188.024 179.504 188.032 179.28 188.048C179.056 188.064 178.84 188.096 178.632 188.144V192.272ZM180.528 195.104H175.008V186.728C175.008 186.424 175.096 186.184 175.272 186.008C175.448 185.832 175.68 185.696 175.968 185.6C176.496 185.408 177.112 185.272 177.816 185.192C178.536 185.112 179.28 185.072 180.048 185.072C182.208 185.072 183.832 185.528 184.92 186.44C186.008 187.336 186.552 188.56 186.552 190.112C186.552 191.072 186.288 191.936 185.76 192.704C185.248 193.456 184.536 194.048 183.624 194.48C182.728 194.896 181.696 195.104 180.528 195.104ZM179.856 194.24L183.12 193.472C183.488 193.984 183.864 194.488 184.248 194.984C184.648 195.48 185.024 195.96 185.376 196.424C185.744 196.888 186.072 197.32 186.36 197.72C186.648 198.104 186.88 198.432 187.056 198.704C186.912 199.184 186.656 199.56 186.288 199.832C185.92 200.088 185.504 200.216 185.04 200.216C184.448 200.216 183.992 200.088 183.672 199.832C183.368 199.56 183.08 199.208 182.808 198.776L179.856 194.24ZM175.008 193.736H178.656V199.976C178.512 200.024 178.28 200.064 177.96 200.096C177.64 200.144 177.312 200.168 176.976 200.168C176.256 200.168 175.744 200.04 175.44 199.784C175.152 199.528 175.008 199.08 175.008 198.44V193.736Z" fill="black" fill-opacity="0.32" style="mix-blend-mode:darken"/>
</g>
<defs>
<filter id="filter0_dddd_45_5019" x="14.5667" y="30.7944" width="251.105" height="329.661" filterUnits="userSpaceOnUse" color-interpolation-filters="sRGB">
<feFlood flood-opacity="0" result="BackgroundImageFix"/>
<feColorMatrix in="SourceAlpha" type="matrix" values="0 0 0 0 0 0 0 0 0 0 0 0 0 0 0 0 0 0 127 0" result="hardAlpha"/>
<feOffset dy="5"/>
<feGaussianBlur stdDeviation="5.5"/>
<feColorMatrix type="matrix" values="0 0 0 0 0 0 0 0 0 0 0 0 0 0 0 0 0 0 0.24 0"/>
<feBlend mode="normal" in2="BackgroundImageFix" result="effect1_dropShadow_45_5019"/>
<feColorMatrix in="SourceAlpha" type="matrix" values="0 0 0 0 0 0 0 0 0 0 0 0 0 0 0 0 0 0 127 0" result="hardAlpha"/>
<feOffset dy="21"/>
<feGaussianBlur stdDeviation="10.5"/>
<feColorMatrix type="matrix" values="0 0 0 0 0 0 0 0 0 0 0 0 0 0 0 0 0 0 0.21 0"/>
<feBlend mode="normal" in2="effect1_dropShadow_45_5019" result="effect2_dropShadow_45_5019"/>
<feColorMatrix in="SourceAlpha" type="matrix" values="0 0 0 0 0 0 0 0 0 0 0 0 0 0 0 0 0 0 127 0" result="hardAlpha"/>
<feOffset dy="46"/>
<feGaussianBlur stdDeviation="14"/>
<feColorMatrix type="matrix" values="0 0 0 0 0 0 0 0 0 0 0 0 0 0 0 0 0 0 0.12 0"/>
<feBlend mode="normal" in2="effect2_dropShadow_45_5019" result="effect3_dropShadow_45_5019"/>
<feColorMatrix in="SourceAlpha" type="matrix" values="0 0 0 0 0 0 0 0 0 0 0 0 0 0 0 0 0 0 127 0" result="hardAlpha"/>
<feOffset dy="82"/>
<feGaussianBlur stdDeviation="16.5"/>
<feColorMatrix type="matrix" values="0 0 0 0 0 0 0 0 0 0 0 0 0 0 0 0 0 0 0.04 0"/>
<feBlend mode="normal" in2="effect3_dropShadow_45_5019" result="effect4_dropShadow_45_5019"/>
<feBlend mode="normal" in="SourceGraphic" in2="effect4_dropShadow_45_5019" result="shape"/>
</filter>
<filter id="filter1_d_45_5019" x="39.5667" y="30.7944" width="201.105" height="224.661" filterUnits="userSpaceOnUse" color-interpolation-filters="sRGB">
<feFlood flood-opacity="0" result="BackgroundImageFix"/>
<feColorMatrix in="SourceAlpha" type="matrix" values="0 0 0 0 0 0 0 0 0 0 0 0 0 0 0 0 0 0 127 0" result="hardAlpha"/>
<feOffset dy="2"/>
<feGaussianBlur stdDeviation="4"/>
<feColorMatrix type="matrix" values="0 0 0 0 0 0 0 0 0 0 0 0 0 0 0 0 0 0 0.16 0"/>
<feBlend mode="color-burn" in2="BackgroundImageFix" result="effect1_dropShadow_45_5019"/>
<feBlend mode="normal" in="SourceGraphic" in2="effect1_dropShadow_45_5019" result="shape"/>
</filter>
<filter id="filter2_d_45_5019" x="88.365" y="80.5869" width="102.999" height="99" filterUnits="userSpaceOnUse" color-interpolation-filters="sRGB">
<feFlood flood-opacity="0" result="BackgroundImageFix"/>
<feColorMatrix in="SourceAlpha" type="matrix" values="0 0 0 0 0 0 0 0 0 0 0 0 0 0 0 0 0 0 127 0" result="hardAlpha"/>
<feOffset dy="2"/>
<feGaussianBlur stdDeviation="6"/>
<feColorMatrix type="matrix" values="0 0 0 0 0 0 0 0 0 0 0 0 0 0 0 0 0 0 0.12 0"/>
<feBlend mode="plus-darker" in2="BackgroundImageFix" result="effect1_dropShadow_45_5019"/>
<feBlend mode="normal" in="SourceGraphic" in2="effect1_dropShadow_45_5019" result="shape"/>
</filter>
<filter id="filter3_dd_45_5019" x="24" y="174" width="231.712" height="70" filterUnits="userSpaceOnUse" color-interpolation-filters="sRGB">
<feFlood flood-opacity="0" result="BackgroundImageFix"/>
<feColorMatrix in="SourceAlpha" type="matrix" values="0 0 0 0 0 0 0 0 0 0 0 0 0 0 0 0 0 0 127 0" result="hardAlpha"/>
<feOffset dy="4"/>
<feGaussianBlur stdDeviation="6"/>
<feColorMatrix type="matrix" values="0 0 0 0 0 0 0 0 0 0 0 0 0 0 0 0 0 0 0.16 0"/>
<feBlend mode="normal" in2="BackgroundImageFix" result="effect1_dropShadow_45_5019"/>
<feColorMatrix in="SourceAlpha" type="matrix" values="0 0 0 0 0 0 0 0 0 0 0 0 0 0 0 0 0 0 127 0" result="hardAlpha"/>
<feOffset dy="2"/>
<feGaussianBlur stdDeviation="2"/>
<feColorMatrix type="matrix" values="0 0 0 0 0 0 0 0 0 0 0 0 0 0 0 0 0 0 0.24 0"/>
<feBlend mode="normal" in2="effect1_dropShadow_45_5019" result="effect2_dropShadow_45_5019"/>
<feBlend mode="normal" in="SourceGraphic" in2="effect2_dropShadow_45_5019" result="shape"/>
</filter>
<filter id="filter4_dd_45_5019" x="39.856" y="162" width="200" height="70" filterUnits="userSpaceOnUse" color-interpolation-filters="sRGB">
<feFlood flood-opacity="0" result="BackgroundImageFix"/>
<feColorMatrix in="SourceAlpha" type="matrix" values="0 0 0 0 0 0 0 0 0 0 0 0 0 0 0 0 0 0 127 0" result="hardAlpha"/>
<feOffset dy="4"/>
<feGaussianBlur stdDeviation="6"/>
<feColorMatrix type="matrix" values="0 0 0 0 0 0 0 0 0 0 0 0 0 0 0 0 0 0 0.16 0"/>
<feBlend mode="normal" in2="BackgroundImageFix" result="effect1_dropShadow_45_5019"/>
<feColorMatrix in="SourceAlpha" type="matrix" values="0 0 0 0 0 0 0 0 0 0 0 0 0 0 0 0 0 0 127 0" result="hardAlpha"/>
<feOffset dy="2"/>
<feGaussianBlur stdDeviation="2"/>
<feColorMatrix type="matrix" values="0 0 0 0 0 0 0 0 0 0 0 0 0 0 0 0 0 0 0.24 0"/>
<feBlend mode="normal" in2="effect1_dropShadow_45_5019" result="effect2_dropShadow_45_5019"/>
<feBlend mode="normal" in="SourceGraphic" in2="effect2_dropShadow_45_5019" result="shape"/>
</filter>
<filter id="filter5_i_45_5019" x="59.856" y="190" width="6" height="7" filterUnits="userSpaceOnUse" color-interpolation-filters="sRGB">
<feFlood flood-opacity="0" result="BackgroundImageFix"/>
<feBlend mode="normal" in="SourceGraphic" in2="BackgroundImageFix" result="shape"/>
<feColorMatrix in="SourceAlpha" type="matrix" values="0 0 0 0 0 0 0 0 0 0 0 0 0 0 0 0 0 0 127 0" result="hardAlpha"/>
<feOffset dy="1"/>
<feGaussianBlur stdDeviation="1"/>
<feComposite in2="hardAlpha" operator="arithmetic" k2="-1" k3="1"/>
<feColorMatrix type="matrix" values="0 0 0 0 0 0 0 0 0 0 0 0 0 0 0 0 0 0 0.24 0"/>
<feBlend mode="darken" in2="shape" result="effect1_innerShadow_45_5019"/>
</filter>
<filter id="filter6_i_45_5019" x="213.856" y="190" width="6" height="7" filterUnits="userSpaceOnUse" color-interpolation-filters="sRGB">
<feFlood flood-opacity="0" result="BackgroundImageFix"/>
<feBlend mode="normal" in="SourceGraphic" in2="BackgroundImageFix" result="shape"/>
<feColorMatrix in="SourceAlpha" type="matrix" values="0 0 0 0 0 0 0 0 0 0 0 0 0 0 0 0 0 0 127 0" result="hardAlpha"/>
<feOffset dy="1"/>
<feGaussianBlur stdDeviation="1"/>
<feComposite in2="hardAlpha" operator="arithmetic" k2="-1" k3="1"/>
<feColorMatrix type="matrix" values="0 0 0 0 0 0 0 0 0 0 0 0 0 0 0 0 0 0 0.24 0"/>
<feBlend mode="darken" in2="shape" result="effect1_innerShadow_45_5019"/>
</filter>
<filter id="filter7_i_45_5019" x="92.9556" y="185.024" width="94.1006" height="16.384" filterUnits="userSpaceOnUse" color-interpolation-filters="sRGB">
<feFlood flood-opacity="0" result="BackgroundImageFix"/>
<feBlend mode="normal" in="SourceGraphic" in2="BackgroundImageFix" result="shape"/>
<feColorMatrix in="SourceAlpha" type="matrix" values="0 0 0 0 0 0 0 0 0 0 0 0 0 0 0 0 0 0 127 0" result="hardAlpha"/>
<feOffset dy="1"/>
<feGaussianBlur stdDeviation="1"/>
<feComposite in2="hardAlpha" operator="arithmetic" k2="-1" k3="1"/>
<feColorMatrix type="matrix" values="0 0 0 0 0 0 0 0 0 0 0 0 0 0 0 0 0 0 0.24 0"/>
<feBlend mode="darken" in2="shape" result="effect1_innerShadow_45_5019"/>
</filter>
<linearGradient id="paint0_linear_45_5019" x1="140" y1="31.7284" x2="140" y2="246.82" gradientUnits="userSpaceOnUse">
<stop stop-color="white"/>
<stop offset="1" stop-color="white" stop-opacity="0"/>
</linearGradient>
<radialGradient id="paint1_radial_45_5019" cx="0" cy="0" r="1" gradientUnits="userSpaceOnUse" gradientTransform="translate(140 93.51) rotate(90) scale(141.869 107.639)">
<stop stop-color="white"/>
<stop offset="1" stop-color="white" stop-opacity="0"/>
</radialGradient>
<linearGradient id="paint2_linear_45_5019" x1="232.12" y1="40.6237" x2="232.12" y2="245.588" gradientUnits="userSpaceOnUse">
<stop stop-color="#49F0BC"/>
<stop offset="1" stop-color="#29DCCC"/>
</linearGradient>
<linearGradient id="paint3_linear_45_5019" x1="139" y1="31.7284" x2="139" y2="246.82" gradientUnits="userSpaceOnUse">
<stop stop-color="white"/>
<stop offset="1" stop-color="white" stop-opacity="0"/>
</linearGradient>
<radialGradient id="paint4_radial_45_5019" cx="0" cy="0" r="1" gradientUnits="userSpaceOnUse" gradientTransform="translate(139 93.51) rotate(90) scale(141.869 107.639)">
<stop stop-color="white"/>
<stop offset="1" stop-color="white" stop-opacity="0"/>
</radialGradient>
<linearGradient id="paint5_linear_45_5019" x1="0" y1="0" x2="0" y2="280" gradientUnits="userSpaceOnUse">
<stop stop-color="white"/>
<stop offset="1" stop-color="white" stop-opacity="0.01"/>
</linearGradient>
<linearGradient id="paint6_linear_45_5019" x1="140.119" y1="36.7944" x2="140.119" y2="245.456" gradientUnits="userSpaceOnUse">
<stop stop-color="white"/>
<stop offset="1" stop-color="#999999"/>
</linearGradient>
<linearGradient id="paint7_linear_45_5019" x1="139.864" y1="91.0869" x2="139.864" y2="165.087" gradientUnits="userSpaceOnUse">
<stop stop-color="#DFDFDF"/>
<stop offset="1" stop-color="#A9A9A9"/>
</linearGradient>
<linearGradient id="paint8_linear_45_5019" x1="139.856" y1="182" x2="139.856" y2="228" gradientUnits="userSpaceOnUse">
<stop stop-opacity="0"/>
<stop offset="1" stop-opacity="0.16"/>
</linearGradient>
<linearGradient id="paint9_linear_45_5019" x1="139.856" y1="159" x2="139.856" y2="228" gradientUnits="userSpaceOnUse">
<stop stop-color="white"/>
<stop offset="1" stop-color="white" stop-opacity="0"/>
</linearGradient>
<radialGradient id="paint10_radial_45_5019" cx="0" cy="0" r="1" gradientUnits="userSpaceOnUse" gradientTransform="translate(139.856 182) rotate(90) scale(46 193.221)">
<stop stop-color="white"/>
<stop offset="1" stop-color="white" stop-opacity="0"/>
</radialGradient>
<linearGradient id="paint11_linear_45_5019" x1="139.856" y1="170" x2="139.856" y2="216" gradientUnits="userSpaceOnUse">
<stop stop-opacity="0"/>
<stop offset="1" stop-opacity="0.16"/>
</linearGradient>
<linearGradient id="paint12_linear_45_5019" x1="139.856" y1="170" x2="139.856" y2="216" gradientUnits="userSpaceOnUse">
<stop stop-color="white"/>
<stop offset="1" stop-color="white" stop-opacity="0"/>
</linearGradient>
<radialGradient id="paint13_radial_45_5019" cx="0" cy="0" r="1" gradientUnits="userSpaceOnUse" gradientTransform="translate(139.856 178.027) rotate(90) scale(37.9729 88)">
<stop stop-color="white"/>
<stop offset="1" stop-color="white" stop-opacity="0"/>
</radialGradient>
</defs>
</svg>
