<svg xmlns="http://www.w3.org/2000/svg" width="1700" height="2120" viewBox="0 0 1700 2120">
<defs>
<marker id="arrow-red" markerWidth="11" markerHeight="8" refX="10" refY="4" orient="auto"><path d="M0,0 L11,4 L0,8 z" fill="#c93535"/></marker>
<marker id="arrow-red-left" markerWidth="11" markerHeight="8" refX="10" refY="4" orient="auto"><path d="M0,0 L11,4 L0,8 z" fill="#c93535"/></marker>
</defs>
<rect width="100%" height="100%" fill="#fff"/>
<text x="850.0" y="45" text-anchor="middle" font-family="Arial, sans-serif" font-size="25" font-weight="700" fill="#222" style="">Sequence Diagram - Đăng nhập và phân quyền</text>
<circle cx="95" cy="95" r="15" fill="#e9e8ff" stroke="#8e8eaa" stroke-width="2"/><line x1="95" y1="110" x2="95" y2="155" stroke="#222" stroke-width="2"/><line x1="61" y1="129" x2="129" y2="129" stroke="#222" stroke-width="2"/><line x1="95" y1="155" x2="65" y2="195" stroke="#222" stroke-width="2"/><line x1="95" y1="155" x2="125" y2="195" stroke="#222" stroke-width="2"/><text text-anchor="middle" font-family="Arial, sans-serif" font-size="20" font-weight="400" fill="#222"><tspan x="95" y="228.0">Learner / Admin</tspan></text>
<line x1="95" y1="245" x2="95" y2="1890" stroke="#b9b9b9" stroke-width="2" stroke-dasharray="8 8"/>
<line x1="320" y1="97" x2="320" y2="160" stroke="#222" stroke-width="2"/><circle cx="344" cy="118" r="21" fill="#e9e8ff" stroke="#8e8eaa" stroke-width="2"/><text text-anchor="middle" font-family="Arial, sans-serif" font-size="20" font-weight="400" fill="#222"><tspan x="320" y="162.0">«view»</tspan><tspan x="320" y="185.0">LoginPage</tspan></text>
<line x1="320" y1="245" x2="320" y2="1890" stroke="#b9b9b9" stroke-width="2" stroke-dasharray="8 8"/>
<circle cx="555" cy="120" r="23" fill="#e9e8ff" stroke="#8e8eaa" stroke-width="2"/><path d="M 550 98 q 20 -25 36 0" fill="none" stroke="#222" stroke-width="2"/><text text-anchor="middle" font-family="Arial, sans-serif" font-size="20" font-weight="400" fill="#222"><tspan x="555" y="162.0">«ctrl»</tspan><tspan x="555" y="185.0">authService</tspan></text>
<line x1="555" y1="245" x2="555" y2="1890" stroke="#b9b9b9" stroke-width="2" stroke-dasharray="8 8"/>
<circle cx="805" cy="120" r="23" fill="#e9e8ff" stroke="#8e8eaa" stroke-width="2"/><path d="M 800 98 q 20 -25 36 0" fill="none" stroke="#222" stroke-width="2"/><text text-anchor="middle" font-family="Arial, sans-serif" font-size="20" font-weight="400" fill="#222"><tspan x="805" y="151.0">«ctrl»</tspan><tspan x="805" y="174.0">Auth API</tspan><tspan x="805" y="197.0">(/api/auth)</tspan></text>
<line x1="805" y1="245" x2="805" y2="1890" stroke="#b9b9b9" stroke-width="2" stroke-dasharray="8 8"/>
<circle cx="1060" cy="119" r="23" fill="#e9e8ff" stroke="#8e8eaa" stroke-width="2"/><text text-anchor="middle" font-family="Arial, sans-serif" font-size="20" font-weight="400" fill="#222"><tspan x="1060" y="162.0">«entity»</tspan><tspan x="1060" y="185.0">Database</tspan></text>
<line x1="1060" y1="245" x2="1060" y2="1890" stroke="#b9b9b9" stroke-width="2" stroke-dasharray="8 8"/>
<circle cx="1315" cy="119" r="23" fill="#e9e8ff" stroke="#8e8eaa" stroke-width="2"/><text text-anchor="middle" font-family="Arial, sans-serif" font-size="20" font-weight="400" fill="#222"><tspan x="1315" y="162.0">«external»</tspan><tspan x="1315" y="185.0">Google OAuth</tspan></text>
<line x1="1315" y1="245" x2="1315" y2="1890" stroke="#b9b9b9" stroke-width="2" stroke-dasharray="8 8"/>
<line x1="1580" y1="97" x2="1580" y2="160" stroke="#222" stroke-width="2"/><circle cx="1604" cy="118" r="21" fill="#e9e8ff" stroke="#8e8eaa" stroke-width="2"/><text text-anchor="middle" font-family="Arial, sans-serif" font-size="20" font-weight="400" fill="#222"><tspan x="1580" y="162.0">«view»</tspan><tspan x="1580" y="185.0">Home / Admin CMS</tspan></text>
<line x1="1580" y1="245" x2="1580" y2="1890" stroke="#b9b9b9" stroke-width="2" stroke-dasharray="8 8"/>
<line x1="95" y1="280" x2="320" y2="280" stroke="#c93535" stroke-width="2" marker-end="url(#arrow-red)"/><text x="207.5" y="268" text-anchor="middle" font-family="Arial, sans-serif" font-size="18" font-weight="400" fill="#222" style="">Mở trang đăng nhập</text>
<line x1="320" y1="335" x2="555" y2="335" stroke="#c93535" stroke-width="2" marker-end="url(#arrow-red)"/><text x="437.5" y="323" text-anchor="middle" font-family="Arial, sans-serif" font-size="18" font-weight="400" fill="#222" style="">render LoginPage</text>
<rect x="35" y="390" width="1630" height="455" fill="none" stroke="#222" stroke-width="2"/><path d="M 35 426 L 130 426 L 160 390 L 35 390" fill="#fff" stroke="#222" stroke-width="2"/><text x="78" y="415" text-anchor="middle" font-family="Arial, sans-serif" font-size="20" font-weight="700" fill="#222" style="">alt</text><text x="190" y="415" text-anchor="start" font-family="Arial, sans-serif" font-size="19" font-weight="700" fill="#222" style="">[Đăng nhập bằng email/password]</text>
<line x1="95" y1="465" x2="320" y2="465" stroke="#c93535" stroke-width="2" marker-end="url(#arrow-red)"/><text x="207.5" y="453" text-anchor="middle" font-family="Arial, sans-serif" font-size="18" font-weight="400" fill="#222" style="">Nhập email, password</text>
<line x1="320" y1="515" x2="555" y2="515" stroke="#c93535" stroke-width="2" marker-end="url(#arrow-red)"/><text x="437.5" y="503" text-anchor="middle" font-family="Arial, sans-serif" font-size="18" font-weight="400" fill="#222" style="">login(email, password)</text>
<line x1="555" y1="565" x2="805" y2="565" stroke="#c93535" stroke-width="2" marker-end="url(#arrow-red)"/><text x="680.0" y="553" text-anchor="middle" font-family="Arial, sans-serif" font-size="18" font-weight="400" fill="#222" style="">POST /auth/login</text>
<line x1="805" y1="615" x2="1060" y2="615" stroke="#c93535" stroke-width="2" marker-end="url(#arrow-red)"/><text x="932.5" y="603" text-anchor="middle" font-family="Arial, sans-serif" font-size="18" font-weight="400" fill="#222" style="">Tìm user theo email</text>
<line x1="1060" y1="665" x2="805" y2="665" stroke="#c93535" stroke-width="2" marker-end="url(#arrow-red)" stroke-dasharray="7 7"/><text x="932.5" y="653" text-anchor="middle" font-family="Arial, sans-serif" font-size="18" font-weight="400" fill="#222" style="">Thông tin user</text>
<line x1="805" y1="715" x2="805" y2="715" stroke="#c93535" stroke-width="2" marker-end="url(#arrow-red)"/><text x="805.0" y="703" text-anchor="middle" font-family="Arial, sans-serif" font-size="18" font-weight="400" fill="#222" style="">Kiểm tra mật khẩu, trạng thái</text>
<line x1="805" y1="765" x2="555" y2="765" stroke="#c93535" stroke-width="2" marker-end="url(#arrow-red)" stroke-dasharray="7 7"/><text x="680.0" y="753" text-anchor="middle" font-family="Arial, sans-serif" font-size="18" font-weight="400" fill="#222" style="">accessToken, refreshToken, role</text>
<line x1="555" y1="815" x2="320" y2="815" stroke="#c93535" stroke-width="2" marker-end="url(#arrow-red)" stroke-dasharray="7 7"/><text x="437.5" y="803" text-anchor="middle" font-family="Arial, sans-serif" font-size="18" font-weight="400" fill="#222" style="">Lưu token</text>
<line x1="35" y1="845" x2="1665" y2="845" stroke="#222" stroke-width="1.5" stroke-dasharray="6 5"/><text x="55" y="873" text-anchor="start" font-family="Arial, sans-serif" font-size="18" font-weight="700" fill="#222" style="">[Đăng nhập bằng Google OAuth]</text>
<line x1="95" y1="905" x2="320" y2="905" stroke="#c93535" stroke-width="2" marker-end="url(#arrow-red)"/><text x="207.5" y="893" text-anchor="middle" font-family="Arial, sans-serif" font-size="18" font-weight="400" fill="#222" style="">Chọn Google Login</text>
<line x1="320" y1="955" x2="1315" y2="955" stroke="#c93535" stroke-width="2" marker-end="url(#arrow-red)"/><text x="817.5" y="943" text-anchor="middle" font-family="Arial, sans-serif" font-size="18" font-weight="400" fill="#222" style="">Mở xác thực Google</text>
<line x1="1315" y1="1005" x2="320" y2="1005" stroke="#c93535" stroke-width="2" marker-end="url(#arrow-red)" stroke-dasharray="7 7"/><text x="817.5" y="993" text-anchor="middle" font-family="Arial, sans-serif" font-size="18" font-weight="400" fill="#222" style="">Trả credential / authorization code</text>
<line x1="320" y1="1055" x2="555" y2="1055" stroke="#c93535" stroke-width="2" marker-end="url(#arrow-red)"/><text x="437.5" y="1043" text-anchor="middle" font-family="Arial, sans-serif" font-size="18" font-weight="400" fill="#222" style="">loginWithGoogle(credential)</text>
<line x1="555" y1="1105" x2="805" y2="1105" stroke="#c93535" stroke-width="2" marker-end="url(#arrow-red)"/><text x="680.0" y="1093" text-anchor="middle" font-family="Arial, sans-serif" font-size="18" font-weight="400" fill="#222" style="">POST /auth/google</text>
<line x1="805" y1="1155" x2="1315" y2="1155" stroke="#c93535" stroke-width="2" marker-end="url(#arrow-red)"/><text x="1060.0" y="1143" text-anchor="middle" font-family="Arial, sans-serif" font-size="18" font-weight="400" fill="#222" style="">Xác minh credential</text>
<line x1="1315" y1="1205" x2="805" y2="1205" stroke="#c93535" stroke-width="2" marker-end="url(#arrow-red)" stroke-dasharray="7 7"/><text x="1060.0" y="1193" text-anchor="middle" font-family="Arial, sans-serif" font-size="18" font-weight="400" fill="#222" style="">Google user info</text>
<line x1="805" y1="1255" x2="1060" y2="1255" stroke="#c93535" stroke-width="2" marker-end="url(#arrow-red)"/><text x="932.5" y="1243" text-anchor="middle" font-family="Arial, sans-serif" font-size="18" font-weight="400" fill="#222" style="">Tìm hoặc tạo user</text>
<line x1="1060" y1="1305" x2="805" y2="1305" stroke="#c93535" stroke-width="2" marker-end="url(#arrow-red)" stroke-dasharray="7 7"/><text x="932.5" y="1293" text-anchor="middle" font-family="Arial, sans-serif" font-size="18" font-weight="400" fill="#222" style="">Thông tin user</text>
<line x1="805" y1="1355" x2="555" y2="1355" stroke="#c93535" stroke-width="2" marker-end="url(#arrow-red)" stroke-dasharray="7 7"/><text x="680.0" y="1343" text-anchor="middle" font-family="Arial, sans-serif" font-size="18" font-weight="400" fill="#222" style="">accessToken, refreshToken, role</text>
<line x1="555" y1="1405" x2="320" y2="1405" stroke="#c93535" stroke-width="2" marker-end="url(#arrow-red)" stroke-dasharray="7 7"/><text x="437.5" y="1393" text-anchor="middle" font-family="Arial, sans-serif" font-size="18" font-weight="400" fill="#222" style="">Lưu token</text>
<rect x="35" y="1480" width="1630" height="245" fill="none" stroke="#222" stroke-width="2"/><path d="M 35 1516 L 130 1516 L 160 1480 L 35 1480" fill="#fff" stroke="#222" stroke-width="2"/><text x="78" y="1505" text-anchor="middle" font-family="Arial, sans-serif" font-size="20" font-weight="700" fill="#222" style="">alt</text><text x="190" y="1505" text-anchor="start" font-family="Arial, sans-serif" font-size="19" font-weight="700" fill="#222" style="">[Phân quyền sau đăng nhập]</text>
<line x1="320" y1="1550" x2="555" y2="1550" stroke="#c93535" stroke-width="2" marker-end="url(#arrow-red)"/><text x="437.5" y="1538" text-anchor="middle" font-family="Arial, sans-serif" font-size="18" font-weight="400" fill="#222" style="">getCurrentUser()</text>
<line x1="555" y1="1595" x2="805" y2="1595" stroke="#c93535" stroke-width="2" marker-end="url(#arrow-red)"/><text x="680.0" y="1583" text-anchor="middle" font-family="Arial, sans-serif" font-size="18" font-weight="400" fill="#222" style="">GET /auth/me</text>
<line x1="805" y1="1640" x2="555" y2="1640" stroke="#c93535" stroke-width="2" marker-end="url(#arrow-red)" stroke-dasharray="7 7"/><text x="680.0" y="1628" text-anchor="middle" font-family="Arial, sans-serif" font-size="18" font-weight="400" fill="#222" style="">Thông tin user + role</text>
<line x1="555" y1="1685" x2="320" y2="1685" stroke="#c93535" stroke-width="2" marker-end="url(#arrow-red)" stroke-dasharray="7 7"/><text x="437.5" y="1673" text-anchor="middle" font-family="Arial, sans-serif" font-size="18" font-weight="400" fill="#222" style="">Trả role</text>
<line x1="35" y1="1610" x2="1665" y2="1610" stroke="#222" stroke-width="1.5" stroke-dasharray="6 5"/><text x="55" y="1638" text-anchor="start" font-family="Arial, sans-serif" font-size="18" font-weight="700" fill="#222" style="">[Role = Admin]</text>
<line x1="320" y1="1655" x2="1580" y2="1655" stroke="#c93535" stroke-width="2" marker-end="url(#arrow-red)"/><text x="950.0" y="1643" text-anchor="middle" font-family="Arial, sans-serif" font-size="18" font-weight="400" fill="#222" style="">Điều hướng đến Admin CMS</text>
<line x1="35" y1="1685" x2="1665" y2="1685" stroke="#222" stroke-width="1.5" stroke-dasharray="6 5"/><text x="55" y="1713" text-anchor="start" font-family="Arial, sans-serif" font-size="18" font-weight="700" fill="#222" style="">[Role = Learner]</text>
<line x1="320" y1="1730" x2="1580" y2="1730" stroke="#c93535" stroke-width="2" marker-end="url(#arrow-red)"/><text x="950.0" y="1718" text-anchor="middle" font-family="Arial, sans-serif" font-size="18" font-weight="400" fill="#222" style="">Điều hướng đến Learner Home</text>
<circle cx="95" cy="1930" r="15" fill="#e9e8ff" stroke="#8e8eaa" stroke-width="2"/><line x1="95" y1="1945" x2="95" y2="1990" stroke="#222" stroke-width="2"/><line x1="61" y1="1964" x2="129" y2="1964" stroke="#222" stroke-width="2"/><line x1="95" y1="1990" x2="65" y2="2030" stroke="#222" stroke-width="2"/><line x1="95" y1="1990" x2="125" y2="2030" stroke="#222" stroke-width="2"/><text text-anchor="middle" font-family="Arial, sans-serif" font-size="20" font-weight="400" fill="#222"><tspan x="95" y="2063.0">Learner / Admin</tspan></text>
<line x1="320" y1="1932" x2="320" y2="1995" stroke="#222" stroke-width="2"/><circle cx="344" cy="1953" r="21" fill="#e9e8ff" stroke="#8e8eaa" stroke-width="2"/><text text-anchor="middle" font-family="Arial, sans-serif" font-size="20" font-weight="400" fill="#222"><tspan x="320" y="1997.0">«view»</tspan><tspan x="320" y="2020.0">LoginPage</tspan></text>
<circle cx="555" cy="1955" r="23" fill="#e9e8ff" stroke="#8e8eaa" stroke-width="2"/><path d="M 550 1933 q 20 -25 36 0" fill="none" stroke="#222" stroke-width="2"/><text text-anchor="middle" font-family="Arial, sans-serif" font-size="20" font-weight="400" fill="#222"><tspan x="555" y="1997.0">«ctrl»</tspan><tspan x="555" y="2020.0">authService</tspan></text>
<circle cx="805" cy="1955" r="23" fill="#e9e8ff" stroke="#8e8eaa" stroke-width="2"/><path d="M 800 1933 q 20 -25 36 0" fill="none" stroke="#222" stroke-width="2"/><text text-anchor="middle" font-family="Arial, sans-serif" font-size="20" font-weight="400" fill="#222"><tspan x="805" y="1986.0">«ctrl»</tspan><tspan x="805" y="2009.0">Auth API</tspan><tspan x="805" y="2032.0">(/api/auth)</tspan></text>
<circle cx="1060" cy="1954" r="23" fill="#e9e8ff" stroke="#8e8eaa" stroke-width="2"/><text text-anchor="middle" font-family="Arial, sans-serif" font-size="20" font-weight="400" fill="#222"><tspan x="1060" y="1997.0">«entity»</tspan><tspan x="1060" y="2020.0">Database</tspan></text>
<circle cx="1315" cy="1954" r="23" fill="#e9e8ff" stroke="#8e8eaa" stroke-width="2"/><text text-anchor="middle" font-family="Arial, sans-serif" font-size="20" font-weight="400" fill="#222"><tspan x="1315" y="1997.0">«external»</tspan><tspan x="1315" y="2020.0">Google OAuth</tspan></text>
<line x1="1580" y1="1932" x2="1580" y2="1995" stroke="#222" stroke-width="2"/><circle cx="1604" cy="1953" r="21" fill="#e9e8ff" stroke="#8e8eaa" stroke-width="2"/><text text-anchor="middle" font-family="Arial, sans-serif" font-size="20" font-weight="400" fill="#222"><tspan x="1580" y="1997.0">«view»</tspan><tspan x="1580" y="2020.0">Home / Admin CMS</tspan></text>
</svg>